Pretension2-Italic[wght].glyphspackage
{
glyphname = exclam;
layers = (
{
layerId = "BF2F17A8-34C3-4EBA-8163-9D00BAFD6277";
shapes = (
{
closed = 1;
nodes = (
(190,466,l),
(330,1490,l),
(754,1490,l),
(554,466,l)
);
},
{
closed = 1;
nodes = (
(91,0,l),
(155,351,l),
(563,351,l),
(499,0,l)
);
}
);
width = 776;
},
{
layerId = "074E11EA-331B-4F91-A771-D63337ECF1B1";
shapes = (
{
closed = 1;
nodes = (
(172,479,l),
(328,1490,l),
(532,1490,l),
(351,479,l)
);
},
{
closed = 1;
nodes = (
(67,0,l),
(105,232,l),
(339,232,l),
(301,0,l)
);
}
);
width = 555;
},
{
layerId = "B31D44BF-3352-4B16-8DB9-CDCEC9E4DE37";
shapes = (
{
closed = 1;
nodes = (
(225,434,l),
(400,1490,l),
(446,1490,l),
(271,434,l)
);
},
{
closed = 1;
nodes = (
(131,0,l),
(146,90,l),
(236,90,l),
(221,0,l)
);
}
);
width = 538;
}
);
unicode = (33,58031);
}
{
glyphname = numbersign;
layers = (
{
layerId = "CA727784-8AA1-4300-8B34-14310001C03E";
shapes = (
{
closed = 1;
nodes = (
(690,0,l),
(960,1490,l),
(1250,1490,l),
(980,0,l)
);
},
{
closed = 1;
nodes = (
(34,340,l),
(90,632,l),
(1288,632,l),
(1234,340,l)
);
},
{
closed = 1;
nodes = (
(166,0,l),
(436,1490,l),
(728,1490,l),
(456,0,l)
);
},
{
closed = 1;
nodes = (
(130,858,l),
(184,1150,l),
(1382,1150,l),
(1328,858,l)
);
}
);
width = 1356;
},
{
layerId = "C35C9F9E-A7EE-4180-9620-B6D8D84AB5E2";
shapes = (
{
closed = 1;
nodes = (
(729,0,l),
(999,1490,l),
(1152,1490,l),
(882,0,l)
);
},
{
closed = 1;
nodes = (
(60,411,l),
(87,561,l),
(1203,561,l),
(1174,411,l)
);
},
{
closed = 1;
nodes = (
(205,0,l),
(477,1490,l),
(628,1490,l),
(358,0,l)
);
},
{
closed = 1;
nodes = (
(156,927,l),
(183,1079,l),
(1299,1079,l),
(1270,927,l)
);
}
);
width = 1297;
},
{
layerId = "FB0E6F58-CE6D-4D5A-8B32-1EB8A97466B2";
shapes = (
{
closed = 1;
nodes = (
(782,0,l),
(1054,1490,l),
(1100,1490,l),
(830,0,l)
);
},
{
closed = 1;
nodes = (
(72,462,l),
(82,510,l),
(1192,510,l),
(1184,462,l)
);
},
{
closed = 1;
nodes = (
(258,0,l),
(530,1490,l),
(576,1490,l),
(306,0,l)
);
},
{
closed = 1;
nodes = (
(166,980,l),
(176,1026,l),
(1288,1026,l),
(1278,980,l)
);
}
);
width = 1298;
}
);
unicode = 35;
}
{
glyphname = dollar;
layers = (
{
anchors = (
{
name = m.uni0326;
position = "{668, 0}";
},
{
name = m.uni030F_1;
position = "{914, 1490}";
},
{
name = m.uni0327_3;
position = "{661, 0}";
}
);
layerId = "776CB2AD-1814-4C60-BC2D-56A98A3F851B";
shapes = (
{
closed = 1;
nodes = (
(516,-186,l),
(824,1676,l),
(944,1676,l),
(636,-186,l)
);
},
{
closed = 1;
nodes = (
(501,-18,o),
(389,1,o),
(295,40,cs),
(107,116,o),
(12,275,o),
(52,524,c),
(436,524,l),
(431,479,o),
(436,440,o),
(451,409,cs),
(482,346,o),
(551,314,o),
(655,314,cs),
(698,314,o),
(736,319,o),
(767,330,cs),
(829,351,o),
(866,391,o),
(874,440,cs),
(878,463,o),
(874,483,o),
(863,500,c),
(839,534,o),
(781,561,o),
(674,584,cs),
(529,616,ls),
(402,644,o),
(307,692,o),
(243,760,cs),
(178,827,o),
(156,919,o),
(175,1036,cs),
(190,1131,o),
(228,1214,o),
(287,1285,cs),
(405,1427,o),
(595,1510,o),
(831,1510,cs),
(952,1510,o),
(1055,1490,o),
(1140,1450,cs),
(1310,1369,o),
(1394,1219,o),
(1363,1024,c),
(975,1024,l),
(980,1073,o),
(968,1111,o),
(940,1138,cs),
(912,1165,o),
(865,1178,o),
(800,1178,cs),
(759,1178,o),
(724,1173,o),
(696,1164,c),
(639,1144,o),
(609,1108,o),
(601,1064,cs),
(597,1041,o),
(601,1020,o),
(612,1003,cs),
(623,985,o),
(642,970,o),
(669,957,cs),
(696,944,o),
(733,932,o),
(778,922,cs),
(895,896,ls),
(1054,860,o),
(1162,803,o),
(1224,726,cs),
(1286,649,o),
(1305,553,o),
(1286,440,cs),
(1270,342,o),
(1234,259,o),
(1179,191,cs),
(1067,54,o),
(882,-18,o),
(630,-18,cs)
);
}
);
width = 1364;
},
{
anchors = (
{
name = m.uni0326;
position = "{685, 0}";
},
{
name = m.uni030F_1;
position = "{939, 1490}";
},
{
name = m.uni0327_3;
position = "{679, 0}";
}
);
layerId = "20DC6F22-D8D0-4CDE-BECF-0ED1E6480441";
shapes = (
{
closed = 1;
nodes = (
(468,-218,l),
(787,1708,l),
(907,1708,l),
(588,-218,l)
);
},
{
closed = 1;
nodes = (
(468,-26,o),
(377,-9,o),
(301,26,cs),
(149,94,o),
(71,223,o),
(87,390,c),
(282,390,l),
(278,334,o),
(289,288,o),
(316,252,cs),
(369,179,o),
(470,144,o),
(587,144,cs),
(654,144,o),
(717,155,o),
(774,177,cs),
(889,221,o),
(970,302,o),
(987,409,cs),
(995,457,o),
(988,496,o),
(967,526,c),
(923,585,o),
(836,620,o),
(732,651,cs),
(560,702,ls),
(453,733,o),
(370,780,o),
(310,841,cs),
(249,902,o),
(227,985,o),
(244,1089,cs),
(257,1173,o),
(291,1247,o),
(344,1310,cs),
(450,1437,o),
(617,1510,o),
(810,1510,cs),
(907,1510,o),
(991,1493,o),
(1064,1459,cs),
(1208,1390,o),
(1288,1266,o),
(1268,1114,c),
(1083,1114,l),
(1086,1186,o),
(1061,1242,o),
(1007,1282,cs),
(953,1322,o),
(881,1342,o),
(792,1342,cs),
(727,1342,o),
(669,1332,o),
(618,1311,cs),
(515,1270,o),
(447,1194,o),
(431,1102,cs),
(422,1050,o),
(431,1008,o),
(458,976,cs),
(484,944,o),
(518,919,o),
(560,902,c),
(601,884,o),
(640,870,o),
(675,859,c),
(817,818,ls),
(892,797,o),
(988,762,o),
(1067,701,cs),
(1146,640,o),
(1194,546,o),
(1171,406,cs),
(1158,325,o),
(1126,251,o),
(1076,186,cs),
(975,55,o),
(806,-26,o),
(575,-26,cs)
);
}
);
width = 1312;
},
{
anchors = (
{
name = m.uni0326;
position = "{601, 0}";
},
{
name = m.uni030F_1;
position = "{876, 1490}";
},
{
name = m.uni0327_3;
position = "{599, 0}";
}
);
layerId = "72C9AAD8-EC9F-4272-847E-B53637FCE55F";
shapes = (
{
closed = 1;
nodes = (
(486,-186,l),
(794,1676,l),
(840,1676,l),
(532,-186,l)
);
},
{
closed = 1;
nodes = (
(435,-22,o),
(359,-6,o),
(296,25,cs),
(171,88,o),
(108,203,o),
(123,350,c),
(169,350,l),
(164,285,o),
(174,228,o),
(199,179,cs),
(250,81,o),
(361,24,o),
(525,24,cs),
(611,24,o),
(689,39,o),
(760,69,cs),
(900,128,o),
(997,238,o),
(1020,378,cs),
(1029,431,o),
(1025,478,o),
(1010,518,cs),
(979,598,o),
(894,658,o),
(735,711,cs),
(575,765,ls),
(464,802,o),
(384,851,o),
(336,910,cs),
(288,969,o),
(271,1042,o),
(286,1128,cs),
(298,1201,o),
(328,1267,o),
(376,1325,cs),
(472,1441,o),
(622,1512,o),
(791,1512,cs),
(876,1512,o),
(949,1495,o),
(1008,1461,cs),
(1126,1393,o),
(1184,1271,o),
(1168,1118,c),
(1122,1118,l),
(1131,1219,o),
(1108,1303,o),
(1051,1368,cs),
(994,1433,o),
(907,1466,o),
(792,1466,cs),
(717,1466,o),
(646,1452,o),
(580,1423,cs),
(448,1365,o),
(353,1259,o),
(332,1128,cs),
(324,1078,o),
(328,1033,o),
(344,993,cs),
(360,953,o),
(389,918,o),
(431,887,cs),
(472,856,o),
(526,830,o),
(593,807,cs),
(754,753,ls),
(875,712,o),
(961,664,o),
(1013,604,cs),
(1064,543,o),
(1081,470,o),
(1066,378,cs),
(1053,301,o),
(1023,232,o),
(974,172,cs),
(877,51,o),
(720,-22,o),
(525,-22,cs)
);
}
);
width = 1254;
}
);
leftKerningGroup = public.kern2.S2;
rightKerningGroup = public.kern1.S;
unicode = 36;
}
{
glyphname = percent;
layers = (
{
layerId = "B1221E90-548C-4905-8880-9EE25E37C96B";
shapes = (
{
closed = 1;
nodes = (
(232,1162,ls),
(243,1226,o),
(266,1285,o),
(303,1338,cs),
(376,1445,o),
(495,1514,o),
(643,1514,cs),
(720,1514,o),
(783,1498,o),
(830,1466,cs),
(924,1402,o),
(959,1290,o),
(938,1162,cs),
(925,1084,ls),
(915,1020,o),
(892,962,o),
(856,909,cs),
(784,803,o),
(666,734,o),
(514,734,cs),
(438,734,o),
(376,750,o),
(329,782,cs),
(234,846,o),
(199,959,o),
(219,1084,cs)
);
},
{
closed = 1;
nodes = (
(475,1084,ls),
(470,1055,o),
(473,1027,o),
(482,1001,cs),
(491,975,o),
(514,962,o),
(551,962,cs),
(591,962,o),
(620,975,o),
(637,1001,cs),
(654,1027,o),
(664,1055,o),
(669,1084,cs),
(682,1162,ls),
(687,1191,o),
(686,1220,o),
(679,1247,c),
(671,1274,o),
(646,1288,o),
(605,1288,cs),
(566,1288,o),
(538,1274,o),
(521,1246,cs),
(504,1217,o),
(493,1189,o),
(488,1162,cs)
);
},
{
closed = 1;
nodes = (
(1101,404,ls),
(1112,468,o),
(1135,527,o),
(1172,580,cs),
(1245,687,o),
(1364,756,o),
(1512,756,cs),
(1589,756,o),
(1652,740,o),
(1699,708,cs),
(1793,644,o),
(1828,532,o),
(1807,404,cs),
(1794,326,ls),
(1784,262,o),
(1761,204,o),
(1725,151,cs),
(1653,45,o),
(1535,-24,o),
(1383,-24,cs),
(1307,-24,o),
(1245,-8,o),
(1198,24,cs),
(1103,88,o),
(1068,201,o),
(1088,326,cs)
);
},
{
closed = 1;
nodes = (
(1344,326,ls),
(1339,297,o),
(1342,269,o),
(1351,243,cs),
(1360,217,o),
(1383,204,o),
(1420,204,cs),
(1460,204,o),
(1489,217,o),
(1506,243,cs),
(1523,269,o),
(1533,297,o),
(1538,326,cs),
(1551,404,ls),
(1556,433,o),
(1555,462,o),
(1548,489,c),
(1540,516,o),
(1515,530,o),
(1474,530,cs),
(1435,530,o),
(1407,516,o),
(1390,488,cs),
(1373,459,o),
(1362,431,o),
(1357,404,cs)
);
},
{
closed = 1;
nodes = (
(257,0,l),
(1528,1490,l),
(1768,1490,l),
(497,0,l)
);
}
);
width = 1964;
},
{
layerId = "072C83FE-E797-476D-AD14-FFA4AF9D5A34";
shapes = (
{
closed = 1;
nodes = (
(317,1212,ls),
(326,1266,o),
(346,1316,o),
(376,1362,cs),
(436,1454,o),
(535,1514,o),
(660,1514,cs),
(725,1514,o),
(776,1500,o),
(815,1473,c),
(892,1417,o),
(920,1320,o),
(901,1212,cs),
(888,1134,ls),
(879,1080,o),
(860,1030,o),
(831,984,cs),
(771,892,o),
(674,831,o),
(546,831,cs),
(482,831,o),
(431,845,o),
(392,873,cs),
(314,929,o),
(287,1026,o),
(304,1134,cs)
);
},
{
closed = 1;
nodes = (
(457,1134,ls),
(450,1089,o),
(454,1050,o),
(469,1015,cs),
(484,980,o),
(517,962,o),
(568,962,cs),
(619,962,o),
(657,980,o),
(684,1015,cs),
(711,1050,o),
(728,1089,o),
(735,1134,cs),
(748,1212,ls),
(755,1257,o),
(752,1297,o),
(737,1332,cs),
(722,1367,o),
(689,1384,o),
(638,1384,cs),
(589,1384,o),
(551,1367,o),
(523,1332,cs),
(495,1297,o),
(477,1257,o),
(470,1212,cs)
);
},
{
closed = 1;
nodes = (
(1089,352,ls),
(1098,406,o),
(1118,456,o),
(1148,502,cs),
(1208,594,o),
(1307,654,o),
(1432,654,cs),
(1497,654,o),
(1548,640,o),
(1587,613,c),
(1664,557,o),
(1692,460,o),
(1673,352,cs),
(1660,274,ls),
(1651,220,o),
(1632,170,o),
(1603,124,cs),
(1543,32,o),
(1446,-29,o),
(1318,-29,cs),
(1254,-29,o),
(1203,-15,o),
(1164,13,cs),
(1086,69,o),
(1059,166,o),
(1076,274,cs)
);
},
{
closed = 1;
nodes = (
(1229,274,ls),
(1222,229,o),
(1226,190,o),
(1241,155,cs),
(1256,120,o),
(1289,102,o),
(1340,102,cs),
(1391,102,o),
(1429,120,o),
(1456,155,cs),
(1483,190,o),
(1500,229,o),
(1507,274,cs),
(1520,352,ls),
(1527,397,o),
(1524,437,o),
(1509,472,cs),
(1494,507,o),
(1461,524,o),
(1410,524,cs),
(1361,524,o),
(1323,507,o),
(1295,472,cs),
(1267,437,o),
(1249,397,o),
(1242,352,cs)
);
},
{
closed = 1;
nodes = (
(268,0,l),
(1539,1490,l),
(1708,1490,l),
(437,0,l)
);
}
);
width = 1915;
},
{
layerId = "E51591BD-FE93-453F-89B8-2F40CEFC943D";
shapes = (
{
closed = 1;
nodes = (
(295,1214,ls),
(305,1273,o),
(324,1324,o),
(353,1368,cs),
(410,1455,o),
(496,1506,o),
(588,1506,cs),
(634,1506,o),
(673,1494,o),
(706,1470,cs),
(771,1421,o),
(804,1331,o),
(784,1214,cs),
(776,1168,ls),
(767,1111,o),
(748,1060,o),
(719,1017,cs),
(661,929,o),
(576,878,o),
(484,878,cs),
(438,878,o),
(399,890,o),
(366,915,cs),
(300,963,o),
(268,1053,o),
(287,1168,cs)
);
},
{
closed = 1;
nodes = (
(333,1168,ls),
(321,1094,o),
(331,1035,o),
(362,991,cs),
(393,946,o),
(436,924,o),
(492,924,cs),
(547,924,o),
(598,946,o),
(644,991,cs),
(689,1035,o),
(718,1094,o),
(730,1168,cs),
(738,1214,ls),
(751,1289,o),
(742,1348,o),
(711,1393,cs),
(680,1438,o),
(636,1460,o),
(581,1460,cs),
(525,1460,o),
(474,1438,o),
(429,1393,cs),
(383,1348,o),
(354,1289,o),
(341,1214,cs)
);
},
{
closed = 1;
nodes = (
(1005,320,ls),
(1015,379,o),
(1034,430,o),
(1063,474,cs),
(1120,561,o),
(1206,612,o),
(1298,612,cs),
(1344,612,o),
(1383,600,o),
(1416,576,cs),
(1481,527,o),
(1514,437,o),
(1494,320,cs),
(1486,274,ls),
(1477,217,o),
(1458,166,o),
(1429,123,cs),
(1371,35,o),
(1286,-16,o),
(1194,-16,cs),
(1148,-16,o),
(1109,-4,o),
(1076,21,cs),
(1010,69,o),
(978,159,o),
(997,274,cs)
);
},
{
closed = 1;
nodes = (
(1043,274,ls),
(1031,200,o),
(1041,141,o),
(1072,97,cs),
(1103,52,o),
(1146,30,o),
(1202,30,cs),
(1257,30,o),
(1308,52,o),
(1354,97,cs),
(1399,141,o),
(1428,200,o),
(1440,274,cs),
(1448,320,ls),
(1461,395,o),
(1452,454,o),
(1421,499,cs),
(1390,544,o),
(1346,566,o),
(1291,566,cs),
(1235,566,o),
(1184,544,o),
(1139,499,cs),
(1093,454,o),
(1064,395,o),
(1051,320,cs)
);
},
{
closed = 1;
nodes = (
(229,0,l),
(1496,1490,l),
(1552,1490,l),
(283,0,l)
);
}
);
width = 1720;
}
);
unicode = 37;
}
{
glyphname = ampersand;
layers = (
{
layerId = "B92D097E-6F62-4818-9792-FACFD7690A0B";
shapes = (
{
closed = 1;
nodes = (
(374,-23,o),
(286,-4,o),
(215,34,cs),
(74,110,o),
(10,243,o),
(34,396,cs),
(43,452,o),
(62,501,o),
(91,544,cs),
(147,629,o),
(239,699,o),
(352,768,c),
(724,978,ls),
(761,999,o),
(788,1022,o),
(804,1045,c),
(819,1068,o),
(829,1089,o),
(832,1106,c),
(837,1129,o),
(832,1150,o),
(818,1169,c),
(803,1187,o),
(777,1196,o),
(738,1196,cs),
(717,1196,o),
(697,1192,o),
(679,1184,cs),
(660,1176,o),
(645,1165,o),
(633,1150,cs),
(621,1135,o),
(613,1116,o),
(610,1094,c),
(607,1065,o),
(611,1036,o),
(623,1006,cs),
(647,946,o),
(695,879,o),
(750,794,c),
(1340,0,l),
(940,0,l),
(442,640,ls),
(417,672,o),
(391,711,o),
(363,757,cs),
(334,802,o),
(312,854,o),
(296,912,cs),
(279,969,o),
(277,1032,o),
(288,1100,cs),
(301,1176,o),
(330,1245,o),
(377,1308,cs),
(424,1370,o),
(483,1420,o),
(554,1457,cs),
(625,1494,o),
(705,1513,o),
(792,1512,c),
(875,1513,o),
(945,1496,o),
(1000,1462,cs),
(1110,1393,o),
(1158,1273,o),
(1134,1134,cs),
(1123,1065,o),
(1096,1000,o),
(1052,940,cs),
(1008,880,o),
(950,827,o),
(878,782,cs),
(532,564,ls),
(507,548,o),
(484,529,o),
(463,508,cs),
(442,486,o),
(428,458,o),
(422,424,c),
(419,396,o),
(422,372,o),
(432,352,cs),
(451,312,o),
(497,291,o),
(562,290,cs),
(661,290,o),
(773,341,o),
(869,428,cs),
(965,515,o),
(1039,636,o),
(1062,776,c),
(1378,776,l),
(1365,690,o),
(1344,607,o),
(1313,527,cs),
(1282,447,o),
(1241,374,o),
(1190,308,cs),
(1139,241,o),
(1077,185,o),
(1004,140,c),
(960,119,o),
(919,102,o),
(876,82,c),
(811,44,o),
(744,17,o),
(677,1,cs),
(609,-15,o),
(543,-23,o),
(480,-24,c)
);
}
);
width = 1422;
},
{
layerId = "14A30E1C-002E-4EDB-A2B6-9D6791ECC38B";
shapes = (
{
closed = 1;
nodes = (
(385,-20,o),
(304,-2,o),
(239,34,cs),
(109,106,o),
(50,236,o),
(77,396,cs),
(87,458,o),
(109,513,o),
(144,561,cs),
(212,656,o),
(321,735,o),
(456,818,c),
(704,980,l),
(749,1007,o),
(787,1037,o),
(817,1068,cs),
(847,1099,o),
(866,1139,o),
(875,1188,c),
(880,1225,o),
(870,1262,o),
(843,1297,cs),
(816,1332,o),
(777,1349,o),
(724,1349,cs),
(687,1349,o),
(653,1340,o),
(622,1322,cs),
(591,1303,o),
(565,1280,o),
(544,1252,cs),
(523,1223,o),
(509,1193,o),
(504,1162,cs),
(498,1127,o),
(502,1092,o),
(515,1057,cs),
(541,986,o),
(593,913,o),
(646,832,cs),
(1192,0,l),
(977,0,l),
(523,678,ls),
(484,737,o),
(447,793,o),
(414,844,cs),
(380,895,o),
(354,946,o),
(337,997,cs),
(320,1048,o),
(316,1103,o),
(325,1162,cs),
(336,1230,o),
(360,1290,o),
(399,1341,cs),
(438,1392,o),
(487,1432,o),
(546,1461,cs),
(605,1490,o),
(672,1504,o),
(745,1504,cs),
(820,1504,o),
(882,1490,o),
(932,1461,cs),
(1031,1403,o),
(1075,1302,o),
(1055,1189,c),
(1044,1118,o),
(1016,1057,o),
(972,1005,cs),
(928,952,o),
(872,903,o),
(803,858,cs),
(470,637,ls),
(397,588,o),
(345,541,o),
(314,496,cs),
(282,451,o),
(265,418,o),
(262,397,cs),
(255,352,o),
(260,309,o),
(277,270,cs),
(311,190,o),
(391,137,o),
(508,137,cs),
(619,137,o),
(737,187,o),
(838,278,cs),
(938,369,o),
(1015,498,o),
(1040,658,c),
(1213,658,l),
(1197,559,o),
(1173,479,o),
(1141,416,cs),
(1109,353,o),
(1076,304,o),
(1042,268,cs),
(1008,231,o),
(980,203,o),
(957,182,c),
(942,167,o),
(923,152,o),
(908,137,c),
(851,84,o),
(783,45,o),
(706,19,cs),
(629,-7,o),
(554,-20,o),
(483,-20,cs)
);
}
);
width = 1319;
},
{
layerId = "536BEFF9-0CB2-44EC-980E-54189405B9DA";
shapes = (
{
closed = 1;
nodes = (
(376,-20,o),
(308,-2,o),
(250,33,cs),
(134,104,o),
(75,228,o),
(99,372,cs),
(107,417,o),
(123,459,o),
(146,498,cs),
(192,577,o),
(276,655,o),
(419,750,cs),
(663,914,l),
(744,967,o),
(803,1017,o),
(840,1062,cs),
(877,1107,o),
(900,1155,o),
(909,1208,c),
(920,1282,o),
(909,1343,o),
(874,1391,cs),
(839,1439,o),
(785,1463,o),
(713,1464,c),
(665,1464,o),
(618,1452,o),
(571,1427,cs),
(524,1402,o),
(483,1369,o),
(450,1328,cs),
(416,1287,o),
(395,1243,o),
(387,1196,cs),
(382,1164,o),
(385,1133,o),
(394,1102,cs),
(412,1041,o),
(458,968,o),
(529,852,c),
(1063,0,l),
(1005,0,l),
(489,824,ls),
(454,881,o),
(424,931,o),
(400,972,cs),
(375,1013,o),
(358,1052,o),
(348,1087,c),
(337,1122,o),
(335,1158,o),
(341,1196,cs),
(350,1252,o),
(374,1304,o),
(411,1352,cs),
(448,1399,o),
(493,1438,o),
(546,1467,cs),
(599,1496,o),
(654,1510,o),
(711,1510,cs),
(768,1510,o),
(816,1497,o),
(856,1471,cs),
(935,1418,o),
(974,1324,o),
(955,1208,cs),
(945,1148,o),
(920,1092,o),
(879,1040,cs),
(838,988,o),
(774,933,o),
(687,876,c),
(443,712,ls),
(342,645,o),
(269,587,o),
(226,537,cs),
(182,487,o),
(155,432,o),
(145,372,cs),
(135,308,o),
(141,250,o),
(164,197,cs),
(209,91,o),
(311,23,o),
(451,26,cs),
(596,30,o),
(725,82,o),
(830,174,cs),
(934,265,o),
(1016,391,o),
(1065,542,c),
(1111,536,l),
(1098,494,o),
(1081,453,o),
(1060,412,cs),
(1039,371,o),
(1017,332,o),
(992,295,cs),
(967,258,o),
(942,223,o),
(917,192,cs),
(904,176,o),
(892,161,o),
(877,148,cs),
(816,97,o),
(749,57,o),
(675,26,cs),
(601,-5,o),
(528,-20,o),
(455,-20,cs)
);
}
);
width = 1195;
}
);
unicode = 38;
}
{
glyphname = quotesingle;
layers = (
{
layerId = "34603D4A-9538-491D-AC31-753F00B30A17";
shapes = (
{
closed = 1;
nodes = (
(277,824,l),
(350,1490,l),
(720,1490,l),
(573,824,l)
);
}
);
width = 762;
},
{
layerId = "85556A68-E3BA-4C8B-AB50-53608EAFDB0D";
shapes = (
{
closed = 1;
nodes = (
(292,923,l),
(364,1490,l),
(558,1490,l),
(443,923,l)
);
}
);
width = 614;
},
{
layerId = "0B13E480-0BFF-4E9F-8F40-D0AA519A66AF";
shapes = (
{
closed = 1;
nodes = (
(341,1040,l),
(410,1490,l),
(461,1490,l),
(382,1040,l)
);
}
);
width = 563;
}
);
leftKerningGroup = quotedbl2;
rightKerningGroup = quotedbl;
unicode = 39;
}
{
glyphname = parenleft;
layers = (
{
layerId = "776CB2AD-1814-4C60-BC2D-56A98A3F851B";
shapes = (
{
closed = 1;
nodes = (
(155,719,o),
(185,835,o),
(227,955,cs),
(268,1075,o),
(318,1190,o),
(375,1299,cs),
(432,1408,o),
(492,1502,o),
(555,1581,c),
(921,1581,l),
(859,1479,o),
(803,1372,o),
(753,1261,cs),
(652,1038,o),
(581,812,o),
(546,607,cs),
(532,520,o),
(525,434,o),
(524,348,cs),
(523,262,o),
(530,169,o),
(545,68,cs),
(560,-33,o),
(582,-148,o),
(613,-279,c),
(247,-279,l),
(123,-6,o),
(85,302,o),
(136,607,cs)
);
}
);
width = 794;
},
{
layerId = "20DC6F22-D8D0-4CDE-BECF-0ED1E6480441";
shapes = (
{
closed = 1;
nodes = (
(244,716,o),
(274,830,o),
(316,949,cs),
(357,1068,o),
(407,1182,o),
(464,1293,cs),
(521,1403,o),
(582,1499,o),
(645,1581,c),
(820,1581,l),
(751,1475,o),
(688,1366,o),
(632,1253,cs),
(519,1027,o),
(441,801,o),
(409,609,cs),
(394,521,o),
(388,432,o),
(391,341,cs),
(394,250,o),
(405,153,o),
(425,52,cs),
(445,-49,o),
(474,-160,o),
(512,-279,c),
(337,-279,l),
(213,16,o),
(178,320,o),
(226,608,cs)
);
}
);
width = 747;
},
{
layerId = "72C9AAD8-EC9F-4272-847E-B53637FCE55F";
shapes = (
{
closed = 1;
nodes = (
(268,733,o),
(294,839,o),
(328,944,cs),
(361,1049,o),
(403,1154,o),
(452,1257,cs),
(501,1360,o),
(557,1461,o),
(620,1560,c),
(670,1560,l),
(605,1460,o),
(547,1358,o),
(498,1255,cs),
(398,1047,o),
(332,836,o),
(296,628,c),
(279,523,o),
(270,419,o),
(269,314,cs),
(268,209,o),
(276,106,o),
(291,3,cs),
(306,-101,o),
(329,-202,o),
(360,-302,c),
(312,-302,l),
(221,-3,o),
(198,317,o),
(250,628,cs)
);
}
);
width = 646;
}
);
leftKerningGroup = public.kern2.parenleft2;
rightKerningGroup = public.kern1.parenleft;
unicode = 40;
}
{
glyphname = parenright;
layers = (
{
layerId = "34603D4A-9538-491D-AC31-753F00B30A17";
shapes = (
{
closed = 1;
nodes = (
(-99,-294,l),
(-37,-181,o),
(17,-76,o),
(64,22,cs),
(156,216,o),
(219,395,o),
(251,592,cs),
(270,705,o),
(279,819,o),
(280,934,cs),
(281,1164,o),
(254,1383,o),
(209,1566,c),
(591,1566,l),
(624,1492,o),
(648,1402,o),
(665,1296,cs),
(681,1189,o),
(688,1075,o),
(687,954,cs),
(686,833,o),
(675,712,o),
(655,592,cs),
(602,264,o),
(472,-43,o),
(283,-294,c)
);
}
);
width = 778;
},
{
layerId = "85556A68-E3BA-4C8B-AB50-53608EAFDB0D";
shapes = (
{
closed = 1;
nodes = (
(-43,-280,l),
(34,-163,o),
(99,-54,o),
(153,47,cs),
(260,248,o),
(325,430,o),
(354,607,cs),
(370,704,o),
(377,808,o),
(376,918,cs),
(372,1137,o),
(334,1368,o),
(265,1580,c),
(441,1580,l),
(477,1498,o),
(505,1402,o),
(526,1292,cs),
(546,1181,o),
(557,1067,o),
(560,948,cs),
(562,829,o),
(554,715,o),
(536,606,cs),
(488,317,o),
(352,11,o),
(133,-280,c)
);
}
);
width = 746;
},
{
layerId = "0B13E480-0BFF-4E9F-8F40-D0AA519A66AF";
shapes = (
{
closed = 1;
nodes = (
(-1,-302,l),
(64,-202,o),
(121,-101,o),
(171,3,cs),
(270,209,o),
(338,419,o),
(371,628,cs),
(389,732,o),
(399,836,o),
(400,941,cs),
(402,1150,o),
(372,1359,o),
(308,1560,c),
(358,1560,l),
(389,1461,o),
(411,1360,o),
(426,1257,cs),
(441,1154,o),
(448,1049,o),
(447,944,cs),
(446,839,o),
(436,733,o),
(419,628,cs),
(367,317,o),
(240,-3,o),
(49,-302,c)
);
}
);
width = 647;
}
);
leftKerningGroup = parenright2;
rightKerningGroup = parenright;
unicode = 41;
}
{
glyphname = asterisk;
layers = (
{
layerId = "0C8A2A23-4AE2-454C-AEC2-B13207615F2B";
shapes = (
{
closed = 1;
nodes = (
(520,652,l),
(588,908,l),
(350,760,l),
(268,962,l),
(518,1070,l),
(302,1178,l),
(454,1382,l),
(640,1234,l),
(660,1490,l),
(894,1490,l),
(826,1234,l),
(1064,1382,l),
(1146,1178,l),
(896,1070,l),
(1112,962,l),
(960,760,l),
(774,908,l),
(754,652,l)
);
}
);
width = 1246;
},
{
layerId = "70700972-0F8E-4D63-A70C-6AC279DB2638";
shapes = (
{
closed = 1;
nodes = (
(455,652,l),
(523,969,l),
(228,798,l),
(178,924,l),
(480,1070,l),
(222,1216,l),
(314,1344,l),
(556,1173,l),
(595,1490,l),
(739,1490,l),
(675,1173,l),
(966,1344,l),
(1020,1216,l),
(716,1070,l),
(976,924,l),
(883,798,l),
(642,969,l),
(599,652,l)
);
}
);
width = 1026;
},
{
layerId = "70E6EC48-9A24-4AD5-9BFE-11FF46F6DBD6";
shapes = (
{
closed = 1;
nodes = (
(504,652,l),
(568,1030,l),
(210,840,l),
(186,882,l),
(550,1074,l),
(256,1260,l),
(280,1300,l),
(578,1108,l),
(642,1490,l),
(690,1490,l),
(626,1112,l),
(984,1300,l),
(1006,1260,l),
(642,1068,l),
(936,882,l),
(914,840,l),
(614,1032,l),
(550,652,l)
);
}
);
width = 1024;
}
);
rightKerningGroup = degree;
unicode = 42;
}
{
glyphname = plus;
layers = (
{
layerId = "B1221E90-548C-4905-8880-9EE25E37C96B";
shapes = (
{
closed = 1;
nodes = (
(466,66,l),
(644,1144,l),
(970,1144,l),
(792,66,l)
);
},
{
closed = 1;
nodes = (
(153,442,l),
(207,768,l),
(1283,768,l),
(1229,442,l)
);
}
);
width = 1420;
},
{
layerId = "072C83FE-E797-476D-AD14-FFA4AF9D5A34";
shapes = (
{
closed = 1;
nodes = (
(517,100,l),
(677,1066,l),
(846,1066,l),
(686,100,l)
);
},
{
closed = 1;
nodes = (
(185,497,l),
(213,669,l),
(1178,669,l),
(1150,497,l)
);
}
);
width = 1356;
},
{
layerId = "E51591BD-FE93-453F-89B8-2F40CEFC943D";
shapes = (
{
closed = 1;
nodes = (
(563,160,l),
(703,1004,l),
(749,1004,l),
(609,160,l)
);
},
{
closed = 1;
nodes = (
(230,558,l),
(238,606,l),
(1082,606,l),
(1074,558,l)
);
}
);
width = 1304;
}
);
leftKerningGroup = public.kern2.plus2;
rightKerningGroup = public.kern1.plus;
unicode = 43;
}
{
glyphname = hyphen;
layers = (
{
layerId = "BF2F17A8-34C3-4EBA-8163-9D00BAFD6277";
shapes = (
{
closed = 1;
nodes = (
(866,744,l),
(816,442,l),
(118,442,l),
(168,744,l)
);
}
);
width = 972;
},
{
layerId = "074E11EA-331B-4F91-A771-D63337ECF1B1";
shapes = (
{
closed = 1;
nodes = (
(826,719,l),
(798,553,l),
(144,553,l),
(172,719,l)
);
}
);
width = 944;
},
{
layerId = "B31D44BF-3352-4B16-8DB9-CDCEC9E4DE37";
shapes = (
{
closed = 1;
nodes = (
(745,662,l),
(737,616,l),
(181,616,l),
(189,662,l)
);
}
);
width = 898;
}
);
rightKerningGroup = plus;
unicode = 45;
}
{
glyphname = period;
layers = (
{
layerId = "EF0863B1-A80B-4AC4-A80D-A5009A8E023C";
shapes = (
{
closed = 1;
nodes = (
(85,0,l),
(149,384,l),
(557,384,l),
(493,0,l)
);
}
);
width = 764;
},
{
layerId = "772355B8-E81A-4CAE-88E1-18D30E544C30";
shapes = (
{
closed = 1;
nodes = (
(86,0,l),
(124,232,l),
(358,232,l),
(320,0,l)
);
}
);
width = 589;
},
{
layerId = "F09EDC10-DC28-4948-8673-8B4992B77282";
shapes = (
{
closed = 1;
nodes = (
(139,0,l),
(154,90,l),
(244,90,l),
(229,0,l)
);
}
);
width = 554;
}
);
rightKerningGroup = comma;
unicode = (46,58026);
}
{
glyphname = slash;
layers = (
{
layerId = "B1221E90-548C-4905-8880-9EE25E37C96B";
shapes = (
{
closed = 1;
nodes = (
(998,1560,l),
(224,-224,l),
(-116,-224,l),
(658,1560,l)
);
}
);
width = 844;
},
{
layerId = "072C83FE-E797-476D-AD14-FFA4AF9D5A34";
shapes = (
{
closed = 1;
nodes = (
(858,1560,l),
(84,-224,l),
(-82,-224,l),
(692,1560,l)
);
}
);
width = 738;
},
{
layerId = "E51591BD-FE93-453F-89B8-2F40CEFC943D";
shapes = (
{
closed = 1;
nodes = (
(762,1560,l),
(-14,-224,l),
(-64,-224,l),
(710,1560,l)
);
}
);
width = 662;
}
);
unicode = 47;
}
{
glyphname = zero;
layers = (
{
anchors = (
{
name = m.uni030F_1;
position = "{953, 1490}";
}
);
layerId = "B92D097E-6F62-4818-9792-FACFD7690A0B";
shapes = (
{
closed = 1;
nodes = (
(495,-20,o),
(382,10,o),
(294,71,cs),
(118,192,o),
(49,423,o),
(101,744,cs),
(128,905,o),
(177,1042,o),
(248,1157,cs),
(390,1385,o),
(610,1510,o),
(886,1510,cs),
(1024,1510,o),
(1137,1480,o),
(1225,1419,cs),
(1401,1297,o),
(1470,1065,o),
(1417,744,cs),
(1391,583,o),
(1343,446,o),
(1272,333,cs),
(1130,105,o),
(910,-20,o),
(633,-20,cs)
);
},
{
closed = 1;
nodes = (
(738,308,o),
(785,325,o),
(826,358,cs),
(908,425,o),
(966,556,o),
(997,744,cs),
(1020,886,o),
(1018,995,o),
(990,1071,cs),
(962,1146,o),
(909,1184,o),
(832,1184,cs),
(781,1184,o),
(735,1167,o),
(694,1133,cs),
(611,1065,o),
(553,933,o),
(521,744,cs),
(498,603,o),
(500,495,o),
(529,420,cs),
(557,345,o),
(610,308,o),
(687,308,cs)
);
}
);
width = 1456;
},
{
anchors = (
{
name = m.uni030F_1;
position = "{965, 1490}";
}
);
layerId = "14A30E1C-002E-4EDB-A2B6-9D6791ECC38B";
shapes = (
{
closed = 1;
nodes = (
(439,-20,o),
(350,10,o),
(282,70,cs),
(145,190,o),
(99,421,o),
(152,744,cs),
(179,906,o),
(222,1044,o),
(283,1158,cs),
(404,1386,o),
(584,1510,o),
(803,1510,cs),
(912,1510,o),
(1001,1480,o),
(1070,1420,cs),
(1206,1300,o),
(1254,1070,o),
(1201,747,cs),
(1174,584,o),
(1131,445,o),
(1071,331,cs),
(951,102,o),
(771,-20,o),
(550,-20,cs)
);
},
{
closed = 1;
nodes = (
(650,146,o),
(716,170,o),
(775,218,cs),
(892,313,o),
(977,495,o),
(1018,747,cs),
(1049,933,o),
(1044,1079,o),
(1003,1186,cs),
(962,1292,o),
(887,1345,o),
(776,1345,cs),
(705,1345,o),
(640,1322,o),
(581,1276,cs),
(464,1183,o),
(378,1002,o),
(335,743,cs),
(304,555,o),
(310,409,o),
(352,304,cs),
(393,199,o),
(468,146,o),
(577,146,cs)
);
}
);
width = 1291;
},
{
anchors = (
{
name = m.uni030F_1;
position = "{848, 1490}";
}
);
layerId = "536BEFF9-0CB2-44EC-980E-54189405B9DA";
shapes = (
{
closed = 1;
nodes = (
(415,-20,o),
(339,11,o),
(281,73,cs),
(164,196,o),
(126,429,o),
(178,744,cs),
(205,903,o),
(246,1039,o),
(302,1154,cs),
(413,1382,o),
(574,1510,o),
(763,1510,cs),
(858,1510,o),
(934,1479,o),
(992,1418,cs),
(1107,1294,o),
(1145,1061,o),
(1092,744,cs),
(1066,587,o),
(1025,451,o),
(970,337,cs),
(858,108,o),
(699,-20,o),
(510,-20,cs)
);
},
{
closed = 1;
nodes = (
(602,26,o),
(679,55,o),
(750,113,cs),
(891,228,o),
(997,447,o),
(1046,744,cs),
(1083,969,o),
(1076,1145,o),
(1024,1273,cs),
(971,1400,o),
(882,1464,o),
(755,1464,cs),
(670,1464,o),
(592,1435,o),
(521,1378,cs),
(378,1262,o),
(273,1044,o),
(224,744,cs),
(187,521,o),
(195,345,o),
(248,218,cs),
(300,90,o),
(390,26,o),
(517,26,cs)
);
}
);
width = 1208;
}
);
leftKerningGroup = public.kern2.six;
rightKerningGroup = public.kern1.zero;
unicode = 48;
}
{
glyphname = one.ss01;
layers = (
{
layerId = "BF2F17A8-34C3-4EBA-8163-9D00BAFD6277";
shapes = (
{
closed = 1;
nodes = (
(341,0,l),
(518,1061,l),
(572,950,l),
(159,950,l),
(206,1228,l),
(301,1228,ls),
(534,1228,o),
(655,1333,o),
(681,1490,c),
(993,1490,l),
(745,0,l)
);
}
);
width = 934;
},
{
layerId = "074E11EA-331B-4F91-A771-D63337ECF1B1";
shapes = (
{
closed = 1;
nodes = (
(406,0,l),
(614.833,1253,l),
(676.667,1120,l),
(219.667,1120,l),
(244.,1266,l),
(346.,1266,ls),
(561.,1266,o),
(665.167,1333,o),
(691.333,1490,c),
(841.333,1490,l),
(593,0,l)
);
}
);
width = 866;
},
{
layerId = "B31D44BF-3352-4B16-8DB9-CDCEC9E4DE37";
shapes = (
{
closed = 1;
nodes = (
(314,0,l),
(536,1330,l),
(558,1278,l),
(237,1278,l),
(243,1318,l),
(311,1318,ls),
(485,1318,o),
(551,1361,o),
(572,1490,c),
(608,1490,l),
(360,0,l)
);
}
);
width = 685;
}
);
leftKerningGroup = one;
unicode = 49;
}
{
glyphname = two;
layers = (
{
anchors = (
{
name = m.uni030F_1;
position = "{893, 1490}";
}
);
layerId = "B92D097E-6F62-4818-9792-FACFD7690A0B";
shapes = (
{
closed = 1;
nodes = (
(6,0,l),
(54,290,l),
(686,750,ls),
(728,781,o),
(765,810,o),
(798,839,cs),
(830,867,o),
(856,896,o),
(877,926,cs),
(898,956,o),
(911,989,o),
(916,1024,cs),
(925,1081,o),
(915,1124,o),
(885,1154,c),
(854,1183,o),
(811,1198,o),
(756,1198,cs),
(719,1198,o),
(684,1191,o),
(652,1176,cs),
(588,1146,o),
(543,1088,o),
(528,1004,c),
(144,1004,l),
(161,1109,o),
(198,1199,o),
(254,1274,cs),
(365,1425,o),
(545,1510,o),
(776,1510,cs),
(895,1510,o),
(998,1491,o),
(1083,1453,cs),
(1253,1377,o),
(1339,1235,o),
(1308,1050,cs),
(1293,965,o),
(1262,883,o),
(1188,791,cs),
(1114,698,o),
(991,589,o),
(798,448,cs),
(639,332,l),
(637,322,l),
(1203,322,l),
(1150,0,l)
);
}
);
width = 1325;
},
{
anchors = (
{
name = m.uni030F_1;
position = "{946, 1490}";
}
);
layerId = "14A30E1C-002E-4EDB-A2B6-9D6791ECC38B";
shapes = (
{
closed = 1;
nodes = (
(61,0,l),
(84,137,l),
(667,674,ls),
(733,735,o),
(788,788,o),
(833,834,cs),
(878,880,o),
(913,924,o),
(938,965,cs),
(963,1006,o),
(979,1049,o),
(986,1095,cs),
(999,1174,o),
(984,1235,o),
(942,1279,cs),
(900,1323,o),
(840,1345,o),
(762,1345,cs),
(706,1345,o),
(654,1334,o),
(606,1311,cs),
(510,1265,o),
(442,1180,o),
(423,1067,c),
(242,1067,l),
(257,1155,o),
(289,1232,o),
(340,1299,cs),
(440,1431,o),
(595,1510,o),
(772,1510,cs),
(861,1510,o),
(938,1491,o),
(1001,1454,cs),
(1128,1379,o),
(1192,1248,o),
(1165,1092,cs),
(1152,1011,o),
(1118,935,o),
(1054,850,cs),
(989,765,o),
(888,662,o),
(737,526,cs),
(353,179,l),
(351,167,l),
(1037,167,l),
(1010,0,l)
);
}
);
width = 1249;
},
{
anchors = (
{
name = m.uni030F_1;
position = "{1019, 1490}";
}
);
layerId = "536BEFF9-0CB2-44EC-980E-54189405B9DA";
shapes = (
{
closed = 1;
nodes = (
(98,0,l),
(104,38,l),
(674,602,ls),
(763,691,o),
(834,765,o),
(886,824,cs),
(937,883,o),
(975,935,o),
(1000,982,cs),
(1024,1029,o),
(1040,1077,o),
(1048,1126,cs),
(1065,1223,o),
(1047,1304,o),
(996,1368,cs),
(944,1432,o),
(868,1464,o),
(768,1464,cs),
(699,1464,o),
(636,1448,o),
(578,1417,cs),
(462,1354,o),
(380,1245,o),
(355,1118,c),
(309,1118,l),
(321,1190,o),
(349,1256,o),
(392,1315,cs),
(479,1434,o),
(613,1510,o),
(768,1510,cs),
(843,1510,o),
(908,1493,o),
(961,1460,cs),
(1067,1393,o),
(1119,1274,o),
(1094,1126,c),
(1081,1043,o),
(1054,974,o),
(998,894,cs),
(942,813,o),
(852,714,o),
(709,574,c),
(182,52,l),
(181,46,l),
(1004,46,l),
(996,0,l)
);
}
);
width = 1273;
}
);
unicode = 50;
}
{
glyphname = three.ss01;
leftMetricsKey = "=152";
rightMetricsKey = "=144";
layers = (
{
anchors = (
{
name = m.uni030F_1;
position = "{1003, 1490}";
}
);
layerId = "B92D097E-6F62-4818-9792-FACFD7690A0B";
shapes = (
{
closed = 1;
nodes = (
(402,-20,o),
(85,122,o),
(135,454,c),
(541,454,l),
(530,352,o),
(630,306,o),
(719,306,cs),
(831,306,o),
(918,370,o),
(936,486,c),
(958,602,o),
(875,664,o),
(770,664,cs),
(550,664,l),
(591,912,l),
(934,1158,l),
(935,1166,l),
(329,1166,l),
(383,1490,l),
(1469,1490,l),
(1420,1198,l),
(852,780,l),
(828,873,l),
(1119,918,o),
(1411,777,o),
(1359,452,cs),
(1306,128,o),
(994,-20,o),
(689,-20,cs)
);
}
);
width = 1521;
},
{
anchors = (
{
name = m.uni030F_1;
position = "{1025, 1490}";
}
);
layerId = "14A30E1C-002E-4EDB-A2B6-9D6791ECC38B";
shapes = (
{
closed = 1;
nodes = (
(330,-21,o),
(92,127,o),
(127,407,c),
(316,407,l),
(300,239,o),
(410,143,o),
(592,143,cs),
(776,143,o),
(940,245,o),
(970,430,cs),
(1008,645,o),
(870,734,o),
(662,734,cs),
(494,734,l),
(518,884,l),
(986,1317,l),
(987,1325,l),
(350,1325,l),
(378,1490,l),
(1267,1490,l),
(1242,1344,l),
(679,824,l),
(684,858,l),
(954,883,o),
(1207,743,o),
(1155,430,cs),
(1107,149,o),
(871,-21,o),
(588,-21,cs)
);
}
);
width = 1321;
},
{
anchors = (
{
name = m.uni030F_1;
position = "{958, 1490}";
}
);
layerId = "536BEFF9-0CB2-44EC-980E-54189405B9DA";
shapes = (
{
closed = 1;
nodes = (
(268,-20,o),
(80,131,o),
(122,372,c),
(168,372,l),
(133,158,o),
(290,26,o),
(500,26,cs),
(729,26,o),
(930,183,o),
(969,414,c),
(1013,690,o),
(805,805,o),
(567,805,cs),
(498,805,l),
(506,850,l),
(1077,1443,l),
(1077,1444,l),
(361,1444,l),
(369,1490,l),
(1155,1490,l),
(1148,1452,l),
(536,817,l),
(540,839,l),
(821,857,o),
(1066,718,o),
(1015,414,c),
(974,162,o),
(759,-20,o),
(501,-20,cs)
);
}
);
width = 1184;
}
);
unicode = (51,57453);
}
{
glyphname = four.ss01;
layers = (
{
layerId = "B92D097E-6F62-4818-9792-FACFD7690A0B";
shapes = (
{
closed = 1;
nodes = (
(35,251,l),
(87,565,l),
(796,1490,l),
(1205,1490,l),
(502,571,l),
(500,562,l),
(1370,562,l),
(1319,251,l)
);
},
{
closed = 1;
nodes = (
(719,0,l),
(776,345,l),
(810,485,l),
(884,929,l),
(1252,929,l),
(1098,0,l)
);
}
);
width = 1492;
},
{
layerId = "14A30E1C-002E-4EDB-A2B6-9D6791ECC38B";
shapes = (
{
closed = 1;
nodes = (
(82,326,l),
(106,474,l),
(913,1490,l),
(1109,1490,l),
(318,494,l),
(317,486,l),
(1214,486,l),
(1188,326,l)
);
},
{
closed = 1;
nodes = (
(749,0,l),
(811,370,l),
(822,440,l),
(903,930,l),
(1075,930,l),
(921,0,l)
);
}
);
width = 1345;
},
{
layerId = "536BEFF9-0CB2-44EC-980E-54189405B9DA";
shapes = (
{
closed = 1;
nodes = (
(123,375,l),
(127,409,l),
(999,1490,l),
(1057,1490,l),
(198,425,l),
(197,421,l),
(1058,421,l),
(1051,375,l)
);
},
{
closed = 1;
nodes = (
(756,0,l),
(820,389,l),
(823,403,l),
(910,930,l),
(956,930,l),
(802,0,l)
);
}
);
width = 1231;
}
);
rightKerningGroup = public.kern1.four;
unicode = 52;
}
{
glyphname = five;
layers = (
{
layerId = "0C8A2A23-4AE2-454C-AEC2-B13207615F2B";
shapes = (
{
closed = 1;
nodes = (
(485,-20,o),
(388,0,o),
(305,41,cs),
(223,81,o),
(163,137,o),
(124,209,cs),
(86,280,o),
(73,361,o),
(87,454,c),
(480,454,l),
(473,403,o),
(487,362,o),
(519,332,cs),
(552,300,o),
(596,285,o),
(649,285,cs),
(691,285,o),
(729,294,o),
(764,312,cs),
(798,329,o),
(827,354,o),
(850,387,cs),
(873,419,o),
(889,457,o),
(896,500,cs),
(903,544,o),
(900,582,o),
(888,615,cs),
(876,647,o),
(855,671,o),
(826,689,cs),
(798,707,o),
(763,716,o),
(721,716,cs),
(679,716,o),
(637,705,o),
(598,685,cs),
(559,664,o),
(527,636,o),
(503,600,c),
(145,600,l),
(355,1489,l),
(1356,1489,l),
(1303,1167,l),
(634,1167,l),
(550,838,l),
(559,838,l),
(590,883,o),
(636,921,o),
(699,951,cs),
(761,980,o),
(830,995,o),
(905,995,cs),
(993,995,o),
(1069,975,o),
(1132,933,cs),
(1194,892,o),
(1239,835,o),
(1268,762,cs),
(1296,689,o),
(1302,606,o),
(1286,512,cs),
(1270,408,o),
(1231,316,o),
(1168,236,cs),
(1105,156,o),
(1025,94,o),
(928,48,cs),
(831,2,o),
(721,-20,o),
(599,-20,cs)
);
}
);
width = 1370;
},
{
layerId = "70700972-0F8E-4D63-A70C-6AC279DB2638";
shapes = (
{
closed = 1;
nodes = (
(439,-20,o),
(364,-4,o),
(301,31,cs),
(238,65,o),
(191,111,o),
(159,170,cs),
(128,229,o),
(116,297,o),
(125,372,c),
(300,372,l),
(295,305,o),
(317,250,o),
(365,206,cs),
(412,161,o),
(474,140,o),
(550,140,cs),
(611,140,o),
(668,154,o),
(721,183,cs),
(773,211,o),
(817,250,o),
(853,300,cs),
(889,351,o),
(911,407,o),
(922,471,cs),
(933,536,o),
(928,594,o),
(908,646,cs),
(889,697,o),
(856,737,o),
(812,767,cs),
(767,797,o),
(713,812,o),
(649,812,cs),
(604,812,o),
(556,804,o),
(506,791,cs),
(456,776,o),
(409,743,o),
(364,689,c),
(193,689,l),
(425,1489,l),
(1199,1489,l),
(1172,1329,l),
(550,1329,l),
(425,890,l),
(433,890,l),
(468,915,o),
(510,935,o),
(559,951,cs),
(607,967,o),
(656,975,o),
(707,975,cs),
(798,975,o),
(876,953,o),
(940,910,cs),
(1004,866,o),
(1051,807,o),
(1079,732,cs),
(1108,656,o),
(1113,570,o),
(1097,474,cs),
(1081,379,o),
(1047,295,o),
(992,220,cs),
(937,145,o),
(869,87,o),
(788,44,cs),
(707,1,o),
(619,-20,o),
(524,-20,cs)
);
}
);
width = 1245;
},
{
layerId = "70E6EC48-9A24-4AD5-9BFE-11FF46F6DBD6";
shapes = (
{
closed = 1;
nodes = (
(391,-20,o),
(326,-4,o),
(272,30,cs),
(218,63,o),
(180,110,o),
(156,169,cs),
(132,228,o),
(127,296,o),
(140,372,c),
(186,372,l),
(169,271,o),
(187,188,o),
(237,123,cs),
(287,58,o),
(364,26,o),
(468,26,cs),
(546,26,o),
(618,46,o),
(686,84,cs),
(753,123,o),
(810,175,o),
(857,241,cs),
(903,307,o),
(932,380,o),
(945,463,cs),
(959,551,o),
(954,627,o),
(929,692,cs),
(905,756,o),
(865,806,o),
(812,841,cs),
(759,876,o),
(697,893,o),
(625,893,cs),
(567,893,o),
(511,882,o),
(456,860,cs),
(401,837,o),
(345,799,o),
(284,745,c),
(234,745,l),
(451,1489,l),
(1111,1489,l),
(1103,1443,l),
(483,1443,l),
(305,826,l),
(311,826,l),
(354,861,o),
(403,889,o),
(456,909,cs),
(509,929,o),
(565,940,o),
(625,940,cs),
(705,940,o),
(776,920,o),
(838,881,cs),
(900,841,o),
(945,785,o),
(974,714,cs),
(1003,642,o),
(1009,559,o),
(992,463,cs),
(976,370,o),
(943,288,o),
(893,215,cs),
(843,143,o),
(781,85,o),
(708,43,cs),
(634,1,o),
(554,-20,o),
(468,-20,cs)
);
}
);
width = 1169;
}
);
unicode = 53;
}
{
glyphname = six.ss01;
layers = (
{
layerId = "0C8A2A23-4AE2-454C-AEC2-B13207615F2B";
shapes = (
{
closed = 1;
nodes = (
(467,-20,o),
(373,-1,o),
(288,37,cs),
(203,75,o),
(139,132,o),
(96,208,cs),
(53,284,o),
(40,379,o),
(59,492,cs),
(68,548,o),
(85,603,o),
(108,656,cs),
(154,762,o),
(224,864,o),
(312,968,cs),
(751,1490,l),
(1147,1490,l),
(597,840,l),
(460,840,l),
(478,861,o),
(506,882,o),
(543,903,cs),
(617,945,o),
(723,976,o),
(844,976,cs),
(937,976,o),
(1015,958,o),
(1080,922,cs),
(1145,885,o),
(1191,832,o),
(1220,763,cs),
(1249,694,o),
(1255,610,o),
(1239,512,cs),
(1221,403,o),
(1180,309,o),
(1117,230,cs),
(1054,150,o),
(975,88,o),
(881,45,cs),
(786,2,o),
(683,-20,o),
(571,-20,cs)
);
},
{
closed = 1;
nodes = (
(658,286,o),
(695,295,o),
(730,314,cs),
(764,332,o),
(793,357,o),
(816,389,cs),
(839,421,o),
(853,457,o),
(860,498,cs),
(867,539,o),
(865,575,o),
(852,607,cs),
(827,671,o),
(769,710,o),
(688,710,cs),
(649,710,o),
(613,701,o),
(579,683,cs),
(544,664,o),
(515,639,o),
(492,607,cs),
(469,575,o),
(453,539,o),
(446,498,cs),
(439,457,o),
(442,421,o),
(455,389,cs),
(480,325,o),
(540,286,o),
(617,286,cs)
);
}
);
width = 1317;
},
{
layerId = "70700972-0F8E-4D63-A70C-6AC279DB2638";
shapes = (
{
closed = 1;
nodes = (
(408,-20,o),
(330,1,o),
(266,43,cs),
(201,85,o),
(155,143,o),
(127,218,cs),
(98,292,o),
(92,377,o),
(107,472,cs),
(115,519,o),
(130,568,o),
(151,618,cs),
(194,718,o),
(274,836,o),
(406,993,cs),
(825,1490,l),
(1030,1490,l),
(412,763,l),
(393,763,l),
(411,791,o),
(435,817,o),
(464,840,cs),
(523,886,o),
(598,915,o),
(678,915,cs),
(769,915,o),
(846,896,o),
(907,858,cs),
(968,820,o),
(1011,767,o),
(1036,698,cs),
(1061,629,o),
(1066,549,o),
(1051,457,cs),
(1036,365,o),
(1002,283,o),
(949,212,cs),
(896,140,o),
(831,83,o),
(754,42,cs),
(676,1,o),
(591,-20,o),
(500,-20,cs)
);
},
{
closed = 1;
nodes = (
(583,143,o),
(636,157,o),
(685,184,cs),
(733,211,o),
(773,249,o),
(806,296,cs),
(839,343,o),
(860,397,o),
(870,458,cs),
(881,521,o),
(877,576,o),
(860,623,cs),
(825,718,o),
(745,773,o),
(630,773,cs),
(573,773,o),
(521,760,o),
(473,734,cs),
(424,708,o),
(384,672,o),
(351,625,cs),
(318,578,o),
(296,524,o),
(285,462,cs),
(275,400,o),
(279,345,o),
(296,297,cs),
(330,201,o),
(411,143,o),
(526,143,cs)
);
}
);
width = 1189;
},
{
layerId = "70E6EC48-9A24-4AD5-9BFE-11FF46F6DBD6";
shapes = (
{
closed = 1;
nodes = (
(402,-20,o),
(333,1,o),
(275,43,cs),
(216,85,o),
(174,141,o),
(147,212,cs),
(120,282,o),
(114,360,o),
(128,446,cs),
(134,483,o),
(144,519,o),
(158,554,cs),
(186,623,o),
(227,686,o),
(275,742,cs),
(915,1490,l),
(975,1490,l),
(390,808,l),
(376,808,l),
(387,823,o),
(405,838,o),
(430,854,cs),
(478,885,o),
(550,910,o),
(635,910,cs),
(714,910,o),
(783,889,o),
(841,848,cs),
(899,806,o),
(942,750,o),
(969,680,cs),
(996,609,o),
(1002,531,o),
(988,446,cs),
(974,360,o),
(942,282,o),
(892,212,cs),
(841,141,o),
(780,85,o),
(708,43,cs),
(636,1,o),
(560,-20,o),
(481,-20,cs)
);
},
{
closed = 1;
nodes = (
(551,26,o),
(619,45,o),
(685,83,cs),
(750,120,o),
(806,171,o),
(853,235,cs),
(900,298,o),
(929,369,o),
(942,446,cs),
(955,523,o),
(950,593,o),
(927,656,cs),
(881,783,o),
(776,864,o),
(635,864,cs),
(564,864,o),
(496,845,o),
(431,808,cs),
(365,770,o),
(309,719,o),
(263,656,cs),
(216,593,o),
(187,523,o),
(174,446,cs),
(161,369,o),
(166,298,o),
(189,235,cs),
(233,107,o),
(339,26,o),
(480,26,cs)
);
}
);
width = 1154;
}
);
unicode = (54,57455);
}
{
glyphname = seven;
layers = (
{
layerId = "776CB2AD-1814-4C60-BC2D-56A98A3F851B";
shapes = (
{
closed = 1;
nodes = (
(65,0,l),
(841,1158,l),
(842,1166,l),
(164,1166,l),
(218,1490,l),
(1324,1490,l),
(1270,1166,l),
(489,0,l)
);
}
);
width = 1226;
},
{
layerId = "20DC6F22-D8D0-4CDE-BECF-0ED1E6480441";
shapes = (
{
closed = 1;
nodes = (
(97,0,l),
(976,1311,l),
(978,1323,l),
(225,1323,l),
(253,1490,l),
(1216,1490,l),
(1186,1313,l),
(308,0,l)
);
}
);
width = 1162;
},
{
layerId = "72C9AAD8-EC9F-4272-847E-B53637FCE55F";
shapes = (
{
closed = 1;
nodes = (
(132,0,l),
(1074,1438,l),
(1075,1444,l),
(267,1444,l),
(275,1490,l),
(1139,1490,l),
(1131,1442,l),
(184,0,l)
);
}
);
width = 1113;
}
);
unicode = 55;
}
{
glyphname = eight;
layers = (
{
layerId = "B1221E90-548C-4905-8880-9EE25E37C96B";
shapes = (
{
closed = 1;
nodes = (
(502,-20,o),
(396,-1,o),
(304,36,cs),
(212,73,o),
(142,124,o),
(95,188,cs),
(48,252,o),
(31,324,o),
(44,404,cs),
(54,465,o),
(79,522,o),
(118,573,cs),
(196,675,o),
(317,746,o),
(450,766,c),
(451,776,l),
(368,791,o),
(305,830,o),
(261,891,cs),
(216,952,o),
(201,1023,o),
(214,1106,cs),
(227,1184,o),
(262,1253,o),
(317,1314,cs),
(372,1375,o),
(444,1423,o),
(532,1458,cs),
(619,1493,o),
(718,1510,o),
(827,1510,cs),
(937,1510,o),
(1034,1493,o),
(1119,1458,cs),
(1203,1423,o),
(1267,1375,o),
(1311,1314,cs),
(1354,1253,o),
(1369,1183,o),
(1356,1106,cs),
(1347,1050,o),
(1326,999,o),
(1293,953,cs),
(1227,861,o),
(1124,796,o),
(1009,776,c),
(1008,766,l),
(1070,756,o),
(1124,734,o),
(1171,700,cs),
(1264,632,o),
(1314,527,o),
(1294,404,cs),
(1281,324,o),
(1244,252,o),
(1183,188,cs),
(1122,124,o),
(1044,73,o),
(948,36,cs),
(851,-1,o),
(743,-20,o),
(622,-20,cs)
);
},
{
closed = 1;
nodes = (
(683,258,o),
(718,266,o),
(750,282,cs),
(782,297,o),
(809,319,o),
(831,347,cs),
(852,374,o),
(866,405,o),
(872,440,cs),
(878,474,o),
(875,504,o),
(862,531,cs),
(837,583,o),
(780,616,o),
(703,616,cs),
(666,616,o),
(631,609,o),
(599,594,cs),
(567,579,o),
(540,558,o),
(519,532,cs),
(498,505,o),
(484,475,o),
(478,440,c),
(473,405,o),
(476,374,o),
(489,347,c),
(513,292,o),
(569,258,o),
(644,258,cs)
);
},
{
closed = 1;
nodes = (
(783,896,o),
(815,903,o),
(844,917,cs),
(873,931,o),
(897,950,o),
(916,975,cs),
(935,1000,o),
(947,1027,o),
(952,1058,cs),
(957,1089,o),
(955,1117,o),
(944,1141,cs),
(922,1189,o),
(871,1218,o),
(803,1218,cs),
(770,1218,o),
(739,1211,o),
(711,1198,cs),
(682,1184,o),
(658,1165,o),
(639,1141,cs),
(620,1117,o),
(607,1089,o),
(602,1058,cs),
(597,1027,o),
(601,1000,o),
(612,976,cs),
(634,927,o),
(682,896,o),
(749,896,cs)
);
}
);
width = 1390;
},
{
layerId = "072C83FE-E797-476D-AD14-FFA4AF9D5A34";
shapes = (
{
closed = 1;
nodes = (
(444,-20,o),
(358,-2,o),
(285,34,cs),
(212,69,o),
(159,118,o),
(125,181,cs),
(91,244,o),
(81,316,o),
(94,397,cs),
(105,460,o),
(127,519,o),
(162,572,c),
(230,679,o),
(334,754,o),
(446,774,c),
(447,782,l),
(378,801,o),
(328,841,o),
(296,903,cs),
(263,964,o),
(253,1034,o),
(266,1113,cs),
(279,1190,o),
(309,1259,o),
(358,1319,cs),
(406,1378,o),
(467,1425,o),
(540,1459,cs),
(613,1493,o),
(694,1510,o),
(781,1510,cs),
(868,1510,o),
(943,1493,o),
(1008,1459,cs),
(1072,1424,o),
(1120,1377,o),
(1151,1318,cs),
(1182,1259,o),
(1192,1191,o),
(1179,1115,cs),
(1170,1062,o),
(1152,1012,o),
(1125,966,cs),
(1070,874,o),
(988,807,o),
(889,782,c),
(888,774,l),
(940,764,o),
(985,741,o),
(1023,705,cs),
(1099,633,o),
(1139,522,o),
(1116,394,cs),
(1102,313,o),
(1069,242,o),
(1016,180,cs),
(963,117,o),
(897,68,o),
(816,33,cs),
(735,-2,o),
(644,-20,o),
(545,-20,cs)
);
},
{
closed = 1;
nodes = (
(620,145,o),
(679,156,o),
(732,177,cs),
(785,198,o),
(829,229,o),
(864,268,cs),
(899,307,o),
(920,354,o),
(929,408,cs),
(938,463,o),
(932,511,o),
(913,553,cs),
(873,637,o),
(785,689,o),
(661,689,cs),
(600,689,o),
(543,677,o),
(490,654,cs),
(436,631,o),
(391,598,o),
(354,556,cs),
(317,514,o),
(293,465,o),
(283,409,cs),
(274,357,o),
(278,311,o),
(296,272,cs),
(331,192,o),
(419,145,o),
(555,145,cs)
);
},
{
closed = 1;
nodes = (
(725,848,o),
(775,859,o),
(821,880,cs),
(866,901,o),
(904,931,o),
(935,970,cs),
(966,1008,o),
(985,1052,o),
(993,1102,cs),
(1001,1152,o),
(997,1195,o),
(982,1232,c),
(950,1304,o),
(877,1346,o),
(770,1346,cs),
(717,1346,o),
(667,1336,o),
(622,1317,cs),
(576,1297,o),
(538,1269,o),
(507,1233,cs),
(476,1196,o),
(457,1152,o),
(448,1101,cs),
(439,1050,o),
(443,1006,o),
(459,968,cs),
(490,892,o),
(565,848,o),
(672,848,cs)
);
}
);
width = 1264;
},
{
layerId = "E51591BD-FE93-453F-89B8-2F40CEFC943D";
shapes = (
{
closed = 1;
nodes = (
(428,-20,o),
(354,-2,o),
(290,35,cs),
(225,71,o),
(177,120,o),
(146,181,cs),
(115,242,o),
(105,309,o),
(118,384,cs),
(128,443,o),
(151,500,o),
(186,553,cs),
(257,659,o),
(368,740,o),
(495,768,c),
(496,774,l),
(423,801,o),
(368,847,o),
(329,912,cs),
(290,977,o),
(278,1050,o),
(291,1132,cs),
(303,1203,o),
(332,1267,o),
(379,1324,cs),
(425,1381,o),
(482,1426,o),
(550,1460,cs),
(618,1493,o),
(690,1510,o),
(766,1510,cs),
(841,1510,o),
(908,1493,o),
(965,1460,cs),
(1022,1427,o),
(1065,1382,o),
(1093,1325,cs),
(1121,1268,o),
(1129,1203,o),
(1117,1132,cs),
(1108,1078,o),
(1089,1027,o),
(1059,979,cs),
(998,883,o),
(905,809,o),
(794,774,c),
(793,768,l),
(852,755,o),
(902,729,o),
(943,691,cs),
(1025,614,o),
(1064,503,o),
(1044,384,cs),
(1031,309,o),
(999,242,o),
(948,181,cs),
(896,120,o),
(832,71,o),
(756,35,cs),
(680,-2,o),
(599,-20,o),
(513,-20,cs)
);
},
{
closed = 1;
nodes = (
(590,26,o),
(664,42,o),
(733,75,cs),
(802,108,o),
(861,151,o),
(909,206,cs),
(956,261,o),
(985,321,o),
(996,386,cs),
(1007,453,o),
(1000,513,o),
(973,568,cs),
(920,677,o),
(804,748,o),
(648,748,cs),
(571,748,o),
(497,732,o),
(428,699,cs),
(358,666,o),
(299,623,o),
(252,568,cs),
(205,513,o),
(175,453,o),
(164,386,cs),
(153,321,o),
(161,261,o),
(188,206,cs),
(241,97,o),
(359,26,o),
(512,26,cs)
);
},
{
closed = 1;
nodes = (
(705,788,o),
(770,804,o),
(833,836,cs),
(895,867,o),
(948,909,o),
(991,961,cs),
(1034,1013,o),
(1061,1070,o),
(1071,1132,cs),
(1082,1194,o),
(1075,1250,o),
(1052,1301,c),
(1004,1401,o),
(901,1464,o),
(766,1464,cs),
(699,1464,o),
(635,1449,o),
(574,1420,cs),
(512,1391,o),
(460,1351,o),
(417,1301,cs),
(374,1250,o),
(348,1194,o),
(337,1132,cs),
(327,1070,o),
(334,1013,o),
(357,961,cs),
(403,857,o),
(505,788,o),
(638,788,cs)
);
}
);
width = 1220;
}
);
rightKerningGroup = public.kern1.three;
unicode = 56;
}
{
glyphname = nine.ss01;
layers = (
{
layerId = "776CB2AD-1814-4C60-BC2D-56A98A3F851B";
shapes = (
{
closed = 1;
nodes = (
(912,1510,o),
(1006,1491,o),
(1091,1453,cs),
(1175,1415,o),
(1239,1358,o),
(1282,1283,cs),
(1325,1207,o),
(1338,1112,o),
(1319,998,cs),
(1310,942,o),
(1294,888,o),
(1271,835,cs),
(1225,729,o),
(1154,627,o),
(1066,522,cs),
(627,0,l),
(231,0,l),
(781,650,l),
(918,650,l),
(901,629,o),
(873,609,o),
(836,588,cs),
(761,546,o),
(655,514,o),
(534,514,cs),
(442,514,o),
(364,532,o),
(299,569,cs),
(234,605,o),
(187,658,o),
(158,727,cs),
(129,796,o),
(123,880,o),
(139,978,cs),
(157,1087,o),
(198,1181,o),
(261,1261,cs),
(324,1340,o),
(403,1402,o),
(498,1445,cs),
(593,1488,o),
(696,1510,o),
(807,1510,cs)
);
},
{
closed = 1;
nodes = (
(721,1204,o),
(684,1195,o),
(649,1177,cs),
(614,1158,o),
(586,1133,o),
(563,1102,cs),
(540,1070,o),
(525,1033,o),
(518,992,cs),
(511,951,o),
(514,915,o),
(527,883,c),
(551,819,o),
(610,780,o),
(690,780,cs),
(729,780,o),
(766,789,o),
(800,808,cs),
(834,826,o),
(863,851,o),
(887,883,cs),
(910,915,o),
(925,951,o),
(932,992,cs),
(939,1033,o),
(936,1070,o),
(923,1102,cs),
(898,1165,o),
(840,1204,o),
(761,1204,cs)
);
}
);
width = 1316;
},
{
layerId = "20DC6F22-D8D0-4CDE-BECF-0ED1E6480441";
shapes = (
{
closed = 1;
nodes = (
(843,1510,o),
(921,1489,o),
(986,1447,cs),
(1050,1405,o),
(1096,1347,o),
(1125,1273,cs),
(1153,1199,o),
(1159,1114,o),
(1143,1018,cs),
(1136,971,o),
(1121,923,o),
(1100,873,cs),
(1056,772,o),
(977,654,o),
(844,497,cs),
(425,0,l),
(220,0,l),
(838,727,l),
(857,727,l),
(839,699,o),
(815,674,o),
(786,651,cs),
(727,605,o),
(653,575,o),
(572,575,cs),
(481,575,o),
(405,594,o),
(344,632,cs),
(283,670,o),
(239,723,o),
(214,792,cs),
(189,861,o),
(184,941,o),
(199,1033,cs),
(214,1125,o),
(248,1207,o),
(301,1279,cs),
(354,1351,o),
(419,1408,o),
(497,1449,cs),
(575,1490,o),
(659,1510,o),
(750,1510,cs)
);
},
{
closed = 1;
nodes = (
(667,1347,o),
(614,1333,o),
(566,1306,cs),
(517,1279,o),
(477,1241,o),
(444,1194,cs),
(411,1147,o),
(390,1093,o),
(380,1032,cs),
(370,969,o),
(374,914,o),
(391,867,cs),
(425,772,o),
(507,717,o),
(620,717,cs),
(677,717,o),
(729,730,o),
(778,756,cs),
(826,782,o),
(867,818,o),
(900,865,cs),
(933,912,o),
(955,966,o),
(965,1028,cs),
(976,1090,o),
(972,1145,o),
(955,1193,cs),
(920,1289,o),
(839,1347,o),
(724,1347,cs)
);
}
);
width = 1188;
},
{
layerId = "72C9AAD8-EC9F-4272-847E-B53637FCE55F";
shapes = (
{
closed = 1;
nodes = (
(813,1510,o),
(882,1489,o),
(941,1448,cs),
(999,1406,o),
(1042,1350,o),
(1069,1279,cs),
(1096,1208,o),
(1102,1130,o),
(1087,1044,cs),
(1081,1007,o),
(1071,971,o),
(1057,936,cs),
(1029,867,o),
(988,804,o),
(940,748,cs),
(300,0,l),
(240,0,l),
(825,682,l),
(839,682,l),
(828,667,o),
(810,652,o),
(786,637,cs),
(737,605,o),
(667,580,o),
(580,580,cs),
(501,580,o),
(432,601,o),
(374,643,cs),
(316,684,o),
(274,740,o),
(247,811,cs),
(220,881,o),
(213,959,o),
(227,1044,cs),
(242,1130,o),
(274,1208,o),
(324,1279,cs),
(374,1350,o),
(435,1406,o),
(507,1448,cs),
(579,1489,o),
(655,1510,o),
(734,1510,cs)
);
},
{
closed = 1;
nodes = (
(665,1464,o),
(597,1445,o),
(531,1408,cs),
(465,1370,o),
(409,1319,o),
(363,1256,cs),
(316,1192,o),
(286,1121,o),
(273,1044,cs),
(260,967,o),
(266,897,o),
(289,834,cs),
(335,707,o),
(440,626,o),
(580,626,cs),
(651,626,o),
(719,645,o),
(785,683,cs),
(850,720,o),
(906,771,o),
(953,834,cs),
(999,897,o),
(1028,967,o),
(1041,1044,cs),
(1054,1121,o),
(1050,1192,o),
(1027,1256,cs),
(982,1383,o),
(876,1464,o),
(735,1464,cs)
);
}
);
width = 1154;
}
);
leftKerningGroup = public.kern2.paragraph;
unicode = (57,57456);
}
{
glyphname = less;
layers = (
{
layerId = "0C8A2A23-4AE2-454C-AEC2-B13207615F2B";
shapes = (
{
closed = 1;
nodes = (
(139,430,l),
(197,780,l),
(1349,1214,l),
(1289,846,l),
(561,608,l),
(575,626,l),
(567,584,l),
(559,602,l),
(1209,364,l),
(1149,-2,l)
);
}
);
width = 1420;
},
{
layerId = "70700972-0F8E-4D63-A70C-6AC279DB2638";
shapes = (
{
closed = 1;
nodes = (
(168,520,l),
(190,646,l),
(1210,1122,l),
(1180,926,l),
(407,585,l),
(411,597,l),
(409,569,l),
(403,579,l),
(1066,238,l),
(1033,44,l)
);
}
);
width = 1356;
},
{
layerId = "70E6EC48-9A24-4AD5-9BFE-11FF46F6DBD6";
shapes = (
{
closed = 1;
nodes = (
(214,558,l),
(222,606,l),
(1104,1122,l),
(1094,1068,l),
(260,578,l),
(272,594,l),
(268,570,l),
(260,584,l),
(934,96,l),
(926,40,l)
);
}
);
width = 1304;
}
);
unicode = 60;
}
{
glyphname = equal;
layers = (
{
layerId = "776CB2AD-1814-4C60-BC2D-56A98A3F851B";
shapes = (
{
closed = 1;
nodes = (
(194,702,l),
(250,1026,l),
(1326,1026,l),
(1272,702,l)
);
},
{
closed = 1;
nodes = (
(110,184,l),
(162,510,l),
(1240,510,l),
(1186,184,l)
);
}
);
width = 1420;
},
{
layerId = "20DC6F22-D8D0-4CDE-BECF-0ED1E6480441";
shapes = (
{
closed = 1;
nodes = (
(255,717,l),
(282,883,l),
(1186,883,l),
(1159,717,l)
);
},
{
closed = 1;
nodes = (
(182,283,l),
(209,449,l),
(1113,449,l),
(1086,283,l)
);
}
);
width = 1356;
},
{
layerId = "72C9AAD8-EC9F-4272-847E-B53637FCE55F";
shapes = (
{
closed = 1;
nodes = (
(338,754,l),
(346,800,l),
(1038,800,l),
(1030,754,l)
);
},
{
closed = 1;
nodes = (
(274,364,l),
(282,410,l),
(974,410,l),
(966,364,l)
);
}
);
width = 1304;
}
);
leftKerningGroup = public.kern2.equal2;
rightKerningGroup = public.kern1.equal;
unicode = 61;
}
{
glyphname = greater;
layers = (
{
layerId = "B1221E90-548C-4905-8880-9EE25E37C96B";
shapes = (
{
closed = 1;
nodes = (
(1240,430,l),
(86,-2,l),
(146,364,l),
(874,602,l),
(860,584,l),
(868,626,l),
(876,608,l),
(226,846,l),
(286,1214,l),
(1298,780,l)
);
}
);
width = 1421;
},
{
layerId = "072C83FE-E797-476D-AD14-FFA4AF9D5A34";
shapes = (
{
closed = 1;
nodes = (
(1173,520,l),
(153,44,l),
(186,238,l),
(956,579,l),
(952,569,l),
(954,597,l),
(960,585,l),
(301,926,l),
(330,1122,l),
(1195,646,l)
);
}
);
width = 1355;
},
{
layerId = "E51591BD-FE93-453F-89B8-2F40CEFC943D";
shapes = (
{
closed = 1;
nodes = (
(1089,558,l),
(207,40,l),
(217,96,l),
(1049,584,l),
(1039,570,l),
(1043,594,l),
(1049,578,l),
(377,1068,l),
(385,1122,l),
(1097,606,l)
);
}
);
width = 1303;
}
);
unicode = 62;
}
{
glyphname = question;
layers = (
{
layerId = "0C8A2A23-4AE2-454C-AEC2-B13207615F2B";
shapes = (
{
closed = 1;
nodes = (
(380,466,l),
(386,500,ls),
(399,580,o),
(416,644,o),
(437,692,cs),
(457,739,o),
(482,777,o),
(511,806,cs),
(540,835,o),
(575,861,o),
(615,884,cs),
(666,915,o),
(710,944,o),
(746,973,cs),
(781,1001,o),
(802,1035,o),
(809,1076,cs),
(813,1101,o),
(811,1122,o),
(802,1140,cs),
(785,1176,o),
(747,1198,o),
(699,1198,cs),
(673,1198,o),
(648,1192,o),
(624,1180,cs),
(575,1156,o),
(539,1112,o),
(530,1056,c),
(158,1056,l),
(176,1163,o),
(214,1249,o),
(273,1316,cs),
(331,1383,o),
(402,1432,o),
(486,1463,cs),
(570,1494,o),
(659,1510,o),
(753,1510,cs),
(857,1510,o),
(947,1495,o),
(1024,1465,cs),
(1176,1404,o),
(1258,1283,o),
(1227,1100,cs),
(1212,1011,o),
(1178,939,o),
(1125,883,cs),
(1072,826,o),
(1006,777,o),
(927,736,cs),
(889,715,o),
(856,694,o),
(829,673,cs),
(802,651,o),
(780,626,o),
(763,599,cs),
(746,572,o),
(735,539,o),
(728,500,cs),
(722,466,l)
);
},
{
closed = 1;
nodes = (
(270,0,l),
(334,351,l),
(742,351,l),
(678,0,l)
);
}
);
width = 1229;
},
{
layerId = "70700972-0F8E-4D63-A70C-6AC279DB2638";
shapes = (
{
closed = 1;
nodes = (
(364,449,l),
(366,460,ls),
(381,551,o),
(402,622,o),
(428,672,cs),
(454,721,o),
(486,761,o),
(524,790,cs),
(562,819,o),
(606,847,o),
(657,874,cs),
(705,901,o),
(748,935,o),
(785,976,cs),
(822,1017,o),
(845,1066,o),
(854,1124,cs),
(862,1171,o),
(858,1211,o),
(842,1245,cs),
(809,1312,o),
(740,1351,o),
(649,1351,cs),
(610,1351,o),
(571,1343,o),
(532,1327,cs),
(454,1294,o),
(389,1226,o),
(364,1115,c),
(174,1115,l),
(191,1199,o),
(225,1270,o),
(274,1329,cs),
(323,1388,o),
(382,1433,o),
(452,1464,cs),
(522,1495,o),
(596,1510,o),
(675,1510,cs),
(762,1510,o),
(834,1493,o),
(893,1460,cs),
(1009,1392,o),
(1062,1269,o),
(1037,1117,cs),
(1024,1036,o),
(995,967,o),
(950,910,cs),
(905,853,o),
(847,804,o),
(776,765,cs),
(729,739,o),
(690,714,o),
(660,690,cs),
(629,665,o),
(605,636,o),
(588,601,cs),
(571,566,o),
(557,519,o),
(547,460,cs),
(545,449,l)
);
},
{
closed = 1;
nodes = (
(260,0,l),
(298,232,l),
(532,232,l),
(494,0,l)
);
}
);
width = 1047;
},
{
layerId = "70E6EC48-9A24-4AD5-9BFE-11FF46F6DBD6";
shapes = (
{
closed = 1;
nodes = (
(405,442,l),
(422,544,ls),
(429,589,o),
(442,628,o),
(460,663,cs),
(478,698,o),
(504,731,o),
(539,762,cs),
(573,793,o),
(618,827,o),
(673,862,cs),
(756,913,o),
(815,960,o),
(850,1003,cs),
(885,1046,o),
(907,1093,o),
(916,1146,cs),
(926,1208,o),
(920,1263,o),
(899,1311,cs),
(855,1406,o),
(761,1464,o),
(636,1464,cs),
(570,1464,o),
(509,1449,o),
(452,1419,cs),
(339,1358,o),
(258,1250,o),
(235,1118,c),
(189,1118,l),
(202,1193,o),
(230,1260,o),
(274,1319,cs),
(317,1378,o),
(371,1424,o),
(436,1459,cs),
(501,1493,o),
(570,1510,o),
(644,1510,cs),
(715,1510,o),
(777,1494,o),
(829,1463,cs),
(932,1400,o),
(985,1286,o),
(962,1146,cs),
(951,1085,o),
(926,1030,o),
(886,982,cs),
(846,933,o),
(781,881,o),
(692,824,cs),
(641,791,o),
(600,760,o),
(570,733,cs),
(540,705,o),
(518,676,o),
(503,647,cs),
(488,618,o),
(477,583,o),
(470,544,cs),
(453,442,l)
);
},
{
closed = 1;
nodes = (
(311,0,l),
(326,90,l),
(416,90,l),
(401,0,l)
);
}
);
width = 981;
}
);
leftKerningGroup = uni203D_2;
rightKerningGroup = uni203D;
unicode = (63,58032);
}
{
glyphname = at;
layers = (
{
layerId = "34603D4A-9538-491D-AC31-753F00B30A17";
shapes = (
{
closed = 1;
nodes = (
(620,-450,o),
(378,-362,o),
(225,-197,cs),
(72,-32,o),
(12,209,o),
(63,514,cs),
(87,659,o),
(130,793,o),
(191,916,cs),
(252,1038,o),
(332,1144,o),
(429,1235,cs),
(526,1325,o),
(642,1395,o),
(775,1445,cs),
(908,1495,o),
(1057,1520,o),
(1224,1520,cs),
(1525,1520,o),
(1769,1435,o),
(1927,1277,cs),
(2085,1119,o),
(2154,892,o),
(2107,611,cs),
(2076,423,o),
(2007,279,o),
(1908,180,cs),
(1808,81,o),
(1681,30,o),
(1537,30,cs),
(1486,30,o),
(1444,36,o),
(1409,49,cs),
(1339,74,o),
(1303,125,o),
(1302,197,c),
(1294,197,l),
(1266,141,o),
(1221,98,o),
(1160,68,cs),
(1099,37,o),
(1027,22,o),
(946,22,cs),
(853,22,o),
(775,42,o),
(713,83,cs),
(651,123,o),
(607,181,o),
(582,256,cs),
(557,331,o),
(552,420,o),
(569,524,cs),
(587,630,o),
(621,722,o),
(672,801,cs),
(722,880,o),
(785,941,o),
(860,984,cs),
(935,1027,o),
(1019,1049,o),
(1110,1049,cs),
(1177,1049,o),
(1233,1037,o),
(1280,1014,cs),
(1327,990,o),
(1357,955,o),
(1370,909,c),
(1381,909,l),
(1400,1027,l),
(1648,1027,l),
(1535,339,l),
(1530,313,o),
(1531,296,o),
(1538,287,cs),
(1544,278,o),
(1557,273,o),
(1578,273,cs),
(1615,273,o),
(1647,284,o),
(1674,306,cs),
(1728,349,o),
(1765,437,o),
(1786,572,cs),
(1822,792,o),
(1794,954,o),
(1702,1061,cs),
(1609,1168,o),
(1453,1220,o),
(1236,1220,cs),
(1115,1220,o),
(1006,1204,o),
(910,1173,cs),
(813,1142,o),
(730,1096,o),
(659,1037,cs),
(588,978,o),
(530,905,o),
(485,820,cs),
(440,735,o),
(409,638,o),
(391,530,cs),
(355,309,o),
(387,140,o),
(487,25,cs),
(587,-90,o),
(754,-148,o),
(989,-148,cs),
(1045,-148,o),
(1099,-145,o),
(1151,-139,cs),
(1254,-126,o),
(1347,-102,o),
(1420,-71,c),
(1486,-336,l),
(1447,-355,o),
(1401,-373,o),
(1348,-391,cs),
(1240,-426,o),
(1104,-450,o),
(935,-450,cs)
);
},
{
closed = 1;
nodes = (
(1068,286,o),
(1110,296,o),
(1147,315,cs),
(1184,334,o),
(1214,361,o),
(1239,397,cs),
(1264,432,o),
(1280,475,o),
(1288,525,cs),
(1297,576,o),
(1296,618,o),
(1286,653,cs),
(1266,721,o),
(1210,757,o),
(1115,757,cs),
(1068,757,o),
(1027,748,o),
(990,731,cs),
(953,713,o),
(922,687,o),
(898,653,cs),
(874,619,o),
(858,577,o),
(849,526,cs),
(840,475,o),
(841,432,o),
(851,397,cs),
(870,325,o),
(928,286,o),
(1021,286,cs)
);
}
);
width = 2168;
},
{
layerId = "85556A68-E3BA-4C8B-AB50-53608EAFDB0D";
shapes = (
{
closed = 1;
nodes = (
(604,-395,o),
(384,-312,o),
(249,-156,cs),
(113,1,o),
(67,232,o),
(115,525,cs),
(138,668,o),
(179,795,o),
(237,908,cs),
(294,1021,o),
(367,1117,o),
(456,1196,cs),
(545,1275,o),
(647,1335,o),
(764,1376,cs),
(881,1417,o),
(1010,1438,o),
(1151,1438,cs),
(1426,1438,o),
(1621,1343,o),
(1740,1192,cs),
(1859,1040,o),
(1901,845,o),
(1868,642,cs),
(1845,502,o),
(1812,351,o),
(1749,231,cs),
(1685,110,o),
(1586,30,o),
(1430,30,cs),
(1380,30,o),
(1337,37,o),
(1301,51,cs),
(1229,78,o),
(1190,130,o),
(1191,198,c),
(1183,198,l),
(1159,157,o),
(1121,120,o),
(1069,87,cs),
(1017,54,o),
(952,37,o),
(875,37,cs),
(787,37,o),
(716,59,o),
(662,102,cs),
(608,145,o),
(571,205,o),
(552,280,cs),
(533,355,o),
(531,439,o),
(546,533,cs),
(561,624,o),
(591,704,o),
(638,775,cs),
(684,846,o),
(741,902,o),
(809,943,cs),
(877,984,o),
(951,1004,o),
(1030,1004,cs),
(1095,1004,o),
(1149,992,o),
(1190,969,cs),
(1231,945,o),
(1258,921,o),
(1271,897,c),
(1281,897,l),
(1295,980,l),
(1454,980,l),
(1344,321,ls),
(1337,282,o),
(1342,248,o),
(1357,217,cs),
(1372,186,o),
(1402,171,o),
(1446,171,cs),
(1495,171,o),
(1535,188,o),
(1568,221,cs),
(1632,288,o),
(1673,426,o),
(1709,643,cs),
(1737,810,o),
(1708,970,o),
(1617,1094,cs),
(1525,1217,o),
(1369,1295,o),
(1138,1295,cs),
(1024,1295,o),
(919,1278,o),
(823,1243,cs),
(727,1208,o),
(642,1157,o),
(568,1090,cs),
(494,1023,o),
(433,941,o),
(384,845,cs),
(335,748,o),
(301,639,o),
(281,517,cs),
(241,273,o),
(274,82,o),
(379,-49,cs),
(483,-180,o),
(660,-249,o),
(908,-249,cs),
(961,-249,o),
(1014,-244,o),
(1068,-234,cs),
(1176,-214,o),
(1270,-186,o),
(1311,-173,c),
(1330,-313,l),
(1298,-326,o),
(1258,-338,o),
(1211,-351,cs),
(1115,-376,o),
(1004,-395,o),
(901,-395,cs)
);
},
{
closed = 1;
nodes = (
(964,190,o),
(1018,203,o),
(1063,229,cs),
(1107,255,o),
(1143,294,o),
(1170,347,cs),
(1197,399,o),
(1216,464,o),
(1229,543,cs),
(1242,622,o),
(1243,684,o),
(1231,729,cs),
(1206,819,o),
(1134,853,o),
(1015,853,cs),
(961,853,o),
(912,839,o),
(869,811,cs),
(825,783,o),
(789,746,o),
(760,699,cs),
(731,652,o),
(712,599,o),
(703,542,cs),
(693,479,o),
(692,421,o),
(700,368,cs),
(716,260,o),
(778,190,o),
(899,190,cs)
);
}
);
width = 1975;
},
{
layerId = "0B13E480-0BFF-4E9F-8F40-D0AA519A66AF";
shapes = (
{
closed = 1;
nodes = (
(609,-396,o),
(413,-296,o),
(284,-128,cs),
(155,40,o),
(99,266,o),
(140,518,cs),
(161,645,o),
(203,763,o),
(266,874,cs),
(329,984,o),
(406,1081,o),
(499,1165,cs),
(591,1248,o),
(693,1314,o),
(804,1361,cs),
(915,1408,o),
(1030,1432,o),
(1149,1432,cs),
(1385,1432,o),
(1580,1332,o),
(1710,1165,cs),
(1840,997,o),
(1897,771,o),
(1854,518,cs),
(1833,386,o),
(1777,271,o),
(1699,188,cs),
(1621,104,o),
(1525,56,o),
(1421,56,cs),
(1382,56,o),
(1353,63,o),
(1333,77,cs),
(1292,105,o),
(1285,169,o),
(1302,280,c),
(1296,280,l),
(1249,207,o),
(1191,148,o),
(1120,103,cs),
(1049,57,o),
(975,34,o),
(898,34,cs),
(821,34,o),
(755,56,o),
(700,99,cs),
(645,142,o),
(605,201,o),
(580,274,cs),
(555,347,o),
(550,429,o),
(565,518,cs),
(580,607,o),
(612,688,o),
(661,761,cs),
(710,834,o),
(769,892,o),
(839,935,cs),
(908,978,o),
(981,1000,o),
(1058,1000,cs),
(1135,1000,o),
(1202,978,o),
(1258,933,cs),
(1313,888,o),
(1352,828,o),
(1375,754,c),
(1381,754,l),
(1419,986,l),
(1465,986,l),
(1348,280,ls),
(1336,209,o),
(1334,161,o),
(1343,138,cs),
(1352,114,o),
(1378,102,o),
(1421,102,cs),
(1480,102,o),
(1537,120,o),
(1591,156,cs),
(1699,228,o),
(1781,359,o),
(1808,518,cs),
(1848,758,o),
(1795,973,o),
(1675,1132,cs),
(1555,1291,o),
(1372,1386,o),
(1149,1386,cs),
(1037,1386,o),
(928,1364,o),
(822,1319,cs),
(715,1274,o),
(618,1211,o),
(529,1132,cs),
(440,1053,o),
(366,961,o),
(306,856,cs),
(246,751,o),
(206,638,o),
(186,518,cs),
(146,278,o),
(198,63,o),
(318,-96,cs),
(438,-255,o),
(622,-350,o),
(846,-350,cs),
(899,-350,o),
(953,-345,o),
(1007,-334,cs),
(1115,-312,o),
(1223,-269,o),
(1320,-206,c),
(1344,-244,l),
(1292,-277,o),
(1238,-304,o),
(1183,-327,cs),
(1072,-372,o),
(959,-396,o),
(846,-396,cs)
);
},
{
closed = 1;
nodes = (
(964,80,o),
(1030,100,o),
(1093,139,cs),
(1156,178,o),
(1210,231,o),
(1255,298,cs),
(1300,364,o),
(1329,437,o),
(1342,518,cs),
(1355,599,o),
(1352,672,o),
(1331,738,cs),
(1290,869,o),
(1191,954,o),
(1058,954,cs),
(991,954,o),
(926,934,o),
(863,895,cs),
(799,856,o),
(744,803,o),
(699,738,cs),
(654,672,o),
(624,599,o),
(611,518,cs),
(598,437,o),
(602,364,o),
(623,298,cs),
(665,165,o),
(764,80,o),
(897,80,cs)
);
}
);
width = 2008;
}
);
leftKerningGroup = C2;
rightKerningGroup = D;
unicode = 64;
}
{
glyphname = A;
layers = (
{
anchors = (
{
name = m.uni0326;
position = "{828, 0}";
},
{
name = m.uni030F_1;
position = "{1075, 1490}";
},
{
name = m.uni0328_4;
position = "{1736, 0}";
}
);
layerId = "FAC11FF2-8AA5-4867-8567-384AA135D88B";
shapes = (
{
closed = 1;
nodes = (
(-47,0,l),
(683,1490,l),
(1235,1490,l),
(1489,0,l),
(1047,0,l),
(970,578,ls),
(937,829,o),
(918,1104,o),
(903,1371,c),
(995,1371,l),
(895,1104,o),
(795,829,o),
(682,578,cs),
(421,0,l)
);
},
{
closed = 1;
nodes = (
(358,286,l),
(408,588,l),
(1228,588,l),
(1178,286,l)
);
}
);
width = 1628;
},
{
anchors = (
{
name = m.uni0326;
position = "{856, 0}";
},
{
name = m.uni030F_1;
position = "{1103, 1490}";
},
{
name = m.uni0328_4;
position = "{1773, 0}";
}
);
layerId = "3D85B7E1-85F7-4D8B-A4DD-E195C561FF62";
shapes = (
{
closed = 1;
nodes = (
(-41,0,l),
(747,1490,l),
(967,1490,l),
(1268,0,l),
(1076,0,l),
(907,884,ls),
(890,979,o),
(862,1148,o),
(831,1401,c),
(867,1401,l),
(759,1160,o),
(679,993,o),
(623,884,cs),
(169,0,l)
);
},
{
closed = 1;
nodes = (
(300,416,l),
(327,582,l),
(1092,582,l),
(1065,416,l)
);
}
);
width = 1413;
},
{
anchors = (
{
name = m.uni0326;
position = "{770, 0}";
},
{
name = m.uni030F_1;
position = "{1017, 1490}";
},
{
name = m.uni0328_4;
position = "{1573, 0}";
}
);
layerId = "5DA1E196-784D-41F4-ABD2-5FC63B6ED9FB";
shapes = (
{
closed = 1;
nodes = (
(-27,0,l),
(777,1490,l),
(840,1490,l),
(1151,0,l),
(1105,0,l),
(864,1154,ls),
(843,1261,o),
(820,1367,o),
(799,1474,c),
(817,1474,l),
(760,1367,o),
(705,1261,o),
(646,1154,cs),
(25,0,l)
);
},
{
closed = 1;
nodes = (
(274,496,l),
(282,542,l),
(1022,542,l),
(1014,496,l)
);
}
);
width = 1310;
}
);
leftKerningGroup = A2;
rightKerningGroup = A;
unicode = 65;
}
{
glyphname = B;
layers = (
{
anchors = (
{
name = m.uni0326;
position = "{583, 0}";
},
{
name = m.uni030F_1;
position = "{842, 1490}";
}
);
layerId = "34603D4A-9538-491D-AC31-753F00B30A17";
shapes = (
{
closed = 1;
nodes = (
(3,0,l),
(250,1490,l),
(886,1490,ls),
(999,1490,o),
(1093,1474,o),
(1166,1441,cs),
(1313,1375,o),
(1377,1252,o),
(1350,1092,cs),
(1342,1041,o),
(1322,995,o),
(1289,954,cs),
(1224,870,o),
(1122,812,o),
(1005,789,c),
(1005,776,l),
(1068,774,o),
(1124,757,o),
(1172,725,cs),
(1220,692,o),
(1255,648,o),
(1278,592,cs),
(1301,536,o),
(1306,471,o),
(1293,396,cs),
(1280,319,o),
(1249,250,o),
(1199,191,cs),
(1098,71,o),
(932,0,o),
(716,0,cs)
);
},
{
closed = 1;
nodes = (
(461,322,l),
(640,322,ls),
(707,322,o),
(763,338,o),
(806,369,cs),
(849,400,o),
(875,444,o),
(884,500,cs),
(889,531,o),
(887,556,o),
(876,577,cs),
(854,617,o),
(800,638,o),
(719,638,cs),
(513,638,l)
);
},
{
closed = 1;
nodes = (
(554,888,l),
(710,888,ls),
(745,888,o),
(779,895,o),
(810,908,cs),
(872,935,o),
(917,987,o),
(928,1056,cs),
(935,1095,o),
(925,1125,o),
(899,1144,cs),
(872,1163,o),
(834,1172,o),
(784,1172,cs),
(601,1172,l)
);
}
);
width = 1368;
},
{
anchors = (
{
name = m.uni0326;
position = "{592, 0}";
},
{
name = m.uni030F_1;
position = "{852, 1490}";
}
);
layerId = "85556A68-E3BA-4C8B-AB50-53608EAFDB0D";
shapes = (
{
closed = 1;
nodes = (
(87,0,l),
(334,1490,l),
(856,1490,ls),
(960,1490,o),
(1043,1472,o),
(1106,1436,cs),
(1230,1363,o),
(1278,1235,o),
(1254,1087,cs),
(1245,1026,o),
(1225,975,o),
(1196,934,cs),
(1136,851,o),
(1049,803,o),
(954,778,c),
(954,768,l),
(1001,765,o),
(1045,749,o),
(1087,719,c),
(1128,688,o),
(1160,645,o),
(1182,590,cs),
(1204,534,o),
(1209,467,o),
(1196,388,cs),
(1184,313,o),
(1156,247,o),
(1113,189,cs),
(1026,72,o),
(872,0,o),
(639,0,cs)
);
},
{
closed = 1;
nodes = (
(305,167,l),
(650,167,ls),
(768,167,o),
(856,192,o),
(914,241,cs),
(972,290,o),
(1006,347,o),
(1017,414,cs),
(1025,463,o),
(1020,508,o),
(1001,547,cs),
(963,626,o),
(878,676,o),
(755,676,cs),
(390,676,l)
);
},
{
closed = 1;
nodes = (
(416,836,l),
(739,836,ls),
(792,836,o),
(842,847,o),
(889,869,cs),
(984,913,o),
(1056,994,o),
(1073,1101,cs),
(1084,1163,o),
(1071,1216,o),
(1036,1259,cs),
(1000,1302,o),
(933,1323,o),
(836,1323,cs),
(497,1323,l)
);
}
);
width = 1340;
},
{
anchors = (
{
name = m.uni0326;
position = "{549, 0}";
},
{
name = m.uni030F_1;
position = "{788, 1479}";
}
);
layerId = "0B13E480-0BFF-4E9F-8F40-D0AA519A66AF";
shapes = (
{
closed = 1;
nodes = (
(139,0,l),
(386,1490,l),
(849,1490,ls),
(932,1490,o),
(1001,1475,o),
(1056,1444,cs),
(1164,1382,o),
(1212,1266,o),
(1185,1109,cs),
(1176,1051,o),
(1158,998,o),
(1132,949,cs),
(1080,852,o),
(1000,783,o),
(900,759,c),
(900,755,l),
(949,750,o),
(992,731,o),
(1030,698,c),
(1067,664,o),
(1095,620,o),
(1113,565,cs),
(1131,510,o),
(1134,448,o),
(1122,379,cs),
(1109,302,o),
(1082,236,o),
(1041,179,cs),
(958,66,o),
(826,0,o),
(655,0,cs)
);
},
{
closed = 1;
nodes = (
(193,46,l),
(660,46,ls),
(769,46,o),
(862,77,o),
(938,140,cs),
(1014,202,o),
(1060,284,o),
(1077,385,cs),
(1088,454,o),
(1083,514,o),
(1062,567,cs),
(1018,671,o),
(917,734,o),
(777,734,cs),
(307,734,l)
);
},
{
closed = 1;
nodes = (
(315,780,l),
(781,780,ls),
(849,780,o),
(908,796,o),
(958,827,cs),
(1058,889,o),
(1120,996,o),
(1140,1115,cs),
(1157,1220,o),
(1140,1302,o),
(1087,1359,cs),
(1034,1416,o),
(953,1444,o),
(844,1444,cs),
(425,1444,l)
);
}
);
width = 1310;
}
);
leftKerningGroup = B2;
rightKerningGroup = B;
unicode = 66;
}
{
glyphname = D;
layers = (
{
anchors = (
{
name = m.uni0326;
position = "{657, 0}";
},
{
name = m.uni030F_1;
position = "{750, 1490}";
}
);
layerId = "B1221E90-548C-4905-8880-9EE25E37C96B";
shapes = (
{
closed = 1;
nodes = (
(169,0,l),
(226,344,l),
(618,344,ls),
(692,344,o),
(757,356,o),
(813,379,cs),
(925,426,o),
(1001,537,o),
(1034,744,cs),
(1051,848,o),
(1052,929,o),
(1035,988,cs),
(1002,1104,o),
(903,1146,o),
(747,1146,cs),
(353,1146,l),
(410,1490,l),
(802,1490,ls),
(955,1490,o),
(1084,1460,o),
(1188,1401,cs),
(1396,1281,o),
(1492,1055,o),
(1440,744,cs),
(1415,589,o),
(1367,456,o),
(1296,345,cs),
(1154,122,o),
(928,0,o),
(625,0,cs)
);
},
{
closed = 1;
nodes = (
(654,1490,l),
(407,0,l),
(3,0,l),
(250,1490,l)
);
}
);
width = 1479;
},
{
anchors = (
{
name = m.uni0326;
position = "{689, 0}";
},
{
name = m.uni030F_1;
position = "{779, 1490}";
}
);
layerId = "072C83FE-E797-476D-AD14-FFA4AF9D5A34";
shapes = (
{
closed = 1;
nodes = (
(192,0,l),
(219,168,l),
(567,168,ls),
(689,168,o),
(794,191,o),
(882,238,cs),
(1057,331,o),
(1164,509,o),
(1203,748,cs),
(1223,868,o),
(1221,971,o),
(1196,1057,cs),
(1146,1228,o),
(1006,1322,o),
(777,1322,cs),
(403,1322,l),
(431,1490,l),
(794,1490,ls),
(939,1490,o),
(1061,1460,o),
(1158,1401,cs),
(1353,1281,o),
(1439,1055,o),
(1387,746,cs),
(1361,589,o),
(1314,456,o),
(1245,345,cs),
(1107,123,o),
(885,0,o),
(585,0,cs)
);
},
{
closed = 1;
nodes = (
(524,1490,l),
(277,0,l),
(87,0,l),
(334,1490,l)
);
}
);
width = 1477;
},
{
anchors = (
{
name = m.uni0326;
position = "{619, 0}";
},
{
name = m.uni030F_1;
position = "{805, 1490}";
}
);
layerId = "E51591BD-FE93-453F-89B8-2F40CEFC943D";
shapes = (
{
closed = 1;
nodes = (
(163,0,l),
(171,46,l),
(529,46,ls),
(667,46,o),
(789,74,o),
(896,130,cs),
(1109,242,o),
(1251,457,o),
(1299,750,cs),
(1323,895,o),
(1321,1020,o),
(1292,1123,cs),
(1234,1330,o),
(1073,1444,o),
(814,1444,cs),
(402,1444,l),
(410,1490,l),
(814,1490,ls),
(951,1490,o),
(1064,1461,o),
(1152,1402,cs),
(1327,1284,o),
(1397,1059,o),
(1345,750,cs),
(1319,592,o),
(1270,457,o),
(1197,345,cs),
(1051,121,o),
(821,0,o),
(529,0,cs)
);
},
{
closed = 1;
nodes = (
(432,1490,l),
(185,0,l),
(139,0,l),
(386,1490,l)
);
}
);
width = 1460;
}
);
leftKerningGroup = public.kern2.B2;
rightKerningGroup = public.kern1.D;
unicode = 68;
}
{
glyphname = E;
layers = (
{
anchors = (
{
name = m.uni0326;
position = "{565, 0}";
},
{
name = m.uni030F_1;
position = "{812, 1490}";
},
{
name = m.uni0327_3;
position = "{554, 0}";
},
{
name = m.uni0328_4;
position = "{1190, 0}";
}
);
layerId = "CA727784-8AA1-4300-8B34-14310001C03E";
shapes = (
{
closed = 1;
nodes = (
(3,0,l),
(250,1490,l),
(1324,1490,l),
(1270,1164,l),
(600,1164,l),
(558,912,l),
(1172,912,l),
(1119,594,l),
(505,594,l),
(461,326,l),
(1127,326,l),
(1073,0,l)
);
}
);
width = 1274;
},
{
anchors = (
{
name = m.uni0326;
position = "{566, 0}";
},
{
name = m.uni030F_1;
position = "{813, 1490}";
},
{
name = m.uni0327_3;
position = "{544, 0}";
},
{
name = m.uni0328_4;
position = "{1164, 0}";
}
);
layerId = "C35C9F9E-A7EE-4180-9620-B6D8D84AB5E2";
shapes = (
{
closed = 1;
nodes = (
(87,0,l),
(334,1490,l),
(1242,1490,l),
(1214,1323,l),
(496,1323,l),
(416,836,l),
(1085,836,l),
(1057,669,l),
(387,669,l),
(304,167,l),
(1031,167,l),
(1004,0,l)
);
}
);
width = 1232;
},
{
anchors = (
{
name = m.uni0326;
position = "{555, 0}";
},
{
name = m.uni030F_1;
position = "{802, 1490}";
},
{
name = m.uni0327_3;
position = "{508, 0}";
},
{
name = m.uni0328_4;
position = "{1042, 0}";
}
);
layerId = "FB0E6F58-CE6D-4D5A-8B32-1EB8A97466B2";
shapes = (
{
closed = 1;
nodes = (
(139,0,l),
(386,1490,l),
(1180,1490,l),
(1172,1442,l),
(426,1442,l),
(314,768,l),
(1018,768,l),
(1011,722,l),
(307,722,l),
(195,46,l),
(963,46,l),
(955,0,l)
);
}
);
width = 1196;
}
);
leftKerningGroup = public.kern2.B2;
rightKerningGroup = public.kern1.E;
unicode = 69;
}
{
glyphname = F;
layers = (
{
anchors = (
{
name = m.uni0326;
position = "{255, 0}";
},
{
name = m.uni030F_1;
position = "{796, 1490}";
}
);
layerId = "34603D4A-9538-491D-AC31-753F00B30A17";
shapes = (
{
closed = 1;
nodes = (
(3,0,l),
(250,1490,l),
(1298,1490,l),
(1244,1164,l),
(600,1164,l),
(544,828,l),
(1124,828,l),
(1071,510,l),
(491,510,l),
(407,0,l)
);
}
);
width = 1196;
},
{
anchors = (
{
name = m.uni0326;
position = "{286, 0}";
},
{
name = m.uni030F_1;
position = "{804, 1490}";
}
);
layerId = "85556A68-E3BA-4C8B-AB50-53608EAFDB0D";
shapes = (
{
closed = 1;
nodes = (
(87,0,l),
(334,1490,l),
(1235,1490,l),
(1207,1323,l),
(496,1323,l),
(411,811,l),
(1054,811,l),
(1027,644,l),
(384,644,l),
(277,0,l)
);
}
);
width = 1209;
},
{
anchors = (
{
name = m.uni0326;
position = "{250, 0}";
},
{
name = m.uni030F_1;
position = "{796, 1490}";
}
);
layerId = "0B13E480-0BFF-4E9F-8F40-D0AA519A66AF";
shapes = (
{
closed = 1;
nodes = (
(139,0,l),
(386,1490,l),
(1184,1490,l),
(1176,1444,l),
(424,1444,l),
(312,768,l),
(994,768,l),
(987,722,l),
(305,722,l),
(185,0,l)
);
}
);
width = 1196;
}
);
leftKerningGroup = B2;
rightKerningGroup = F;
unicode = 70;
}
{
glyphname = H;
layers = (
{
anchors = (
{
name = m.uni0326;
position = "{694, 0}";
},
{
name = m.uni030F_1;
position = "{941, 1490}";
},
{
name = m.uni0327_3;
position = "{203, 0}";
}
);
layerId = "04467604-8FE9-4714-B90C-9622AAE539FB";
shapes = (
{
closed = 1;
nodes = (
(3,0,l),
(250,1490,l),
(654,1490,l),
(560,924,l),
(1096,924,l),
(1190,1490,l),
(1594,1490,l),
(1347,0,l),
(943,0,l),
(1042,598,l),
(506,598,l),
(407,0,l)
);
}
);
width = 1536;
},
{
anchors = (
{
name = m.uni0326;
position = "{723, 0}";
},
{
name = m.uni030F_1;
position = "{970, 1490}";
},
{
name = m.uni0327_3;
position = "{155, 0}";
}
);
layerId = "23EE5F7B-1869-4A94-9115-57B554FEB4FE";
shapes = (
{
closed = 1;
nodes = (
(87,0,l),
(334,1490,l),
(524,1490,l),
(417,846,l),
(1199,846,l),
(1306,1490,l),
(1496,1490,l),
(1249,0,l),
(1059,0,l),
(1172,678,l),
(389,678,l),
(277,0,l)
);
}
);
width = 1522;
},
{
anchors = (
{
name = m.uni0326;
position = "{711, 0}";
},
{
name = m.uni030F_1;
position = "{958, 1490}";
},
{
name = m.uni0327_3;
position = "{169, 0}";
}
);
layerId = "43DA4125-45C3-47AB-8F4B-FC6AC1251C13";
shapes = (
{
closed = 1;
nodes = (
(139,0,l),
(386,1490,l),
(434,1490,l),
(317,784,l),
(1265,784,l),
(1382,1490,l),
(1428,1490,l),
(1181,0,l),
(1135,0,l),
(1257,738,l),
(309,738,l),
(187,0,l)
);
}
);
width = 1506;
}
);
leftKerningGroup = public.kern2.B2;
rightKerningGroup = public.kern1.H;
unicode = 72;
}
{
glyphname = I;
layers = (
{
anchors = (
{
name = m.uni0326;
position = "{253, 0}";
},
{
name = m.uni030F_1;
position = "{504, 1490}";
},
{
name = m.uni0328_4;
position = "{575, 0}";
}
);
layerId = "776CB2AD-1814-4C60-BC2D-56A98A3F851B";
shapes = (
{
closed = 1;
nodes = (
(654,1490,l),
(407,0,l),
(3,0,l),
(250,1490,l)
);
}
);
width = 596;
},
{
anchors = (
{
name = m.uni0326;
position = "{284, 0}";
},
{
name = m.uni030F_1;
position = "{535, 1490}";
},
{
name = m.uni0328_4;
position = "{611, 0}";
}
);
layerId = "20DC6F22-D8D0-4CDE-BECF-0ED1E6480441";
shapes = (
{
closed = 1;
nodes = (
(524,1490,l),
(277,0,l),
(87,0,l),
(334,1490,l)
);
}
);
width = 550;
},
{
anchors = (
{
name = m.uni0326;
position = "{248, 0}";
},
{
name = m.uni030F_1;
position = "{499, 1490}";
},
{
name = m.uni0328_4;
position = "{441, 0}";
}
);
layerId = "72C9AAD8-EC9F-4272-847E-B53637FCE55F";
shapes = (
{
closed = 1;
nodes = (
(432,1490,l),
(185,0,l),
(139,0,l),
(386,1490,l)
);
}
);
width = 510;
}
);
leftKerningGroup = public.kern2.B2;
rightKerningGroup = public.kern1.H;
unicode = 73;
}
{
glyphname = J;
layers = (
{
anchors = (
{
name = m.uni030F_1;
position = "{1125, 1490}";
}
);
layerId = "EF0863B1-A80B-4AC4-A80D-A5009A8E023C";
shapes = (
{
closed = 1;
nodes = (
(352,-20,o),
(231,13,o),
(145,79,cs),
(59,145,o),
(16,240,o),
(16,364,cs),
(16,375,o),
(17,387,o),
(18,401,cs),
(20,428,o),
(26,474,o),
(41,559,c),
(445,559,l),
(438,520,o),
(434,490,o),
(431,471,cs),
(425,432,o),
(424,420,o),
(424,411,cs),
(424,332,o),
(466,294,o),
(543,294,cs),
(588,294,o),
(624,308,o),
(653,335,cs),
(682,362,o),
(701,404,o),
(710,460,cs),
(881,1490,l),
(1279,1490,l),
(1109,468,ls),
(1083,311,o),
(1019,191,o),
(918,107,cs),
(817,22,o),
(680,-20,o),
(507,-20,cs)
);
}
);
width = 1221;
},
{
anchors = (
{
name = m.uni030F_1;
position = "{1149, 1490}";
}
);
layerId = "772355B8-E81A-4CAE-88E1-18D30E544C30";
shapes = (
{
closed = 1;
nodes = (
(341,-20,o),
(248,11,o),
(177,72,cs),
(106,133,o),
(70,219,o),
(70,332,cs),
(70,342,o),
(71,353,o),
(72,366,cs),
(74,390,o),
(79,431,o),
(91,506,c),
(281,506,l),
(276,471,o),
(272,445,o),
(269,426,cs),
(263,388,o),
(262,372,o),
(262,357,cs),
(262,221,o),
(344,147,o),
(477,147,cs),
(552,147,o),
(617,170,o),
(672,217,cs),
(727,264,o),
(762,333,o),
(777,426,cs),
(954,1490,l),
(1144,1490,l),
(967,426,ls),
(944,285,o),
(886,175,o),
(795,97,cs),
(703,19,o),
(591,-20,o),
(458,-20,cs)
);
}
);
width = 1169;
},
{
anchors = (
{
name = m.uni030F_1;
position = "{1202, 1490}";
}
);
layerId = "F09EDC10-DC28-4948-8673-8B4992B77282";
shapes = (
{
closed = 1;
nodes = (
(358,-20,o),
(275,9,o),
(216,67,cs),
(156,125,o),
(126,205,o),
(126,307,cs),
(126,316,o),
(126,327,o),
(127,339,cs),
(128,362,o),
(133,399,o),
(144,464,c),
(190,464,l),
(185,431,o),
(181,405,o),
(178,386,cs),
(173,347,o),
(172,329,o),
(172,310,cs),
(172,133,o),
(275,26,o),
(462,26,cs),
(570,26,o),
(660,59,o),
(733,125,cs),
(806,191,o),
(851,281,o),
(870,396,cs),
(1051,1490,l),
(1098,1490,l),
(917,396,ls),
(896,268,o),
(846,167,o),
(766,92,cs),
(685,17,o),
(585,-20,o),
(464,-20,cs)
);
}
);
width = 1144;
}
);
leftKerningGroup = J2;
rightKerningGroup = J;
unicode = 74;
}
{
glyphname = K;
layers = (
{
anchors = (
{
name = m.uni0326;
position = "{727, 0}";
},
{
name = m.uni030F_1;
position = "{974, 1490}";
}
);
layerId = "04467604-8FE9-4714-B90C-9622AAE539FB";
shapes = (
{
closed = 1;
nodes = (
(353,261,l),
(386,603,l),
(424,666,o),
(460,722,o),
(495,773,cs),
(529,823,o),
(568,874,o),
(611,926,cs),
(654,978,o),
(708,1038,o),
(772,1107,cs),
(1132,1490,l),
(1635,1490,l),
(885,723,l),
(849,739,l)
);
},
{
closed = 1;
nodes = (
(3,0,l),
(250,1490,l),
(666,1490,l),
(613,1170,l),
(534,741,l),
(509,544,l),
(419,0,l)
);
},
{
closed = 1;
nodes = (
(964,0,l),
(704,599,l),
(985,895,l),
(1416,0,l)
);
}
);
width = 1555;
},
{
anchors = (
{
name = m.uni0326;
position = "{761, 0}";
},
{
name = m.uni030F_1;
position = "{1008, 1490}";
}
);
layerId = "23EE5F7B-1869-4A94-9115-57B554FEB4FE";
shapes = (
{
closed = 1;
nodes = (
(288,426,l),
(312,629,l),
(354,676,o),
(396,720,o),
(437,763,cs),
(478,806,o),
(519,847,o),
(561,888,cs),
(603,929,o),
(646,969,o),
(689,1009,cs),
(1214,1490,l),
(1472,1490,l),
(723,808,l),
(712,809,l)
);
},
{
closed = 1;
nodes = (
(87,0,l),
(334,1490,l),
(525,1490,l),
(440,980,l),
(383,659,l),
(371,566,l),
(278,0,l)
);
},
{
closed = 1;
nodes = (
(1017,0,l),
(605,758,l),
(730,906,l),
(1226,0,l)
);
}
);
width = 1376;
},
{
anchors = (
{
name = m.uni0326;
position = "{687, 0}";
},
{
name = m.uni030F_1;
position = "{934, 1490}";
}
);
layerId = "43DA4125-45C3-47AB-8F4B-FC6AC1251C13";
shapes = (
{
closed = 1;
nodes = (
(269,536,l),
(258,584,l),
(305,627,o),
(351,669,o),
(394,709,cs),
(437,748,o),
(481,788,o),
(524,828,cs),
(567,867,o),
(612,909,o),
(659,952,cs),
(1246,1490,l),
(1312,1490,l),
(589,828,l),
(575,817,l)
);
},
{
closed = 1;
nodes = (
(139,0,l),
(386,1490,l),
(432,1490,l),
(344,960,l),
(283,592,l),
(278,560,l),
(185,0,l)
);
},
{
closed = 1;
nodes = (
(1012,0,l),
(561,826,l),
(598,852,l),
(1063,0,l)
);
}
);
width = 1224;
}
);
leftKerningGroup = public.kern2.B2;
rightKerningGroup = public.kern1.K;
unicode = 75;
}
{
glyphname = L;
layers = (
{
anchors = (
{
name = m.uni0326;
position = "{511, 0}";
},
{
name = m.uni030F_1;
position = "{498, 1490}";
}
);
layerId = "B1221E90-548C-4905-8880-9EE25E37C96B";
shapes = (
{
closed = 1;
nodes = (
(3,0,l),
(250,1490,l),
(654,1490,l),
(461,326,l),
(1063,326,l),
(1009,0,l)
);
}
);
width = 1158;
},
{
anchors = (
{
name = m.uni0326;
position = "{540, 0}";
},
{
name = m.uni030F_1;
position = "{529, 1490}";
}
);
layerId = "072C83FE-E797-476D-AD14-FFA4AF9D5A34";
shapes = (
{
closed = 1;
nodes = (
(87,0,l),
(334,1490,l),
(524,1490,l),
(304,167,l),
(994,167,l),
(967,0,l)
);
}
);
width = 1158;
},
{
anchors = (
{
name = m.uni0326;
position = "{558, 0}";
},
{
name = m.uni030F_1;
position = "{495, 1490}";
}
);
layerId = "E51591BD-FE93-453F-89B8-2F40CEFC943D";
shapes = (
{
closed = 1;
nodes = (
(139,0,l),
(386,1490,l),
(434,1490,l),
(195,46,l),
(939,46,l),
(931,0,l)
);
}
);
width = 1152;
}
);
leftKerningGroup = public.kern2.B2;
rightKerningGroup = public.kern1.L;
unicode = 76;
}
{
glyphname = M;
layers = (
{
anchors = (
{
name = m.uni0326;
position = "{955, 0}";
},
{
name = m.uni030F_1;
position = "{1202, 1490}";
}
);
layerId = "CA727784-8AA1-4300-8B34-14310001C03E";
shapes = (
{
closed = 1;
nodes = (
(3,0,l),
(250,1490,l),
(888,1490,l),
(945,1024,ls),
(950,984,o),
(954,931,o),
(957,865,cs),
(960,799,o),
(963,728,o),
(966,653,cs),
(968,577,o),
(969,504,o),
(970,435,cs),
(970,365,o),
(969,306,o),
(968,258,c),
(893,258,l),
(907,306,o),
(926,365,o),
(950,435,cs),
(973,504,o),
(998,577,o),
(1025,653,cs),
(1052,728,o),
(1078,799,o),
(1103,865,cs),
(1128,931,o),
(1150,984,o),
(1168,1024,cs),
(1377,1490,l),
(2016,1490,l),
(1769,0,l),
(1361,0,l),
(1456,576,ls),
(1468,644,o),
(1492,762,o),
(1518,897,cs),
(1544,1032,o),
(1571,1173,o),
(1590,1288,c),
(1613,1288,l),
(1568,1161,o),
(1512,1021,o),
(1459,891,cs),
(1406,761,o),
(1356,648,o),
(1323,576,cs),
(1055,0,l),
(719,0,l),
(638,576,ls),
(631,624,o),
(624,688,o),
(616,767,cs),
(608,846,o),
(601,932,o),
(594,1024,cs),
(587,1116,o),
(582,1204,o),
(579,1288,c),
(608,1288,l),
(589,1173,o),
(570,1032,o),
(552,897,cs),
(534,762,o),
(518,644,o),
(506,576,cs),
(411,0,l)
);
}
);
width = 1958;
},
{
anchors = (
{
name = m.uni0326;
position = "{992, 0}";
},
{
name = m.uni030F_1;
position = "{1239, 1490}";
}
);
layerId = "C35C9F9E-A7EE-4180-9620-B6D8D84AB5E2";
shapes = (
{
closed = 1;
nodes = (
(87,0,l),
(334,1490,l),
(604,1490,l),
(815,550,ls),
(820,527,o),
(826,499,o),
(832,466,c),
(837,432,o),
(843,396,o),
(849,357,cs),
(854,318,o),
(860,280,o),
(865,242,cs),
(870,204,o),
(874,169,o),
(877,138,c),
(835,138,l),
(850,171,o),
(867,207,o),
(885,246,cs),
(903,285,o),
(921,323,o),
(940,362,cs),
(958,400,o),
(975,435,o),
(992,468,cs),
(1008,501,o),
(1022,528,o),
(1034,550,cs),
(1553,1490,l),
(1824,1490,l),
(1577,0,l),
(1390,0,l),
(1530,851,ls),
(1541,918,o),
(1556,1003,o),
(1573,1091,cs),
(1589,1179,o),
(1607,1267,o),
(1620,1342,c),
(1636,1342,l),
(1592,1249,o),
(1543,1150,o),
(1499,1062,cs),
(1454,974,o),
(1415,899,o),
(1388,851,cs),
(914,0,l),
(749,0,l),
(552,851,ls),
(545,882,o),
(537,923,o),
(528,975,cs),
(518,1026,o),
(508,1084,o),
(497,1148,cs),
(486,1212,o),
(474,1277,o),
(462,1342,c),
(481,1342,l),
(470,1262,o),
(457,1172,o),
(444,1085,cs),
(431,997,o),
(419,915,o),
(408,851,cs),
(268,0,l)
);
}
);
width = 1850;
},
{
anchors = (
{
name = m.uni0326;
position = "{998, 0}";
},
{
name = m.uni030F_1;
position = "{1245, 1490}";
}
);
layerId = "FB0E6F58-CE6D-4D5A-8B32-1EB8A97466B2";
shapes = (
{
closed = 1;
nodes = (
(139,0,l),
(386,1490,l),
(450,1490,l),
(768,304,ls),
(774,281,o),
(780,259,o),
(786,236,cs),
(792,213,o),
(798,189,o),
(804,166,cs),
(810,142,o),
(816,118,o),
(822,95,c),
(827,72,o),
(833,48,o),
(839,24,c),
(815,24,l),
(829,48,o),
(843,72,o),
(857,95,c),
(870,118,o),
(884,142,o),
(898,166,cs),
(911,189,o),
(925,213,o),
(939,236,c),
(952,259,o),
(966,281,o),
(979,304,cs),
(1690,1490,l),
(1754,1490,l),
(1507,0,l),
(1461,0,l),
(1649,1136,ls),
(1658,1189,o),
(1668,1244,o),
(1677,1300,cs),
(1686,1356,o),
(1696,1411,o),
(1704,1464,c),
(1718,1464,l),
(1686,1408,o),
(1655,1353,o),
(1623,1298,cs),
(1591,1243,o),
(1559,1189,o),
(1527,1136,cs),
(846,0,l),
(800,0,l),
(495,1136,l),
(486,1172,o),
(476,1208,o),
(467,1244,cs),
(458,1280,o),
(449,1316,o),
(440,1353,cs),
(431,1390,o),
(421,1427,o),
(412,1464,c),
(426,1464,l),
(418,1411,o),
(409,1356,o),
(400,1300,cs),
(391,1244,o),
(382,1189,o),
(373,1136,cs),
(185,0,l)
);
}
);
width = 1832;
}
);
leftKerningGroup = public.kern2.B2;
rightKerningGroup = public.kern1.H;
unicode = 77;
}
{
glyphname = N;
layers = (
{
anchors = (
{
name = m.uni0326;
position = "{726, 0}";
},
{
name = m.uni030F_1;
position = "{973, 1490}";
}
);
layerId = "04467604-8FE9-4714-B90C-9622AAE539FB";
shapes = (
{
closed = 1;
nodes = (
(3,0,l),
(250,1490,l),
(690,1490,l),
(948,905,ls),
(971,854,o),
(991,804,o),
(1009,753,cs),
(1045,652,o),
(1075,535,o),
(1100,372,c),
(1065,372,l),
(1070,426,o),
(1076,489,o),
(1083,560,cs),
(1090,631,o),
(1097,701,o),
(1105,770,cs),
(1112,839,o),
(1120,897,o),
(1127,944,cs),
(1218,1490,l),
(1634,1490,l),
(1387,0,l),
(947,0,l),
(706,544,ls),
(679,606,o),
(656,664,o),
(637,718,cs),
(599,825,o),
(567,939,o),
(526,1096,c),
(568,1096,l),
(562,1026,o),
(556,956,o),
(549,887,cs),
(536,748,o),
(522,625,o),
(509,544,cs),
(419,0,l)
);
}
);
width = 1576;
},
{
anchors = (
{
name = m.uni0326;
position = "{765, 0}";
},
{
name = m.uni030F_1;
position = "{1012, 1490}";
}
);
layerId = "23EE5F7B-1869-4A94-9115-57B554FEB4FE";
shapes = (
{
closed = 1;
nodes = (
(87,0,l),
(334,1490,l),
(552,1490,l),
(1000,537,ls),
(1009,517,o),
(1022,488,o),
(1039,451,c),
(1071,375,o),
(1111,272,o),
(1146,155,c),
(1125,155,l),
(1128,212,o),
(1133,267,o),
(1139,319,cs),
(1145,370,o),
(1151,418,o),
(1158,462,cs),
(1165,506,o),
(1171,544,o),
(1176,576,cs),
(1327,1490,l),
(1517,1490,l),
(1270,0,l),
(1051,0,l),
(651,848,ls),
(634,884,o),
(617,923,o),
(600,964,cs),
(564,1046,o),
(521,1156,o),
(452,1329,c),
(480,1329,l),
(470,1248,o),
(461,1177,o),
(454,1115,cs),
(438,991,o),
(427,903,o),
(418,850,cs),
(278,0,l)
);
}
);
width = 1543;
},
{
anchors = (
{
name = m.uni0326;
position = "{821, 0}";
},
{
name = m.uni030F_1;
position = "{1068, 1490}";
}
);
layerId = "43DA4125-45C3-47AB-8F4B-FC6AC1251C13";
shapes = (
{
closed = 1;
nodes = (
(139,0,l),
(386,1490,l),
(428,1490,l),
(1063,359,ls),
(1083,324,o),
(1102,290,o),
(1121,255,cs),
(1158,186,o),
(1195,117,o),
(1234,48,c),
(1221,48,l),
(1227,83,o),
(1232,117,o),
(1237,152,cs),
(1242,186,o),
(1247,220,o),
(1252,255,cs),
(1257,290,o),
(1263,324,o),
(1268,359,c),
(1456,1490,l),
(1502,1490,l),
(1255,0,l),
(1213,0,l),
(579,1129,ls),
(560,1164,o),
(541,1198,o),
(522,1233,cs),
(484,1302,o),
(447,1372,o),
(408,1441,c),
(420,1441,l),
(414,1406,o),
(409,1372,o),
(404,1337,cs),
(394,1268,o),
(384,1198,o),
(372,1129,cs),
(185,0,l)
);
}
);
width = 1580;
}
);
leftKerningGroup = public.kern2.B2;
rightKerningGroup = public.kern1.H;
unicode = 78;
}
{
glyphname = O;
layers = (
{
anchors = (
{
name = m.uni0326;
position = "{700, 0}";
},
{
name = m.uni030F_1;
position = "{947, 1490}";
},
{
name = m.uni0328_4;
position = "{1603, 888}";
}
);
layerId = "776CB2AD-1814-4C60-BC2D-56A98A3F851B";
shapes = (
{
closed = 1;
nodes = (
(597,-20,o),
(489,4,o),
(394,52,cs),
(205,147,o),
(91,332,o),
(91,597,cs),
(91,722,o),
(111,839,o),
(150,950,cs),
(189,1060,o),
(246,1157,o),
(320,1241,cs),
(393,1325,o),
(482,1391,o),
(585,1439,cs),
(688,1486,o),
(804,1510,o),
(932,1510,cs),
(1054,1510,o),
(1162,1486,o),
(1257,1439,cs),
(1445,1344,o),
(1560,1159,o),
(1560,892,cs),
(1560,767,o),
(1540,650,o),
(1501,540,cs),
(1461,430,o),
(1404,333,o),
(1331,249,cs),
(1257,165,o),
(1169,99,o),
(1066,52,cs),
(963,4,o),
(847,-20,o),
(720,-20,cs)
);
},
{
closed = 1;
nodes = (
(810,332,o),
(872,349,o),
(924,384,cs),
(976,418,o),
(1019,463,o),
(1052,520,cs),
(1085,576,o),
(1110,637,o),
(1126,703,cs),
(1141,769,o),
(1149,833,o),
(1149,896,cs),
(1149,954,o),
(1140,1002,o),
(1123,1041,cs),
(1088,1118,o),
(1019,1158,o),
(915,1158,cs),
(842,1158,o),
(780,1141,o),
(728,1106,cs),
(675,1071,o),
(632,1026,o),
(599,970,cs),
(566,913,o),
(541,852,o),
(526,787,cs),
(510,721,o),
(502,657,o),
(502,594,cs),
(502,537,o),
(511,489,o),
(529,450,cs),
(564,372,o),
(633,332,o),
(737,332,cs)
);
}
);
width = 1590;
},
{
anchors = (
{
name = m.uni0326;
position = "{711, 0}";
},
{
name = m.uni030F_1;
position = "{959, 1490}";
},
{
name = m.uni0328_4;
position = "{1599, 902}";
}
);
layerId = "20DC6F22-D8D0-4CDE-BECF-0ED1E6480441";
shapes = (
{
closed = 1;
nodes = (
(586,-20,o),
(488,4,o),
(404,52,cs),
(236,148,o),
(139,331,o),
(139,580,cs),
(139,698,o),
(157,813,o),
(194,924,cs),
(231,1035,o),
(284,1134,o),
(353,1222,cs),
(422,1310,o),
(506,1380,o),
(603,1432,cs),
(700,1484,o),
(809,1510,o),
(930,1510,cs),
(1043,1510,o),
(1141,1486,o),
(1224,1438,cs),
(1391,1342,o),
(1488,1160,o),
(1488,911,cs),
(1488,792,o),
(1470,678,o),
(1433,567,cs),
(1396,456,o),
(1344,356,o),
(1275,268,cs),
(1206,179,o),
(1123,109,o),
(1026,58,cs),
(929,6,o),
(820,-20,o),
(699,-20,cs)
);
},
{
closed = 1;
nodes = (
(799,156,o),
(883,177,o),
(957,220,cs),
(1031,263,o),
(1094,320,o),
(1146,392,cs),
(1197,464,o),
(1237,545,o),
(1264,634,cs),
(1291,723,o),
(1304,813,o),
(1304,906,cs),
(1304,999,o),
(1288,1078,o),
(1256,1142,cs),
(1191,1269,o),
(1072,1334,o),
(923,1334,cs),
(830,1334,o),
(746,1313,o),
(672,1270,cs),
(598,1227,o),
(535,1170,o),
(483,1098,cs),
(431,1026,o),
(391,946,o),
(364,857,cs),
(337,768,o),
(323,678,o),
(323,585,cs),
(323,492,o),
(339,413,o),
(372,350,cs),
(437,222,o),
(557,156,o),
(706,156,cs)
);
}
);
width = 1566;
},
{
anchors = (
{
name = m.uni0326;
position = "{639, 0}";
},
{
name = m.uni030F_1;
position = "{888, 1490}";
},
{
name = m.uni0328_4;
position = "{1412, 960}";
}
);
layerId = "72C9AAD8-EC9F-4272-847E-B53637FCE55F";
shapes = (
{
closed = 1;
nodes = (
(567,-20,o),
(476,4,o),
(400,53,cs),
(248,149,o),
(163,329,o),
(163,564,cs),
(163,679,o),
(181,793,o),
(216,905,cs),
(251,1017,o),
(301,1119,o),
(367,1210,cs),
(433,1301,o),
(513,1373,o),
(606,1428,cs),
(699,1483,o),
(803,1510,o),
(920,1510,cs),
(1025,1510,o),
(1116,1486,o),
(1192,1438,cs),
(1344,1341,o),
(1428,1162,o),
(1428,926,cs),
(1428,811,o),
(1411,698,o),
(1376,586,cs),
(1341,473,o),
(1291,372,o),
(1226,281,cs),
(1161,190,o),
(1082,117,o),
(989,62,cs),
(896,7,o),
(790,-20,o),
(673,-20,cs)
);
},
{
closed = 1;
nodes = (
(784,26,o),
(883,52,o),
(970,104,cs),
(1057,156,o),
(1131,226,o),
(1192,313,cs),
(1253,400,o),
(1300,496,o),
(1333,602,cs),
(1366,707,o),
(1382,814,o),
(1382,922,cs),
(1382,1032,o),
(1364,1128,o),
(1327,1209,cs),
(1253,1371,o),
(1111,1464,o),
(919,1464,cs),
(809,1464,o),
(710,1438,o),
(623,1386,cs),
(536,1334,o),
(461,1265,o),
(400,1178,cs),
(338,1091,o),
(291,994,o),
(258,888,cs),
(225,782,o),
(209,675,o),
(209,567,cs),
(209,458,o),
(228,363,o),
(265,282,cs),
(339,119,o),
(480,26,o),
(675,26,cs)
);
}
);
width = 1530;
}
);
leftKerningGroup = public.kern2.C2;
rightKerningGroup = public.kern1.D;
unicode = 79;
}
{
glyphname = P;
layers = (
{
anchors = (
{
name = m.uni030F_1;
position = "{850, 1490}";
}
);
layerId = "BF2F17A8-34C3-4EBA-8163-9D00BAFD6277";
shapes = (
{
closed = 1;
nodes = (
(3,0,l),
(250,1490,l),
(892,1490,ls),
(1003,1490,o),
(1096,1468,o),
(1172,1425,cs),
(1323,1337,o),
(1394,1174,o),
(1358,962,cs),
(1341,855,o),
(1302,763,o),
(1242,686,cs),
(1121,530,o),
(931,442,o),
(704,442,cs),
(320,442,l),
(372,756,l),
(674,756,ls),
(722,756,o),
(764,765,o),
(801,782,cs),
(874,816,o),
(923,878,o),
(936,962,cs),
(943,1005,o),
(941,1042,o),
(928,1073,cs),
(902,1133,o),
(838,1166,o),
(742,1166,cs),
(600,1166,l),
(407,0,l)
);
}
);
width = 1343;
},
{
anchors = (
{
name = m.uni030F_1;
position = "{880, 1490}";
}
);
layerId = "074E11EA-331B-4F91-A771-D63337ECF1B1";
shapes = (
{
closed = 1;
nodes = (
(87,0,l),
(334,1490,l),
(844,1490,ls),
(959,1490,o),
(1051,1469,o),
(1119,1428,cs),
(1255,1344,o),
(1303,1195,o),
(1274,1018,cs),
(1260,929,o),
(1229,849,o),
(1181,777,cs),
(1084,632,o),
(920,539,o),
(688,539,cs),
(327,539,l),
(355,706,l),
(706,706,ls),
(787,706,o),
(853,720,o),
(906,748,cs),
(1010,803,o),
(1066,902,o),
(1085,1017,cs),
(1094,1075,o),
(1092,1127,o),
(1078,1173,cs),
(1050,1265,o),
(966,1323,o),
(806,1323,cs),
(496,1323,l),
(277,0,l)
);
}
);
width = 1308;
},
{
anchors = (
{
name = m.uni030F_1;
position = "{854, 1490}";
}
);
layerId = "B31D44BF-3352-4B16-8DB9-CDCEC9E4DE37";
shapes = (
{
closed = 1;
nodes = (
(139,0,l),
(386,1490,l),
(824,1490,ls),
(907,1490,o),
(978,1471,o),
(1036,1434,cs),
(1151,1359,o),
(1206,1223,o),
(1177,1054,cs),
(1163,969,o),
(1133,894,o),
(1086,829,cs),
(992,698,o),
(847,620,o),
(680,620,cs),
(266,620,l),
(273,666,l),
(687,666,ls),
(761,666,o),
(829,683,o),
(892,716,cs),
(1017,782,o),
(1107,902,o),
(1131,1054,cs),
(1144,1130,o),
(1139,1197,o),
(1116,1256,cs),
(1071,1373,o),
(964,1444,o),
(816,1444,cs),
(424,1444,l),
(185,0,l)
);
}
);
width = 1241;
}
);
leftKerningGroup = B2;
rightKerningGroup = P;
unicode = 80;
}
{
glyphname = Q;
layers = (
{
anchors = (
{
name = m.uni0326;
position = "{698, 0}";
},
{
name = m.uni030F_1;
position = "{946, 1490}";
},
{
name = m.uni0328_4;
position = "{1593, 744}";
}
);
layerId = "B92D097E-6F62-4818-9792-FACFD7690A0B";
shapes = (
{
closed = 1;
nodes = (
(563,-20,o),
(444,9,o),
(345,68,cs),
(245,127,o),
(172,213,o),
(127,327,cs),
(82,440,o),
(73,579,o),
(101,744,cs),
(129,910,o),
(184,1050,o),
(267,1164,cs),
(350,1278,o),
(451,1364,o),
(571,1423,cs),
(690,1481,o),
(818,1510,o),
(953,1510,cs),
(1088,1510,o),
(1206,1481,o),
(1305,1423,cs),
(1404,1364,o),
(1477,1278,o),
(1523,1164,cs),
(1568,1050,o),
(1577,910,o),
(1549,744,cs),
(1521,579,o),
(1466,439,o),
(1383,326,cs),
(1299,212,o),
(1198,126,o),
(1079,68,cs),
(960,9,o),
(833,-20,o),
(698,-20,cs)
);
},
{
closed = 1;
nodes = (
(823,332,o),
(883,348,o),
(934,380,cs),
(984,411,o),
(1027,458,o),
(1060,519,cs),
(1094,580,o),
(1118,655,o),
(1133,744,cs),
(1148,833,o),
(1148,909,o),
(1136,971,cs),
(1123,1032,o),
(1096,1079,o),
(1056,1111,c),
(1015,1142,o),
(961,1158,o),
(894,1158,cs),
(827,1158,o),
(768,1142,o),
(718,1111,cs),
(667,1079,o),
(624,1032,o),
(591,971,cs),
(556,909,o),
(532,833,o),
(517,744,cs),
(502,655,o),
(502,580,o),
(515,519,cs),
(528,458,o),
(555,411,o),
(596,380,c),
(636,348,o),
(689,332,o),
(756,332,cs)
);
},
{
closed = 1;
nodes = (
(1155,121,l),
(1145,66,o),
(1257,-88,o),
(1349,-150,c),
(973,-351,l),
(876,-264,o),
(745,-48,o),
(755,10,c)
);
}
);
width = 1612;
},
{
anchors = (
{
name = m.uni0326;
position = "{715, 0}";
},
{
name = m.uni030F_1;
position = "{963, 1490}";
},
{
name = m.uni0328_4;
position = "{1593, 744}";
}
);
layerId = "14A30E1C-002E-4EDB-A2B6-9D6791ECC38B";
shapes = (
{
closed = 1;
nodes = (
(561,-20,o),
(452,11,o),
(363,73,cs),
(273,134,o),
(209,222,o),
(171,337,cs),
(133,451,o),
(127,587,o),
(153,744,cs),
(179,902,o),
(231,1038,o),
(307,1153,cs),
(383,1267,o),
(477,1355,o),
(587,1417,cs),
(696,1479,o),
(816,1510,o),
(943,1510,cs),
(1070,1510,o),
(1178,1479,o),
(1267,1417,cs),
(1356,1355,o),
(1420,1267,o),
(1458,1153,cs),
(1496,1038,o),
(1501,902,o),
(1475,744,cs),
(1449,587,o),
(1398,451,o),
(1322,337,cs),
(1246,222,o),
(1152,134,o),
(1043,73,cs),
(934,11,o),
(815,-20,o),
(688,-20,cs)
);
},
{
closed = 1;
nodes = (
(806,156,o),
(890,179,o),
(969,224,cs),
(1048,269,o),
(1116,335,o),
(1173,423,cs),
(1230,510,o),
(1269,617,o),
(1290,744,cs),
(1311,872,o),
(1308,980,o),
(1281,1068,c),
(1252,1155,o),
(1207,1222,o),
(1143,1267,cs),
(1079,1312,o),
(1002,1334,o),
(913,1334,cs),
(824,1334,o),
(739,1311,o),
(660,1266,cs),
(580,1221,o),
(512,1154,o),
(456,1067,cs),
(398,979,o),
(359,871,o),
(338,744,cs),
(317,617,o),
(320,510,o),
(348,423,cs),
(376,336,o),
(422,269,o),
(486,224,cs),
(551,179,o),
(628,156,o),
(717,156,cs)
);
},
{
closed = 1;
nodes = (
(1060,85,l),
(1046,1,o),
(1109,-105,o),
(1217,-178,c),
(1057,-281,l),
(955,-224,o),
(868,-73,o),
(883,21,c)
);
}
);
width = 1566;
},
{
anchors = (
{
name = m.uni0326;
position = "{649, 0}";
},
{
name = m.uni030F_1;
position = "{897, 1490}";
},
{
name = m.uni0328_4;
position = "{1405, 744}";
}
);
layerId = "536BEFF9-0CB2-44EC-980E-54189405B9DA";
shapes = (
{
closed = 1;
nodes = (
(547,-20,o),
(445,12,o),
(363,77,cs),
(280,141,o),
(222,231,o),
(191,346,c),
(158,461,o),
(154,593,o),
(179,744,cs),
(204,896,o),
(253,1030,o),
(324,1145,cs),
(395,1260,o),
(482,1349,o),
(586,1414,cs),
(689,1478,o),
(802,1510,o),
(925,1510,cs),
(1047,1510,o),
(1148,1478,o),
(1231,1414,cs),
(1313,1349,o),
(1370,1260,o),
(1403,1145,cs),
(1435,1030,o),
(1438,896,o),
(1413,744,cs),
(1388,593,o),
(1340,460,o),
(1269,345,cs),
(1198,230,o),
(1111,140,o),
(1008,76,cs),
(904,12,o),
(792,-20,o),
(670,-20,cs)
);
},
{
closed = 1;
nodes = (
(790,26,o),
(894,56,o),
(990,117,cs),
(1085,177,o),
(1166,261,o),
(1232,369,cs),
(1298,477,o),
(1343,602,o),
(1367,744,cs),
(1391,887,o),
(1388,1012,o),
(1358,1120,cs),
(1328,1228,o),
(1275,1312,o),
(1200,1373,cs),
(1124,1434,o),
(1030,1464,o),
(917,1464,cs),
(804,1464,o),
(700,1434,o),
(604,1374,cs),
(508,1314,o),
(427,1230,o),
(361,1122,cs),
(294,1014,o),
(249,888,o),
(225,744,cs),
(201,603,o),
(205,478,o),
(235,370,cs),
(264,262,o),
(317,178,o),
(392,117,cs),
(468,56,o),
(563,26,o),
(677,26,cs)
);
},
{
closed = 1;
nodes = (
(906,41,l),
(922,-68,o),
(989,-159,o),
(1142,-222,c),
(1114,-264,l),
(945,-193,o),
(886,-115,o),
(857,17,c)
);
}
);
width = 1530;
}
);
leftKerningGroup = public.kern2.C2;
rightKerningGroup = public.kern1.D;
unicode = 81;
}
{
glyphname = R;
layers = (
{
anchors = (
{
name = m.uni0326;
position = "{642, 0}";
},
{
name = m.uni030F_1;
position = "{866, 1490}";
}
);
layerId = "776CB2AD-1814-4C60-BC2D-56A98A3F851B";
shapes = (
{
closed = 1;
nodes = (
(3,0,l),
(250,1490,l),
(892,1490,ls),
(1003,1490,o),
(1096,1470,o),
(1173,1430,cs),
(1325,1349,o),
(1397,1195,o),
(1362,984,cs),
(1345,877,o),
(1306,787,o),
(1247,714,cs),
(1127,567,o),
(939,492,o),
(712,492,cs),
(328,492,l),
(380,806,l),
(682,806,ls),
(730,806,o),
(772,812,o),
(808,824,cs),
(880,848,o),
(927,899,o),
(940,984,c),
(951,1047,o),
(938,1094,o),
(903,1123,cs),
(867,1152,o),
(813,1166,o),
(742,1166,cs),
(600,1166,l),
(407,0,l)
);
},
{
closed = 1;
nodes = (
(809,0,l),
(558,684,l),
(988,684,l),
(1249,0,l)
);
}
);
width = 1368;
},
{
anchors = (
{
name = m.uni0326;
position = "{662, 0}";
},
{
name = m.uni030F_1;
position = "{877, 1490}";
}
);
layerId = "20DC6F22-D8D0-4CDE-BECF-0ED1E6480441";
shapes = (
{
closed = 1;
nodes = (
(87,0,l),
(334,1490,l),
(844,1490,ls),
(961,1490,o),
(1054,1470,o),
(1123,1430,cs),
(1259,1350,o),
(1305,1206,o),
(1276,1030,cs),
(1261,942,o),
(1230,864,o),
(1183,796,cs),
(1088,660,o),
(926,578,o),
(694,578,cs),
(289,578,l),
(317,747,l),
(712,747,ls),
(791,747,o),
(857,759,o),
(909,782,cs),
(1013,828,o),
(1068,915,o),
(1087,1030,cs),
(1102,1123,o),
(1088,1195,o),
(1044,1246,cs),
(1000,1297,o),
(921,1323,o),
(806,1323,cs),
(496,1323,l),
(277,0,l)
);
},
{
closed = 1;
nodes = (
(943,0,l),
(694,671,l),
(908,671,l),
(1163,0,l)
);
}
);
width = 1318;
},
{
anchors = (
{
name = m.uni0326;
position = "{596, 0}";
},
{
name = m.uni030F_1;
position = "{825, 1490}";
}
);
layerId = "72C9AAD8-EC9F-4272-847E-B53637FCE55F";
shapes = (
{
closed = 1;
nodes = (
(139,0,l),
(386,1490,l),
(824,1490,ls),
(907,1490,o),
(978,1472,o),
(1036,1437,cs),
(1152,1366,o),
(1208,1235,o),
(1179,1064,cs),
(1165,980,o),
(1135,906,o),
(1088,843,cs),
(994,716,o),
(850,642,o),
(683,642,cs),
(269,642,l),
(277,688,l),
(683,688,ls),
(757,688,o),
(826,704,o),
(890,735,cs),
(1017,798,o),
(1109,913,o),
(1133,1064,cs),
(1152,1179,o),
(1134,1271,o),
(1077,1340,cs),
(1020,1409,o),
(935,1444,o),
(824,1444,cs),
(424,1444,l),
(185,0,l)
);
},
{
closed = 1;
nodes = (
(1024,0,l),
(770,678,l),
(819,678,l),
(1073,0,l)
);
}
);
width = 1260;
}
);
leftKerningGroup = public.kern2.B2;
rightKerningGroup = public.kern1.R;
unicode = 82;
}
{
glyphname = S;
leftMetricsKey = "=115";
rightMetricsKey = "=116";
layers = (
{
anchors = (
{
name = m.uni0326;
position = "{677, 0}";
},
{
name = m.uni030F_1;
position = "{926, 1508}";
},
{
name = m.uni0327_3;
position = "{670, 0}";
}
);
layerId = "EF0863B1-A80B-4AC4-A80D-A5009A8E023C";
leftMetricsKey = "=58";
rightMetricsKey = "=58";
shapes = (
{
closed = 1;
nodes = (
(407.734,-24.293,o),
(138.488,91.098,o),
(20.061,330.989,o),
(51.439,518.246,q),
(436.075,518.246,l),
(420.892,415.002,o),
(536.283,309.733,o),
(652.686,307.709,q),
(717.467,308.721,o),
(809.577,344.148,o),
(864.236,402.856,o),
(871.321,439.295,q),
(875.37,465.612,o),
(858.163,507.112,o),
(811.601,542.539,o),
(732.65,571.893,o),
(672.93,585.052,qs),
(529.198,617.442,ls),
(434.051,638.698,o),
(287.282,708.54,o),
(193.147,809.76,o),
(157.72,945.395,o),
(172.903,1032.444,q),
(195.172,1174.152,o),
(384.453,1391.775,o),
(677.991,1514.251,o),
(855.126,1514.251,qs),
(1035.298,1514.251,o),
(1278.226,1389.751,o),
(1384.507,1167.067,o),
(1361.226,1020.298,q),
(974.566,1020.298,l),
(979.627,1093.176,o),
(897.638,1182.25,o),
(800.467,1182.25,qs),
(736.699,1182.25,o),
(651.674,1149.859,o),
(605.113,1094.188,o),
(600.052,1060.786,q),
(593.978,1034.468,o),
(609.161,992.968,o),
(653.698,960.578,o),
(726.577,934.261,o),
(778.199,923.126,qs),
(895.614,896.809,ls),
(1053.517,861.382,o),
(1236.725,732.833,o),
(1302.518,552.661,o),
(1284.299,439.295,q),
(1258.994,292.526,o),
(1079.834,85.025,o),
(791.357,-24.293,o),
(602.076,-24.293,qs)
);
}
);
width = 1363;
},
{
anchors = (
{
name = m.uni0326;
position = "{694, 0}";
},
{
name = m.uni030F_1;
position = "{951, 1508}";
},
{
name = m.uni0327_3;
position = "{688, 0}";
}
);
layerId = "772355B8-E81A-4CAE-88E1-18D30E544C30";
shapes = (
{
closed = 1;
nodes = (
(417.563,-24.293,o),
(180.708,101.22,o),
(78.476,329.977,o),
(103.781,485.856,q),
(290.026,485.856,l),
(262.696,327.953,o),
(433.758,139.684,o),
(609.881,139.684,q),
(723.247,140.696,o),
(900.382,211.55,o),
(1010.712,337.063,o),
(1024.883,421.075,qs),
(1036.017,491.929,o),
(992.492,573.917,o),
(903.419,618.454,o),
(793.089,644.771,o),
(737.418,659.954,qs),
(573.442,704.491,ls),
(507.649,722.711,o),
(375.05,777.37,o),
(269.782,866.443,o),
(219.172,1000.054,o),
(235.367,1095.2,qs),
(256.623,1223.75,o),
(410.477,1412.019,o),
(655.43,1514.251,o),
(814.345,1514.251,qs),
(977.309,1514.251,o),
(1192.908,1400.885,o),
(1288.055,1194.396,o),
(1269.835,1052.688,q),
(1089.664,1052.688,l),
(1103.834,1189.335,o),
(957.065,1354.324,o),
(802.199,1354.324,qs),
(696.93,1354.324,o),
(531.941,1283.47,o),
(427.685,1155.932,o),
(413.514,1070.908,qs),
(403.392,1008.151,o),
(468.173,928.187,o),
(578.503,880.614,o),
(699.967,852.272,o),
(745.516,840.126,qs),
(873.053,805.711,ls),
(969.212,780.406,o),
(1137.237,691.333,o),
(1227.323,533.429,o),
(1205.054,402.856,qs),
(1182.786,272.282,o),
(1021.846,80.976,o),
(763.735,-24.293,o),
(595.71,-24.293,qs)
);
}
);
width = 1347;
},
{
anchors = (
{
name = m.uni0326;
position = "{606, 0}";
},
{
name = m.uni030F_1;
position = "{885, 1508}";
},
{
name = m.uni0327_3;
position = "{604, 0}";
}
);
layerId = "F09EDC10-DC28-4948-8673-8B4992B77282";
leftMetricsKey = "=156";
rightMetricsKey = "=156";
shapes = (
{
closed = 1;
nodes = (
(390.038,-23.281,o),
(200.757,71.866,o),
(110.671,240.904,o),
(121.805,350.221,q),
(168.366,350.221,l),
(155.208,205.477,o),
(349.55,23.281,o),
(536.807,24.293,q),
(664.344,24.293,o),
(869.821,113.366,o),
(1004.444,274.306,o),
(1022.663,378.563,q),
(1031.773,438.283,o),
(1007.48,537.478,o),
(938.651,618.454,o),
(821.235,685.259,o),
(737.223,712.589,qs),
(573.246,765.223,ls),
(489.234,792.553,o),
(369.794,864.419,o),
(298.94,955.517,o),
(274.647,1064.834,o),
(285.782,1129.615,q),
(302.989,1241.969,o),
(444.697,1415.056,o),
(662.32,1514.251,o),
(791.882,1514.251,qs),
(919.419,1514.251,o),
(1095.542,1411.007,o),
(1180.566,1232.86,o),
(1170.444,1117.469,q),
(1123.883,1117.469,l),
(1136.03,1270.311,o),
(957.882,1466.678,o),
(785.808,1467.69,q),
(671.43,1467.69,o),
(476.075,1378.616,o),
(347.526,1226.786,o),
(332.343,1129.615,q),
(322.221,1072.932,o),
(343.477,976.773,o),
(409.27,897.821,o),
(517.575,834.053,o),
(593.49,809.76,qs),
(753.418,757.126,ls),
(875.894,717.65,o),
(1024.688,611.369,o),
(1083.395,470.673,o),
(1069.224,378.563,q),
(1047.968,258.111,o),
(902.211,76.927,o),
(673.454,-23.281,o),
(526.685,-24.293,q)
);
}
);
width = 1256;
}
);
leftKerningGroup = S2;
rightKerningGroup = S;
unicode = 83;
}
{
glyphname = T;
layers = (
{
anchors = (
{
name = m.uni0326;
position = "{655, 0}";
},
{
name = m.uni030F_1;
position = "{904, 1490}";
},
{
name = m.uni0327_3;
position = "{642, 0}";
}
);
layerId = "FAC11FF2-8AA5-4867-8567-384AA135D88B";
shapes = (
{
closed = 1;
nodes = (
(156,1164,l),
(210,1490,l),
(1504,1490,l),
(1450,1164,l),
(1005,1164,l),
(812,0,l),
(408,0,l),
(601,1164,l)
);
}
);
width = 1406;
},
{
anchors = (
{
name = m.uni0326;
position = "{687, 0}";
},
{
name = m.uni030F_1;
position = "{936, 1490}";
},
{
name = m.uni0327_3;
position = "{675, 0}";
}
);
layerId = "3D85B7E1-85F7-4D8B-A4DD-E195C561FF62";
shapes = (
{
closed = 1;
nodes = (
(226,1323,l),
(254,1490,l),
(1380,1490,l),
(1352,1323,l),
(885,1323,l),
(666,0,l),
(476,0,l),
(695,1323,l)
);
}
);
width = 1324;
},
{
anchors = (
{
name = m.uni0326;
position = "{662, 0}";
},
{
name = m.uni030F_1;
position = "{911, 1490}";
},
{
name = m.uni0327_3;
position = "{652, 0}";
}
);
layerId = "5DA1E196-784D-41F4-ABD2-5FC63B6ED9FB";
shapes = (
{
closed = 1;
nodes = (
(275,1444,l),
(283,1490,l),
(1289,1490,l),
(1281,1444,l),
(801,1444,l),
(562,0,l),
(516,0,l),
(755,1444,l)
);
}
);
width = 1263;
}
);
leftKerningGroup = T2;
rightKerningGroup = T;
unicode = 84;
}
{
glyphname = U;
layers = (
{
anchors = (
{
name = m.uni0326;
position = "{647, 0}";
},
{
name = m.uni030F_1;
position = "{894, 1490}";
},
{
name = m.uni0328_4;
position = "{1443, 540}";
}
);
layerId = "B1221E90-548C-4905-8880-9EE25E37C96B";
shapes = (
{
closed = 1;
nodes = (
(532,-18,o),
(420,6,o),
(328,53,cs),
(236,100,o),
(169,166,o),
(128,251,cs),
(87,336,o),
(75,436,o),
(94,549,cs),
(250,1490,l),
(654,1490,l),
(500,557,ls),
(493,511,o),
(495,471,o),
(508,438,cs),
(533,370,o),
(595,332,o),
(680,332,cs),
(730,332,o),
(777,343,o),
(820,366,cs),
(863,389,o),
(899,419,o),
(928,457,cs),
(957,495,o),
(975,537,o),
(982,583,cs),
(1132,1490,l),
(1536,1490,l),
(1376,523,ls),
(1357,410,o),
(1315,313,o),
(1250,232,cs),
(1185,151,o),
(1102,89,o),
(1001,46,cs),
(900,3,o),
(788,-18,o),
(663,-18,cs)
);
}
);
width = 1478;
},
{
anchors = (
{
name = m.uni0326;
position = "{683, 0}";
},
{
name = m.uni030F_1;
position = "{931, 1490}";
},
{
name = m.uni0328_4;
position = "{1482, 541}";
}
);
layerId = "072C83FE-E797-476D-AD14-FFA4AF9D5A34";
shapes = (
{
closed = 1;
nodes = (
(558,-24,o),
(457,-1,o),
(376,47,cs),
(295,94,o),
(236,158,o),
(201,239,cs),
(165,320,o),
(155,412,o),
(172,514,cs),
(334,1490,l),
(524,1490,l),
(363,516,ls),
(351,443,o),
(356,380,o),
(378,325,cs),
(422,216,o),
(528,152,o),
(684,152,cs),
(766,152,o),
(840,168,o),
(905,201,cs),
(970,234,o),
(1024,278,o),
(1067,335,cs),
(1109,392,o),
(1136,456,o),
(1148,529,cs),
(1307,1490,l),
(1497,1490,l),
(1334,501,ls),
(1317,398,o),
(1279,308,o),
(1219,229,cs),
(1158,150,o),
(1082,88,o),
(989,43,cs),
(896,-2,o),
(792,-24,o),
(677,-24,cs)
);
}
);
width = 1523;
},
{
anchors = (
{
name = m.uni0326;
position = "{649, 0}";
},
{
name = m.uni030F_1;
position = "{898, 1490}";
},
{
name = m.uni0328_4;
position = "{1364, 553}";
}
);
layerId = "E51591BD-FE93-453F-89B8-2F40CEFC943D";
shapes = (
{
closed = 1;
nodes = (
(540,-22,o),
(452,1,o),
(379,47,cs),
(305,93,o),
(251,156,o),
(217,236,cs),
(183,315,o),
(174,405,o),
(191,506,cs),
(354,1490,l),
(400,1490,l),
(237,502,ls),
(222,410,o),
(229,328,o),
(260,256,cs),
(320,112,o),
(459,24,o),
(644,24,cs),
(739,24,o),
(827,45,o),
(908,87,cs),
(989,129,o),
(1057,186,o),
(1112,259,cs),
(1167,332,o),
(1202,414,o),
(1217,506,cs),
(1380,1490,l),
(1426,1490,l),
(1263,502,ls),
(1246,401,o),
(1208,312,o),
(1148,233,cs),
(1088,154,o),
(1014,91,o),
(927,46,cs),
(839,1,o),
(744,-22,o),
(643,-22,cs)
);
}
);
width = 1472;
}
);
leftKerningGroup = public.kern2.U;
rightKerningGroup = public.kern1.J;
unicode = 85;
}
{
glyphname = V;
layers = (
{
anchors = (
{
name = m.uni0326;
position = "{820, 0}";
},
{
name = m.uni030F_1;
position = "{1067, 1490}";
}
);
layerId = "EF0863B1-A80B-4AC4-A80D-A5009A8E023C";
shapes = (
{
closed = 1;
nodes = (
(453,0,l),
(200,1490,l),
(658,1490,l),
(735,912,ls),
(752,787,o),
(766,659,o),
(776,530,cs),
(785,400,o),
(793,268,o),
(800,135,c),
(710,135,l),
(811,402,o),
(910,661,o),
(1023,912,cs),
(1284,1490,l),
(1736,1490,l),
(1005,0,l)
);
}
);
width = 1628;
},
{
anchors = (
{
name = m.uni0326;
position = "{852, 0}";
},
{
name = m.uni030F_1;
position = "{1099, 1490}";
}
);
layerId = "772355B8-E81A-4CAE-88E1-18D30E544C30";
shapes = (
{
closed = 1;
nodes = (
(507,0,l),
(206,1490,l),
(406,1490,l),
(575,606,ls),
(586,546,o),
(598,476,o),
(610,396,cs),
(622,315,o),
(636,213,o),
(651,90,c),
(615,90,l),
(723,333,o),
(803,497,o),
(859,606,cs),
(1313,1490,l),
(1515,1490,l),
(726,0,l)
);
}
);
width = 1413;
},
{
anchors = (
{
name = m.uni0326;
position = "{773, 0}";
},
{
name = m.uni030F_1;
position = "{1020, 1490}";
}
);
layerId = "F09EDC10-DC28-4948-8673-8B4992B77282";
shapes = (
{
closed = 1;
nodes = (
(531,0,l),
(220,1490,l),
(266,1490,l),
(507,336,ls),
(518,283,o),
(529,229,o),
(540,176,cs),
(551,123,o),
(561,69,o),
(572,16,c),
(554,16,l),
(610,123,o),
(668,229,o),
(725,336,cs),
(1346,1490,l),
(1398,1490,l),
(594,0,l)
);
}
);
width = 1310;
}
);
leftKerningGroup = V2;
rightKerningGroup = V;
unicode = 86;
}
{
glyphname = W;
layers = (
{
anchors = (
{
name = m.uni0326;
position = "{1105, 0}";
},
{
name = m.uni030F_1;
position = "{1352, 1490}";
}
);
layerId = "BF2F17A8-34C3-4EBA-8163-9D00BAFD6277";
shapes = (
{
closed = 1;
nodes = (
(348,0,l),
(200,1490,l),
(652,1490,l),
(675,912,ls),
(678,839,o),
(679,760,o),
(677,674,cs),
(672,501,o),
(665,323,o),
(665,176,c),
(585,176,l),
(611,249,o),
(638,329,o),
(665,415,cs),
(719,587,o),
(775,767,o),
(832,912,cs),
(1060,1490,l),
(1464,1490,l),
(1500,912,ls),
(1505,839,o),
(1507,760,o),
(1506,674,cs),
(1505,501,o),
(1499,323,o),
(1503,176,c),
(1422,176,l),
(1447,249,o),
(1472,329,o),
(1497,415,cs),
(1548,587,o),
(1601,767,o),
(1656,912,cs),
(1872,1490,l),
(2324,1490,l),
(1682,0,l),
(1225,0,l),
(1177,607,ls),
(1169,712,o),
(1168,825,o),
(1173,946,cs),
(1178,1067,o),
(1180,1184,o),
(1177,1296,c),
(1283,1296,l),
(1238,1184,o),
(1200,1068,o),
(1168,947,cs),
(1136,826,o),
(1098,713,o),
(1054,607,cs),
(805,0,l)
);
}
);
width = 2216;
},
{
anchors = (
{
name = m.uni0326;
position = "{1137, 0}";
},
{
name = m.uni030F_1;
position = "{1384, 1490}";
}
);
layerId = "074E11EA-331B-4F91-A771-D63337ECF1B1";
shapes = (
{
closed = 1;
nodes = (
(365,0,l),
(206,1490,l),
(400,1490,l),
(484,576,ls),
(489,527,o),
(493,478,o),
(496,428,cs),
(502,327,o),
(507,224,o),
(508,115,c),
(484,115,l),
(503,170,o),
(522,223,o),
(541,275,cs),
(580,378,o),
(621,479,o),
(662,576,cs),
(1055,1490,l),
(1271,1490,l),
(1359,576,ls),
(1364,527,o),
(1368,478,o),
(1372,428,cs),
(1379,327,o),
(1384,224,o),
(1387,115,c),
(1360,115,l),
(1379,170,o),
(1398,223,o),
(1418,275,cs),
(1457,378,o),
(1497,479,o),
(1538,576,cs),
(1924,1490,l),
(2120,1490,l),
(1465,0,l),
(1244,0,l),
(1145,944,ls),
(1138,1006,o),
(1134,1073,o),
(1131,1144,cs),
(1128,1215,o),
(1126,1298,o),
(1127,1395,c),
(1166,1395,l),
(1137,1304,o),
(1109,1223,o),
(1083,1152,cs),
(1056,1081,o),
(1028,1011,o),
(999,944,cs),
(587,0,l)
);
}
);
width = 2018;
},
{
anchors = (
{
name = m.uni0326;
position = "{1044, 0}";
},
{
name = m.uni030F_1;
position = "{1291, 1490}";
}
);
layerId = "B31D44BF-3352-4B16-8DB9-CDCEC9E4DE37";
shapes = (
{
closed = 1;
nodes = (
(395,0,l),
(220,1490,l),
(268,1490,l),
(401,352,ls),
(406,315,o),
(410,277,o),
(414,240,cs),
(422,165,o),
(430,91,o),
(438,16,c),
(428,16,l),
(443,53,o),
(459,91,o),
(475,128,cs),
(506,203,o),
(539,277,o),
(571,352,cs),
(1070,1490,l),
(1140,1490,l),
(1261,352,ls),
(1265,315,o),
(1269,277,o),
(1273,240,cs),
(1280,165,o),
(1287,91,o),
(1294,16,c),
(1284,16,l),
(1300,53,o),
(1316,91,o),
(1333,128,c),
(1365,203,o),
(1398,277,o),
(1431,352,cs),
(1942,1490,l),
(1990,1490,l),
(1321,0,l),
(1251,0,l),
(1133,1104,ls),
(1126,1165,o),
(1120,1227,o),
(1114,1288,cs),
(1108,1349,o),
(1102,1411,o),
(1097,1472,c),
(1107,1472,l),
(1081,1411,o),
(1055,1349,o),
(1029,1288,cs),
(1003,1227,o),
(976,1165,o),
(949,1104,cs),
(465,0,l)
);
}
);
width = 1902;
}
);
leftKerningGroup = W2;
rightKerningGroup = W;
unicode = 87;
}
{
glyphname = Z;
layers = (
{
anchors = (
{
name = m.uni0326;
position = "{708, 0}";
},
{
name = m.uni030F_1;
position = "{963, 1490}";
}
);
layerId = "EF0863B1-A80B-4AC4-A80D-A5009A8E023C";
shapes = (
{
closed = 1;
nodes = (
(10,0,l),
(47,224,l),
(907,1164,l),
(205,1164,l),
(259,1490,l),
(1475,1490,l),
(1438,1266,l),
(578,326,l),
(1280,326,l),
(1226,0,l)
);
}
);
width = 1423;
},
{
anchors = (
{
name = m.uni0326;
position = "{734, 0}";
},
{
name = m.uni030F_1;
position = "{995, 1490}";
}
);
layerId = "772355B8-E81A-4CAE-88E1-18D30E544C30";
shapes = (
{
closed = 1;
nodes = (
(38,0,l),
(61,134,l),
(1056,1323,l),
(249,1323,l),
(277,1490,l),
(1314,1490,l),
(1291,1354,l),
(295,167,l),
(1102,167,l),
(1074,0,l)
);
}
);
width = 1290;
},
{
anchors = (
{
name = m.uni0326;
position = "{688, 0}";
},
{
name = m.uni030F_1;
position = "{949, 1490}";
}
);
layerId = "F09EDC10-DC28-4948-8673-8B4992B77282";
shapes = (
{
closed = 1;
nodes = (
(61,0,l),
(69,46,l),
(1174,1442,l),
(306,1442,l),
(314,1490,l),
(1240,1490,l),
(1232,1442,l),
(127,46,l),
(1005,46,l),
(997,0,l)
);
}
);
width = 1240;
}
);
leftKerningGroup = Z2;
rightKerningGroup = Z;
unicode = 90;
}
{
glyphname = bracketleft;
layers = (
{
layerId = "34603D4A-9538-491D-AC31-753F00B30A17";
shapes = (
{
closed = 1;
nodes = (
(5,-279,l),
(313,1581,l),
(879,1581,l),
(831,1289,l),
(655,1289,l),
(444,13,l),
(620,13,l),
(571,-279,l)
);
}
);
width = 794;
},
{
layerId = "85556A68-E3BA-4C8B-AB50-53608EAFDB0D";
shapes = (
{
closed = 1;
nodes = (
(87,-279,l),
(395,1581,l),
(793,1581,l),
(768,1428,l),
(542,1428,l),
(284,-126,l),
(510,-126,l),
(485,-279,l)
);
}
);
width = 747;
},
{
layerId = "0B13E480-0BFF-4E9F-8F40-D0AA519A66AF";
shapes = (
{
closed = 1;
nodes = (
(117,-280,l),
(425,1582,l),
(657,1582,l),
(650,1536,l),
(464,1536,l),
(171,-234,l),
(357,-234,l),
(349,-280,l)
);
}
);
width = 646;
}
);
leftKerningGroup = parenleft2;
unicode = 91;
}
{
glyphname = backslash;
layers = (
{
layerId = "B1221E90-548C-4905-8880-9EE25E37C96B";
shapes = (
{
closed = 1;
nodes = (
(362,-224,l),
(178,1560,l),
(508,1560,l),
(694,-224,l)
);
}
);
width = 838;
},
{
layerId = "072C83FE-E797-476D-AD14-FFA4AF9D5A34";
shapes = (
{
closed = 1;
nodes = (
(398,-224,l),
(212,1560,l),
(374,1560,l),
(558,-224,l)
);
}
);
width = 736;
},
{
layerId = "E51591BD-FE93-453F-89B8-2F40CEFC943D";
shapes = (
{
closed = 1;
nodes = (
(416,-224,l),
(232,1560,l),
(278,1560,l),
(462,-224,l)
);
}
);
width = 658;
}
);
leftKerningGroup = public.kern2.V2;
unicode = 92;
}
{
glyphname = bracketright;
layers = (
{
layerId = "776CB2AD-1814-4C60-BC2D-56A98A3F851B";
shapes = (
{
closed = 1;
nodes = (
(-55,-279,l),
(-6,13,l),
(170,13,l),
(381,1289,l),
(205,1289,l),
(253,1581,l),
(819,1581,l),
(511,-279,l)
);
}
);
width = 794;
},
{
layerId = "20DC6F22-D8D0-4CDE-BECF-0ED1E6480441";
shapes = (
{
closed = 1;
nodes = (
(-15,-279,l),
(10,-126,l),
(236,-126,l),
(494,1428,l),
(268,1428,l),
(293,1581,l),
(691,1581,l),
(383,-279,l)
);
}
);
width = 748;
},
{
layerId = "72C9AAD8-EC9F-4272-847E-B53637FCE55F";
shapes = (
{
closed = 1;
nodes = (
(19,-280,l),
(27,-234,l),
(213,-234,l),
(505,1534,l),
(319,1534,l),
(327,1582,l),
(559,1582,l),
(251,-280,l)
);
}
);
width = 646;
}
);
leftKerningGroup = public.kern2.parenright2;
rightKerningGroup = public.kern1.parenright;
unicode = 93;
}
{
glyphname = asciicircum;
layers = (
{
layerId = "776CB2AD-1814-4C60-BC2D-56A98A3F851B";
shapes = (
{
closed = 1;
nodes = (
(622,1306,l),
(674,1306,l),
(660,1222,l),
(608,1222,l)
);
},
{
closed = 1;
nodes = (
(102,814,l),
(520,1466,l),
(806,1466,l),
(1010,814,l),
(744,814,l),
(632,1250,l),
(642,1250,l),
(390,814,l)
);
}
);
width = 1024;
},
{
layerId = "20DC6F22-D8D0-4CDE-BECF-0ED1E6480441";
shapes = (
{
closed = 1;
nodes = (
(596,1360,l),
(648,1360,l),
(636,1285,l),
(584,1285,l)
);
},
{
closed = 1;
nodes = (
(126,814,l),
(527,1443,l),
(729,1443,l),
(927,814,l),
(757,814,l),
(604,1315,l),
(622,1315,l),
(311,814,l)
);
}
);
width = 965;
},
{
layerId = "72C9AAD8-EC9F-4272-847E-B53637FCE55F";
shapes = (
{
closed = 1;
nodes = (
(542,1414,l),
(570,1414,l),
(564,1368,l),
(536,1368,l)
);
},
{
closed = 1;
nodes = (
(136,814,l),
(538,1442,l),
(574,1442,l),
(766,814,l),
(712,814,l),
(542,1396,l),
(564,1396,l),
(190,814,l)
);
}
);
width = 820;
}
);
rightKerningGroup = public.kern1.degree;
unicode = 94;
}
{
glyphname = underscore;
layers = (
{
layerId = "BF2F17A8-34C3-4EBA-8163-9D00BAFD6277";
shapes = (
{
closed = 1;
nodes = (
(917,0,l),
(870,-286,l),
(-140,-286,l),
(-93,0,l)
);
}
);
width = 1010;
},
{
layerId = "074E11EA-331B-4F91-A771-D63337ECF1B1";
shapes = (
{
closed = 1;
nodes = (
(841,0,l),
(814,-166,l),
(-120,-166,l),
(-93,0,l)
);
}
);
width = 934;
},
{
layerId = "B31D44BF-3352-4B16-8DB9-CDCEC9E4DE37";
shapes = (
{
closed = 1;
nodes = (
(792,0,l),
(784,-46,l),
(-100,-46,l),
(-92,0,l)
);
}
);
width = 885;
}
);
unicode = 95;
}
{
color = (153, 213, 255, 255);
glyphname = a;
layers = (
{
anchors = (
{
name = bottom;
position = "{614, 0}";
},
{
name = ogonek;
position = "{1137, 0}";
},
{
name = rhalfring;
position = "{637, 1286}";
},
{
name = rhotichook;
position = "{972, 652}";
},
{
name = top;
position = "{611, 1286}";
}
);
guides = (
{
position = "{0, 1658.182}";
},
{
angle = 90;
position = "{573.091, 0}";
}
);
layerId = "A9C04B72-8640-41AC-B9A9-04E28CA76065";
associatedMasterId = "0C8A2A23-4AE2-454C-AEC2-B13207615F2B";
name = "Sep 30 18, 12:14";
shapes = (
{
closed = 1;
nodes = (
(570.182,-17.455,o),
(680.,32.,o),
(747.636,157.091,c),
(756.364,157.091,l),
(756.364,0,l),
(1131.636,0,l),
(1131.636,765.091,ls),
(1131.636,971.636,o),
(932.364,1131.636,o),
(625.455,1131.636,cs),
(298.182,1131.636,o),
(135.273,957.091,o),
(104.727,753.455,c),
(474.182,753.455,l),
(483.636,822.545,o),
(530.182,864.,o),
(610.909,864.,cs),
(688.727,864.,o),
(722.909,824.727,o),
(724.364,765.091,c),
(471.273,648.727,l),
(241.455,621.091,o),
(61.091,553.455,o),
(61.091,308.364,cs),
(61.091,85.818,o),
(210.909,-17.455,o),
(424.727,-17.455,cs)
);
},
{
closed = 1;
nodes = (
(487.273,229.818,o),
(439.273,260.364,o),
(439.273,322.909,cs),
(439.273,386.909,o),
(480.,421.818,o),
(587.636,448.,cs),
(647.273,462.545,o),
(693.818,476.364,o),
(733.091,494.545,c),
(733.091,401.455,ls),
(733.091,290.182,o),
(653.091,229.818,o),
(555.636,229.818,cs)
);
}
);
width = 1222;
},
{
anchors = (
{
name = bottom;
position = "{614, 0}";
},
{
name = ogonek;
position = "{1137, 0}";
},
{
name = rhalfring;
position = "{637, 1286}";
},
{
name = rhotichook;
position = "{972, 652}";
},
{
name = top;
position = "{611, 1286}";
}
);
guides = (
{
position = "{0, 1658.182}";
},
{
angle = 90;
position = "{573.091, 0}";
}
);
layerId = "CBF1276D-25FC-416E-BE5D-836D4FAD4A27";
associatedMasterId = "0C8A2A23-4AE2-454C-AEC2-B13207615F2B";
name = "Sep 30 18, 11:59";
shapes = (
{
closed = 1;
nodes = (
(563.636,-17.455,o),
(686.545,38.545,o),
(747.636,157.091,c),
(756.364,157.091,l),
(756.364,0,l),
(1131.636,0,l),
(1131.636,765.091,l),
(1130.182,971.636,o),
(932.364,1131.636,o),
(625.455,1131.636,cs),
(298.182,1131.636,o),
(117.818,957.091,o),
(87.273,753.455,c),
(462.545,753.455,l),
(472.727,823.273,o),
(533.818,849.455,o),
(599.273,849.455,cs),
(679.273,849.455,o),
(734.545,814.545,o),
(736.,759.273,c),
(544.,669.091,l),
(193.455,647.273,o),
(50.909,523.636,o),
(49.455,325.818,cs),
(48.,114.182,o),
(210.909,-17.455,o),
(424.727,-17.455,cs)
);
},
{
closed = 1;
nodes = (
(487.273,258.909,o),
(443.636,288.,o),
(445.091,340.364,c),
(443.636,408.,o),
(516.364,448.,o),
(619.636,459.636,cs),
(644.364,462.545,o),
(717.091,471.273,o),
(733.091,477.091,c),
(733.091,384.,l),
(731.636,316.364,o),
(655.273,258.909,o),
(555.636,258.909,cs)
);
}
);
width = 1222;
},
{
anchors = (
{
name = bottom;
position = "{570, 0}";
},
{
name = ogonek;
position = "{1068, 0}";
},
{
name = rhalfring;
position = "{573, 1286}";
},
{
name = rhotichook;
position = "{902, 652}";
},
{
name = top;
position = "{570, 1286}";
}
);
guides = (
{
position = "{0, 1658.182}";
},
{
angle = 90;
position = "{561.455, 0}";
}
);
layerId = "FD75CC8E-8DDE-4C8E-89AD-8F621850539B";
associatedMasterId = "0C8A2A23-4AE2-454C-AEC2-B13207615F2B";
name = "Sep 26 18, 17:42";
shapes = (
{
closed = 1;
nodes = (
(544.,-17.455,o),
(635.636,49.455,o),
(677.818,157.091,c),
(686.545,157.091,l),
(686.545,0,l),
(1067.636,0,l),
(1067.636,765.091,ls),
(1067.636,971.636,o),
(890.182,1131.636,o),
(581.818,1131.636,cs),
(267.636,1131.636,o),
(83.636,964.364,o),
(61.091,753.455,c),
(436.364,753.455,l),
(442.182,816.727,o),
(497.455,849.455,o),
(555.636,849.455,cs),
(617.455,849.455,o),
(660.364,816.,o),
(660.364,759.273,c),
(532.364,669.091,l),
(178.182,643.636,o),
(46.545,506.182,o),
(46.545,314.182,cs),
(46.545,98.909,o),
(209.455,-17.455,o),
(401.455,-17.455,cs)
);
},
{
closed = 1;
nodes = (
(465.455,258.909,o),
(433.455,288.,o),
(433.455,340.364,cs),
(433.455,439.273,o),
(547.636,450.182,o),
(581.818,456.727,cs),
(605.091,461.091,o),
(644.364,469.818,o),
(660.364,477.091,c),
(660.364,340.364,ls),
(660.364,285.091,o),
(576.,258.909,o),
(520.727,258.909,cs)
);
}
);
width = 1149;
},
{
anchors = (
{
name = bottom;
position = "{620, 0}";
},
{
name = ogonek;
position = "{1137, 0}";
},
{
name = rhalfring;
position = "{643, 1303}";
},
{
name = top;
position = "{634, 1303}";
}
);
guides = (
{
position = "{0, 1658.182}";
},
{
angle = 90;
position = "{628.364, 0}";
}
);
layerId = "1CC5B704-3694-4892-828B-9B1FE748D964";
associatedMasterId = "0C8A2A23-4AE2-454C-AEC2-B13207615F2B";
name = "May 15, 21 16:46";
shapes = (
{
closed = 1;
nodes = (
(576.,-17.455,o),
(685.818,32.,o),
(753.455,157.091,c),
(762.182,157.091,l),
(762.182,0,l),
(1137.455,0,l),
(1137.455,765.091,ls),
(1137.455,971.636,o),
(941.818,1131.636,o),
(622.545,1131.636,cs),
(288.727,1131.636,o),
(124.364,957.091,o),
(110.545,753.455,c),
(480.,753.455,l),
(489.455,822.545,o),
(540.364,855.273,o),
(616.727,855.273,cs),
(686.545,855.273,o),
(736.,823.273,o),
(736.,765.091,cs),
(736.,762.182,ls),
(736.,697.455,o),
(664.727,677.091,o),
(477.091,663.273,cs),
(246.545,646.545,o),
(66.909,553.455,o),
(66.909,308.364,cs),
(66.909,85.818,o),
(216.727,-17.455,o),
(430.545,-17.455,cs)
);
},
{
closed = 1;
nodes = (
(493.091,235.636,o),
(445.091,269.091,o),
(445.091,331.636,cs),
(445.091,389.091,o),
(485.818,433.455,o),
(578.909,448.,cs),
(642.909,458.182,o),
(696.727,471.273,o),
(738.909,488.727,c),
(738.909,395.636,ls),
(738.909,293.818,o),
(652.364,235.636,o),
(561.455,235.636,cs)
);
}
);
width = 1245;
},
{
anchors = (
{
name = bottom;
position = "{602, 0}";
},
{
name = ogonek;
position = "{1120, 0}";
},
{
name = rhalfring;
position = "{625, 1303}";
},
{
name = top;
position = "{617, 1303}";
}
);
guides = (
{
position = "{0, 1658.182}";
},
{
angle = 90;
position = "{491.636, 0}";
}
);
layerId = "9388F46C-BA76-40C1-BBCF-0FEEA2269A09";
associatedMasterId = "0C8A2A23-4AE2-454C-AEC2-B13207615F2B";
name = "Jun 15, 21 1:39";
shapes = (
{
closed = 1;
nodes = (
(734.545,676.364,l),
(725.818,675.636,o),
(561.455,670.545,o),
(461.091,664.727,cs),
(230.545,651.636,o),
(49.455,553.455,o),
(49.455,308.364,cs),
(49.455,85.818,o),
(199.273,-17.455,o),
(413.091,-17.455,cs),
(558.545,-17.455,o),
(668.364,32.,o),
(736.,157.091,c),
(744.727,157.091,l),
(744.727,0,l),
(1120.,0,l),
(1120.,765.091,ls),
(1120.,971.636,o),
(924.364,1131.636,o),
(605.091,1131.636,cs),
(271.273,1131.636,o),
(106.909,957.091,o),
(93.091,753.455,c),
(462.545,753.455,l),
(472.,822.545,o),
(522.909,855.273,o),
(599.273,855.273,cs),
(669.091,855.273,o),
(717.818,823.273,o),
(718.545,765.091,cs),
(721.455,395.636,ls),
(722.182,293.818,o),
(634.909,235.636,o),
(544.,235.636,cs),
(475.636,235.636,o),
(427.636,269.091,o),
(427.636,331.636,cs),
(427.636,389.091,o),
(468.364,434.182,o),
(532.364,442.182,cs),
(594.182,449.455,o),
(725.818,461.091,o),
(736.,461.091,c)
);
}
);
width = 1210;
},
{
anchors = (
{
name = bottom;
position = "{509, 0}";
},
{
name = ogonek;
position = "{1027, 0}";
},
{
name = rhalfring;
position = "{749, 1303}";
},
{
name = top;
position = "{741, 1303}";
}
);
background = {
shapes = (
{
closed = 1;
nodes = (
(558.545,-17.455,o),
(668.364,32.,o),
(736.,157.091,c),
(744.727,157.091,l),
(744.727,0,l),
(1120.,0,l),
(1120.,765.091,ls),
(1120.,971.636,o),
(920.727,1131.636,o),
(613.818,1131.636,cs),
(267.636,1131.636,o),
(106.909,957.091,o),
(93.091,753.455,c),
(462.545,753.455,l),
(472.,822.545,o),
(522.909,855.273,o),
(599.273,855.273,cs),
(670.545,855.273,o),
(717.091,824.727,o),
(718.545,765.091,cs),
(720.,698.182,o),
(647.273,677.091,o),
(459.636,663.273,cs),
(229.091,646.545,o),
(49.455,553.455,o),
(49.455,308.364,cs),
(49.455,85.818,o),
(199.273,-17.455,o),
(413.091,-17.455,cs)
);
},
{
closed = 1;
nodes = (
(475.636,235.636,o),
(427.636,269.091,o),
(427.636,331.636,cs),
(427.636,389.091,o),
(468.364,433.455,o),
(561.455,448.,cs),
(625.455,458.182,o),
(679.273,471.273,o),
(721.455,488.727,c),
(721.455,395.636,ls),
(721.455,293.818,o),
(634.909,235.636,o),
(544.,235.636,cs)
);
}
);
};
guides = (
{
position = "{0, 1658.182}";
},
{
angle = 90;
position = "{491.636, 0}";
}
);
layerId = "0C8A2A23-4AE2-454C-AEC2-B13207615F2B";
shapes = (
{
closed = 1;
nodes = (
(755,676,l),
(479,665,ls),
(220,655,o),
(1,518,o),
(1,238,cs),
(1,64,o),
(127,-17,o),
(317,-17,cs),
(463,-17,o),
(580,32,o),
(669,157,c),
(678,157,l),
(652,0,l),
(1027,0,l),
(1154,765,ls),
(1199,1037,o),
(922,1132,o),
(701,1132,cs),
(367,1132,o),
(173,957,o),
(125,753,c),
(495,753,l),
(516,823,o),
(572,855,o),
(648,855,cs),
(718,855,o),
(762,823,o),
(753,765,cs),
(694,396,ls),
(678,294,o),
(581,236,o),
(490,236,cs),
(429,236,o),
(389,263,o),
(389,314,cs),
(389,382,o),
(446,438,o),
(513,442,cs),
(719,454,l)
);
}
);
width = 1210;
},
{
anchors = (
{
name = bottom;
position = "{564, 0}";
},
{
name = ogonek;
position = "{975, 0}";
},
{
name = rhalfring;
position = "{561, 1303}";
},
{
name = top;
position = "{573, 1303}";
}
);
guides = (
{
angle = 90;
position = "{538.182, 0}";
}
);
layerId = "C2A6BA0C-2B94-483B-A6F3-867EAFB68F21";
associatedMasterId = "70700972-0F8E-4D63-A70C-6AC279DB2638";
name = "May 15, 21 16:46";
shapes = (
{
closed = 1;
nodes = (
(657.455,-26.182,o),
(759.273,78.545,o),
(794.182,151.273,c),
(802.909,151.273,l),
(802.909,0,l),
(974.545,0,l),
(974.545,736.,ls),
(974.545,1090.909,o),
(704.,1131.636,o),
(561.455,1131.636,cs),
(392.727,1131.636,o),
(200.727,1073.455,o),
(113.455,869.818,c),
(276.364,811.636,l),
(314.182,893.091,o),
(403.636,980.364,o),
(567.273,980.364,cs),
(725.091,980.364,o),
(802.909,896.727,o),
(802.909,753.455,cs),
(802.909,747.636,ls),
(802.909,664.727,o),
(718.545,672.,o),
(514.909,645.818,cs),
(307.636,618.909,o),
(81.455,573.091,o),
(81.455,317.091,cs),
(81.455,98.909,o),
(250.182,-26.182,o),
(462.545,-26.182,cs)
);
},
{
closed = 1;
nodes = (
(352.,128.,o),
(253.091,189.091,o),
(253.091,308.364,cs),
(253.091,439.273,o),
(372.364,480.,o),
(506.182,497.455,cs),
(578.909,506.182,o),
(773.818,526.545,o),
(802.909,561.455,c),
(802.909,404.364,ls),
(802.909,264.727,o),
(692.364,128.,o),
(488.727,128.,cs)
);
}
);
width = 1108;
},
{
anchors = (
{
name = bottom;
position = "{564, 0}";
},
{
name = ogonek;
position = "{975, 0}";
},
{
name = rhalfring;
position = "{561, 1303}";
},
{
name = top;
position = "{573, 1303}";
}
);
guides = (
{
angle = 90;
position = "{538.182, 0}";
}
);
layerId = "B7950CDD-0615-4DE2-9614-5A1ECE5D6FBB";
associatedMasterId = "70700972-0F8E-4D63-A70C-6AC279DB2638";
name = "Jun 15, 21 1:29";
shapes = (
{
closed = 1;
nodes = (
(814.545,663.273,l),
(799.273,662.545,o),
(581.091,651.636,o),
(500.364,645.818,cs),
(306.909,631.273,o),
(81.455,573.091,o),
(81.455,317.091,cs),
(81.455,98.909,o),
(250.182,-26.182,o),
(462.545,-26.182,cs),
(657.455,-26.182,o),
(759.273,78.545,o),
(794.182,151.273,c),
(802.909,151.273,l),
(802.909,0,l),
(974.545,0,l),
(974.545,736.,ls),
(974.545,1090.909,o),
(702.545,1131.636,o),
(561.455,1131.636,cs),
(316.364,1131.636,o),
(143.273,1008.,o),
(107.636,807.273,c),
(286.545,807.273,l),
(306.909,922.182,o),
(421.818,980.364,o),
(567.273,980.364,cs),
(723.636,980.364,o),
(802.909,896.727,o),
(802.909,753.455,cs),
(802.909,404.364,ls),
(802.909,264.727,o),
(692.364,128.,o),
(488.727,128.,cs),
(352.,128.,o),
(253.091,189.091,o),
(253.091,308.364,cs),
(253.091,432.,o),
(356.364,488.727,o),
(520.727,498.909,cs),
(581.818,502.545,o),
(806.545,519.273,o),
(817.455,519.273,c)
);
}
);
width = 1108;
},
{
anchors = (
{
name = bottom;
position = "{479, 0}";
},
{
name = ogonek;
position = "{889, 0}";
},
{
name = rhalfring;
position = "{693, 1303}";
},
{
name = top;
position = "{704, 1303}";
}
);
background = {
shapes = (
{
closed = 1;
nodes = (
(593.455,-19.636,o),
(709.091,45.091,o),
(779.636,164.364,c),
(795.636,164.364,l),
(795.636,0,l),
(974.545,0,l),
(974.545,759.273,ls),
(974.545,989.091,o),
(823.273,1128.,o),
(554.182,1128.727,cs),
(316.364,1128.,o),
(147.636,1010.909,o),
(119.273,837.818,c),
(117.818,832.,l),
(296.727,832.,l),
(298.182,834.909,l),
(326.545,920.727,o),
(414.545,969.455,o),
(546.909,970.182,cs),
(712.727,969.455,o),
(795.636,896.,o),
(795.636,759.273,cs),
(795.636,658.909,l),
(478.545,638.545,ls),
(219.636,623.273,o),
(74.182,509.091,o),
(74.182,311.273,cs),
(74.182,309.818,ls),
(74.182,107.636,o),
(233.455,-19.636,o),
(445.091,-20.364,cs)
);
},
{
closed = 1;
nodes = (
(257.455,315.636,l),
(256.727,425.455,o),
(330.909,485.091,o),
(500.364,496.,cs),
(795.636,514.909,l),
(795.636,413.091,ls),
(795.636,255.273,o),
(663.273,136.,o),
(481.455,136.727,cs),
(352.727,136.,o),
(256.727,201.455,o),
(257.455,314.182,c)
);
}
);
};
guides = (
{
angle = 90;
position = "{552.727, 0}";
}
);
layerId = "70700972-0F8E-4D63-A70C-6AC279DB2638";
shapes = (
{
closed = 1;
nodes = (
(839,663,l),
(523,646,ls),
(279,632,o),
(43,534,o),
(43,252,cs),
(43,74,o),
(182,-26,o),
(373,-26,cs),
(568,-26,o),
(687,79,o),
(733,151,c),
(742,151,l),
(717,0,l),
(889,0,l),
(1012,736,ls),
(1058,995,o),
(920,1132,o),
(659,1132,cs),
(414,1132,o),
(218,1008,o),
(166,828,c),
(345,828,l),
(385,915,o),
(482,980,o),
(624,980,cs),
(781,980,o),
(868,910,o),
(842,753,cs),
(784,404,ls),
(761,265,o),
(628,128,o),
(424,128,cs),
(300,128,o),
(215,178,o),
(215,276,cs),
(215,441,o),
(381,490,o),
(518,499,cs),
(818,519,l)
);
}
);
width = 1123;
},
{
anchors = (
{
name = bottom;
position = "{556, 0}";
},
{
name = ogonek;
position = "{905, 0}";
},
{
name = rhalfring;
position = "{556, 1303}";
},
{
name = rhotichook;
position = "{893, 666}";
},
{
name = top;
position = "{553, 1303}";
}
);
layerId = "45CF563E-D515-47ED-9BD1-46AD1ACE09BE";
associatedMasterId = "70E6EC48-9A24-4AD5-9BFE-11FF46F6DBD6";
name = "Nov 26 18, 08:24";
shapes = (
{
closed = 1;
nodes = (
(212.364,890.182,l),
(257.455,1013.818,o),
(384.727,1088.727,o),
(541.091,1088.,cs),
(733.818,1087.273,o),
(858.182,973.818,o),
(858.182,802.909,cs),
(858.182,0,l),
(904.727,0,l),
(904.727,802.909,ls),
(904.727,990.545,o),
(768.,1135.273,o),
(541.091,1134.545,cs),
(366.545,1133.818,o),
(219.636,1047.273,o),
(168.727,907.636,c)
);
},
{
closed = 1;
nodes = (
(728.,-23.273,o),
(904.727,192.727,o),
(904.727,477.091,c),
(858.182,477.091,l),
(858.182,205.818,o),
(689.455,23.273,o),
(477.091,23.273,cs),
(312.,23.273,o),
(183.273,134.545,o),
(183.273,302.545,cs),
(183.273,445.818,o),
(274.909,535.273,o),
(576.,570.182,cs),
(777.455,593.455,o),
(904.727,629.091,o),
(904.727,736.,c),
(858.182,736.,l),
(858.182,649.455,o),
(712.727,632.,o),
(558.545,613.818,cs),
(214.545,573.091,o),
(136.727,453.091,o),
(136.727,302.545,cs),
(136.727,93.818,o),
(293.091,-23.273,o),
(477.091,-23.273,cs)
);
},
{
closed = 1;
nodes = (
(846.545,226.909,l),
(866.909,226.909,l),
(866.909,256.,l),
(846.545,256.,l)
);
}
);
width = 1108;
},
{
anchors = (
{
name = bottom;
position = "{579, 0}";
},
{
name = ogonek;
position = "{925, 0}";
},
{
name = rhalfring;
position = "{561, 1315}";
},
{
name = rhotichook;
position = "{913, 666}";
},
{
name = top;
position = "{588, 1315}";
}
);
layerId = "D35C52C4-BA21-4779-88C2-9FBDDBA837D1";
associatedMasterId = "70E6EC48-9A24-4AD5-9BFE-11FF46F6DBD6";
name = "Nov 25 18, 18:14";
shapes = (
{
closed = 0;
nodes = (
(901.818,0,l),
(901.818,770.909,l),
(901.818,967.273,o),
(749.091,1050.909,o),
(570.182,1050.182,c),
(392.727,1050.909,o),
(258.182,967.273,o),
(209.455,837.818,c)
);
},
{
closed = 0;
nodes = (
(901.818,727.273,l),
(901.818,625.455,o),
(767.273,597.091,o),
(538.182,570.182,c),
(309.091,544.727,o),
(181.818,465.455,o),
(180.364,314.182,c),
(181.818,160.,o),
(320.,50.909,o),
(491.636,52.364,c),
(661.818,50.909,o),
(901.818,130.909,o),
(901.818,477.091,c)
);
}
);
width = 1121;
},
{
anchors = (
{
name = bottom;
position = "{532, 0}";
},
{
name = ogonek;
position = "{881, 0}";
},
{
name = rhalfring;
position = "{532, 1303}";
},
{
name = top;
position = "{529, 1303}";
}
);
guides = (
{
angle = 90;
position = "{445.091, 0}";
}
);
layerId = "4B2006B2-5D19-4359-8248-1E5F065C2910";
associatedMasterId = "70E6EC48-9A24-4AD5-9BFE-11FF46F6DBD6";
name = "May 15, 21 16:46";
shapes = (
{
closed = 1;
nodes = (
(622.545,-23.273,o),
(759.273,75.636,o),
(829.091,226.909,c),
(834.909,226.909,l),
(834.909,0,l),
(881.455,0,l),
(881.455,802.909,ls),
(881.455,992.,o),
(744.727,1134.545,o),
(517.818,1134.545,cs),
(343.273,1134.545,o),
(197.818,1047.273,o),
(145.455,907.636,c),
(189.091,890.182,l),
(235.636,1015.273,o),
(360.727,1088.,o),
(517.818,1088.,cs),
(709.818,1088.,o),
(834.909,974.545,o),
(834.909,802.909,cs),
(834.909,736.,ls),
(834.909,648.727,o),
(689.455,631.273,o),
(535.273,613.818,cs),
(192.,573.091,o),
(113.455,453.818,o),
(113.455,302.545,cs),
(113.455,93.091,o),
(270.545,-23.273,o),
(453.818,-23.273,cs)
);
},
{
closed = 1;
nodes = (
(288.,23.273,o),
(160.,133.818,o),
(160.,302.545,cs),
(160.,445.091,o),
(253.091,535.273,o),
(552.727,570.182,cs),
(680.727,584.727,o),
(779.636,605.091,o),
(834.909,645.818,c),
(834.909,477.091,ls),
(834.909,206.545,o),
(666.182,23.273,o),
(453.818,23.273,cs)
);
}
);
width = 1062;
},
{
anchors = (
{
name = bottom;
position = "{439, 0}";
},
{
name = ogonek;
position = "{788, 0}";
},
{
name = rhalfring;
position = "{656, 1303}";
},
{
name = top;
position = "{653, 1303}";
}
);
guides = (
{
angle = 90;
position = "{445.091, 0}";
}
);
layerId = "70E6EC48-9A24-4AD5-9BFE-11FF46F6DBD6";
shapes = (
{
closed = 1;
nodes = (
(868,663,l),
(519,636,ls),
(278,617,o),
(65,503,o),
(65,240,cs),
(65,70,o),
(193,-23,o),
(357,-23,cs),
(526,-23,o),
(679,76,o),
(774,227,c),
(780,227,l),
(742,0,l),
(788,0,l),
(922,803,ls),
(953,1010,o),
(822,1135,o),
(614,1135,cs),
(424,1135,o),
(249,1039,o),
(194,876,c),
(242,876,l),
(296,1014,o),
(444,1088,o),
(606,1088,cs),
(783,1088,o),
(906,984,o),
(876,803,cs),
(821,477,ls),
(776,207,o),
(577,23,o),
(365,23,cs),
(216,23,o),
(113,112,o),
(113,252,cs),
(113,491,o),
(321,575,o),
(530,592,cs),
(862,618,l)
);
}
);
width = 1062;
}
);
leftKerningGroup = a2;
rightKerningGroup = a;
unicode = 97;
}
{
glyphname = c;
layers = (
{
anchors = (
{
name = m.uni0327_3;
position = "{550, 0}";
},
{
name = top;
position = "{767, 1303}";
}
);
guides = (
{
angle = 90;
position = "{573, 0}";
}
);
layerId = "776CB2AD-1814-4C60-BC2D-56A98A3F851B";
shapes = (
{
closed = 1;
nodes = (
(875,-20,o),
(1109,169,o),
(1162,465,c),
(790,465,l),
(762,348,o),
(688,285,o),
(600,285,cs),
(494,285,o),
(440,375,o),
(471,559,cs),
(502,742,o),
(586,832,o),
(692,832,cs),
(781,832,o),
(830,769,o),
(822,652,c),
(1194,652,l),
(1240,943,o),
(1065,1132,o),
(736,1132,cs),
(372,1132,o),
(118,899,o),
(61,556,cs),
(3,212,o),
(180,-20,o),
(544,-20,cs)
);
}
);
width = 1242;
},
{
anchors = (
{
name = m.uni0327_3;
position = "{496, 0}";
},
{
name = top;
position = "{713, 1303}";
}
);
guides = (
{
angle = 90;
position = "{573, 0}";
}
);
layerId = "20DC6F22-D8D0-4CDE-BECF-0ED1E6480441";
shapes = (
{
closed = 1;
nodes = (
(745,-23,o),
(933,128,o),
(995,326,c),
(824,326,l),
(772,204,o),
(658,131,o),
(524,131,cs),
(320,131,o),
(217,300,o),
(260,559,cs),
(302,812,o),
(464,977,o),
(665,977,cs),
(816,977,o),
(890,884,o),
(900,783,c),
(1071,783,l),
(1077,992,o),
(924,1132,o),
(688,1132,cs),
(385,1132,o),
(145,893,o),
(88,553,cs),
(32,218,o),
(184,-23,o),
(498,-23,cs)
);
}
);
width = 1111;
},
{
anchors = (
{
name = m.uni0327_3;
position = "{471, 0}";
},
{
name = top;
position = "{688, 1303}";
}
);
guides = (
{
angle = 90;
position = "{573, 0}";
}
);
layerId = "72C9AAD8-EC9F-4272-847E-B53637FCE55F";
shapes = (
{
closed = 1;
nodes = (
(683,-23,o),
(871,115,o),
(938,326,c),
(889,326,l),
(832,143,o),
(665,23,o),
(487,23,cs),
(238,23,o),
(104,258,o),
(154,556,cs),
(204,861,o),
(423,1088,o),
(664,1088,cs),
(840,1088,o),
(963,967,o),
(964,791,c),
(1014,791,l),
(1013,995,o),
(872,1135,o),
(672,1135,cs),
(399,1135,o),
(162,883,o),
(108,556,c),
(52,225,o),
(208,-23,o),
(479,-23,cs)
);
}
);
width = 1085;
}
);
leftKerningGroup = public.kern2.c;
rightKerningGroup = public.kern1.b;
unicode = 99;
}
{
glyphname = d;
layers = (
{
anchors = (
{
name = m.uni0326;
position = "{717, 0}";
},
{
name = m.uni030F_1;
position = "{559, 1346}";
}
);
layerId = "04467604-8FE9-4714-B90C-9622AAE539FB";
shapes = (
{
closed = 1;
nodes = (
(321,-14,o),
(232,23,o),
(160,96,cs),
(88,169,o),
(52,279,o),
(52,426,cs),
(52,511,o),
(63,595,o),
(86,678,cs),
(108,761,o),
(141,837,o),
(185,906,cs),
(229,975,o),
(283,1030,o),
(348,1071,cs),
(413,1112,o),
(487,1132,o),
(572,1132,cs),
(631,1132,o),
(681,1122,o),
(722,1101,cs),
(763,1080,o),
(795,1052,o),
(819,1018,cs),
(842,984,o),
(858,948,o),
(866,910,c),
(876,910,l),
(972,1490,l),
(1374,1490,l),
(1127,0,l),
(729,0,l),
(763,184,l),
(750,184,l),
(729,141,o),
(702,105,o),
(671,76,cs),
(639,47,o),
(603,24,o),
(562,9,cs),
(521,-6,o),
(477,-14,o),
(428,-14,cs)
);
},
{
closed = 1;
nodes = (
(627,294,o),
(664,306,o),
(695,329,cs),
(726,352,o),
(753,382,o),
(774,419,cs),
(795,456,o),
(812,496,o),
(823,539,cs),
(834,582,o),
(839,623,o),
(839,663,cs),
(839,714,o),
(828,754,o),
(807,782,cs),
(786,810,o),
(755,824,o),
(714,824,cs),
(630,824,o),
(567,772,o),
(526,696,cs),
(485,620,o),
(464,529,o),
(464,450,cs),
(464,400,o),
(474,362,o),
(495,335,cs),
(515,308,o),
(545,294,o),
(586,294,cs)
);
}
);
width = 1322;
},
{
anchors = (
{
name = m.uni0326;
position = "{765, 0}";
},
{
name = m.uni030F_1;
position = "{629, 1388}";
}
);
layerId = "23EE5F7B-1869-4A94-9115-57B554FEB4FE";
shapes = (
{
closed = 1;
nodes = (
(370,-24,o),
(273,16,o),
(202,97,cs),
(130,177,o),
(94,286,o),
(94,425,cs),
(94,513,o),
(107,599,o),
(133,683,cs),
(158,767,o),
(196,843,o),
(245,911,cs),
(294,978,o),
(353,1032,o),
(424,1072,cs),
(494,1112,o),
(574,1132,o),
(663,1132,cs),
(737,1132,o),
(794,1120,o),
(835,1096,c),
(875,1071,o),
(905,1043,o),
(924,1012,cs),
(943,981,o),
(957,955,o),
(966,934,c),
(978,934,l),
(1070,1490,l),
(1251,1490,l),
(1004,0,l),
(829,0,l),
(859,173,l),
(840,173,l),
(824,150,o),
(802,123,o),
(775,92,cs),
(747,61,o),
(710,34,o),
(665,11,cs),
(619,-13,o),
(561,-24,o),
(492,-24,cs)
);
},
{
closed = 1;
nodes = (
(591,137,o),
(650,153,o),
(701,186,cs),
(752,219,o),
(794,262,o),
(828,316,cs),
(862,370,o),
(888,429,o),
(905,494,cs),
(922,559,o),
(931,623,o),
(931,686,cs),
(931,773,o),
(911,843,o),
(870,894,cs),
(829,945,o),
(767,971,o),
(684,971,cs),
(551,971,o),
(449,902,o),
(381,798,cs),
(312,693,o),
(276,562,o),
(276,435,cs),
(276,348,o),
(296,277,o),
(337,221,cs),
(377,165,o),
(439,137,o),
(524,137,cs)
);
}
);
width = 1255;
},
{
anchors = (
{
name = m.uni0326;
position = "{784, 0}";
},
{
name = m.uni030F_1;
position = "{695, 1430}";
}
);
layerId = "43DA4125-45C3-47AB-8F4B-FC6AC1251C13";
shapes = (
{
closed = 1;
nodes = (
(355,-24,o),
(269,17,o),
(208,98,cs),
(147,179,o),
(117,284,o),
(117,412,cs),
(117,495,o),
(129,578,o),
(154,663,cs),
(178,748,o),
(213,826,o),
(259,897,cs),
(305,968,o),
(361,1026,o),
(427,1069,cs),
(493,1112,o),
(568,1134,o),
(652,1134,cs),
(712,1134,o),
(765,1122,o),
(812,1098,cs),
(859,1073,o),
(897,1038,o),
(927,993,cs),
(956,948,o),
(975,894,o),
(984,832,c),
(991,832,l),
(1100,1490,l),
(1146,1490,l),
(899,0,l),
(853,0,l),
(900,280,l),
(894,280,l),
(864,218,o),
(827,164,o),
(783,119,cs),
(739,73,o),
(690,38,o),
(637,13,cs),
(583,-12,o),
(526,-24,o),
(467,-24,cs)
);
},
{
closed = 1;
nodes = (
(545,22,o),
(613,43,o),
(674,84,cs),
(735,125,o),
(786,178,o),
(829,245,cs),
(871,312,o),
(903,385,o),
(925,464,cs),
(947,543,o),
(958,620,o),
(958,696,cs),
(958,811,o),
(932,906,o),
(879,979,cs),
(826,1052,o),
(750,1088,o),
(651,1088,cs),
(500,1088,o),
(378,1000,o),
(294,868,cs),
(209,735,o),
(163,570,o),
(163,414,cs),
(163,299,o),
(189,205,o),
(242,132,cs),
(294,59,o),
(369,22,o),
(468,22,cs)
);
}
);
width = 1190;
}
);
leftKerningGroup = public.kern2.c;
rightKerningGroup = public.kern1.H;
unicode = 100;
}
{
glyphname = e;
layers = (
{
anchors = (
{
name = bottom;
position = "{530, 0}";
},
{
name = m.uni0327_3;
position = "{565, 0}";
},
{
name = ogonek;
position = "{872, 49}";
},
{
name = top;
position = "{747, 1303}";
}
);
guides = (
{
angle = 90;
position = "{573, 0}";
}
);
layerId = "776CB2AD-1814-4C60-BC2D-56A98A3F851B";
shapes = (
{
closed = 1;
nodes = (
(851,-20,o),
(1074,128,o),
(1151,361,c),
(784,361,l),
(750,297,o),
(679,262,o),
(597,262,cs),
(478,262,o),
(421,340,o),
(439,448,cs),
(478,687,l),
(496,783,o),
(587,849,o),
(685,849,cs),
(785,849,o),
(849,783,o),
(836,687,c),
(207,687,l),
(170,465,l),
(1168,465,l),
(1184,559,ls),
(1243,914,o),
(1062,1132,o),
(724,1132,cs),
(378,1132,o),
(118,902,o),
(61,556,cs),
(0,194,o),
(183,-20,o),
(541,-20,cs)
);
}
);
width = 1245;
},
{
anchors = (
{
name = bottom;
position = "{490, 0}";
},
{
name = m.uni0327_3;
position = "{503, 0}";
},
{
name = ogonek;
position = "{659, 0}";
},
{
name = top;
position = "{707, 1303}";
}
);
guides = (
{
angle = 90;
position = "{573, 0}";
}
);
layerId = "20DC6F22-D8D0-4CDE-BECF-0ED1E6480441";
shapes = (
{
closed = 1;
nodes = (
(739,-23,o),
(924,90,o),
(1005,259,c),
(820,259,l),
(766,189,o),
(673,131,o),
(538,131,cs),
(330,131,o),
(212,270,o),
(254,524,cs),
(271,623,ls),
(301,807,o),
(456,977,o),
(662,977,cs),
(848,977,o),
(944,838,o),
(912,649,c),
(226,649,l),
(201,500,l),
(1062,500,l),
(1074,573,ls),
(1144,989,o),
(921,1132,o),
(688,1132,cs),
(385,1132,o),
(145,893,o),
(88,550,cs),
(30,207,o),
(190,-23,o),
(512,-23,cs)
);
}
);
width = 1161;
},
{
anchors = (
{
name = bottom;
position = "{474, 0}";
},
{
name = m.uni0327_3;
position = "{505, 0}";
},
{
name = ogonek;
position = "{524, 0}";
},
{
name = top;
position = "{691, 1303}";
}
);
guides = (
{
angle = 90;
position = "{573, 0}";
}
);
layerId = "72C9AAD8-EC9F-4272-847E-B53637FCE55F";
shapes = (
{
closed = 1;
nodes = (
(714,-23,o),
(876,116,o),
(938,230,c),
(888,230,l),
(839,157,o),
(710,23,o),
(504,23,cs),
(223,23,o),
(106,268,o),
(154,561,cs),
(155,567,ls),
(205,864,o),
(428,1088,o),
(658,1088,cs),
(884,1088,o),
(1032,873,o),
(988,605,c),
(139,605,l),
(131,559,l),
(1027,559,l),
(1035,605,ls),
(1083,894,o),
(926,1135,o),
(666,1135,cs),
(402,1135,o),
(162,884,o),
(108,556,cs),
(53,227,o),
(203,-23,o),
(496,-23,cs)
);
}
);
width = 1135;
}
);
leftKerningGroup = public.kern2.c;
rightKerningGroup = public.kern1.b;
unicode = 101;
}
{
glyphname = f;
layers = (
{
anchors = (
{
name = m.uni0326;
position = "{428, 0}";
},
{
name = m.uni030F_1;
position = "{829, 1538}";
}
);
layerId = "34603D4A-9538-491D-AC31-753F00B30A17";
shapes = (
{
closed = 1;
nodes = (
(936,1118,l),
(887,826,l),
(64,826,l),
(113,1118,l)
);
},
{
closed = 1;
nodes = (
(121,0,l),
(301,1090,ls),
(318,1191,o),
(350,1277,o),
(397,1346,cs),
(491,1485,o),
(641,1558,o),
(840,1558,cs),
(916,1558,o),
(974,1553,o),
(1039,1536,c),
(941,1248,l),
(925,1251,o),
(910,1253,o),
(896,1254,cs),
(882,1255,o),
(862,1256,o),
(836,1256,cs),
(799,1256,o),
(771,1247,o),
(752,1230,cs),
(732,1213,o),
(719,1186,o),
(713,1150,cs),
(523,0,l)
);
}
);
width = 902;
},
{
anchors = (
{
name = m.uni0326;
position = "{468, 0}";
},
{
name = m.uni030F_1;
position = "{919, 1597}";
}
);
layerId = "85556A68-E3BA-4C8B-AB50-53608EAFDB0D";
shapes = (
{
closed = 1;
nodes = (
(780,1118,l),
(756,972,l),
(89,972,l),
(113,1118,l)
);
},
{
closed = 1;
nodes = (
(155,0,l),
(353,1195,ls),
(366,1274,o),
(390,1340,o),
(425,1395,cs),
(494,1503,o),
(605,1560,o),
(749,1560,cs),
(801,1560,o),
(846,1551,o),
(894,1540,c),
(844,1386,l),
(833,1389,o),
(815,1391,o),
(790,1392,cs),
(765,1393,o),
(743,1394,o),
(723,1394,cs),
(670,1394,o),
(628,1378,o),
(597,1346,cs),
(566,1314,o),
(545,1265,o),
(534,1198,cs),
(336,0,l)
);
}
);
width = 764;
},
{
anchors = (
{
name = m.uni0326;
position = "{344, 0}";
},
{
name = m.uni030F_1;
position = "{852, 1655}";
}
);
layerId = "0B13E480-0BFF-4E9F-8F40-D0AA519A66AF";
shapes = (
{
closed = 1;
nodes = (
(641,1118,l),
(633,1072,l),
(95,1072,l),
(103,1118,l)
);
},
{
closed = 1;
nodes = (
(136,0,l),
(351,1300,ls),
(360,1353,o),
(379,1398,o),
(409,1436,cs),
(469,1512,o),
(557,1556,o),
(648,1556,cs),
(684,1556,o),
(709,1551,o),
(736,1540,c),
(712,1499,l),
(701,1503,o),
(691,1506,o),
(681,1508,cs),
(671,1509,o),
(658,1510,o),
(641,1510,cs),
(586,1510,o),
(535,1491,o),
(487,1454,cs),
(438,1417,o),
(408,1365,o),
(397,1300,cs),
(182,0,l)
);
}
);
width = 594;
}
);
leftKerningGroup = f2;
rightKerningGroup = f;
unicode = 102;
}
{
glyphname = g;
layers = (
{
anchors = (
{
name = bottom;
position = "{478, -416}";
},
{
name = cross;
position = "{1025, 567}";
},
{
name = top;
position = "{764, 1303}";
}
);
layerId = "04467604-8FE9-4714-B90C-9622AAE539FB";
shapes = (
{
closed = 1;
nodes = (
(826,-442,o),
(1088,-281,o),
(1135,3,cs),
(1321,1117,l),
(919,1117,l),
(887,922,l),
(878,922,l),
(854,1036,o),
(765,1132,o),
(599,1132,cs),
(378,1132,o),
(134,963,o),
(67,559,cs),
(3,172,o),
(177,15,o),
(415,15,cs),
(566,15,o),
(697,79,o),
(759,192,c),
(771,192,l),
(739,3,ls),
(718,-129,o),
(634,-172,o),
(530,-172,cs),
(437,-172,o),
(375,-144,o),
(375,-73,c),
(-12,-73,l),
(-33,-288,o),
(137,-442,o),
(473,-442,cs)
);
},
{
closed = 1;
nodes = (
(501,300,o),
(452,393,o),
(480,559,cs),
(508,724,o),
(588,823,o),
(699,823,cs),
(809,823,o),
(860,724,o),
(832,559,cs),
(805,396,o),
(722,300,o),
(612,300,cs)
);
}
);
width = 1329;
},
{
anchors = (
{
name = bottom;
position = "{440, -442}";
},
{
name = cross;
position = "{994, 564}";
},
{
name = top;
position = "{733, 1303}";
}
);
layerId = "23EE5F7B-1869-4A94-9115-57B554FEB4FE";
shapes = (
{
closed = 1;
nodes = (
(695,-442,o),
(929,-320,o),
(977,-32,cs),
(1168,1117,l),
(1002,1117,l),
(973,940,l),
(956,940,l),
(927,998,o),
(880,1132,o),
(662,1132,cs),
(380,1132,o),
(149,916,o),
(91,573,cs),
(33,224,o),
(202,17,o),
(473,17,cs),
(691,17,o),
(782,145,o),
(830,207,c),
(844,207,l),
(807,-20,ls),
(776,-207,o),
(644,-291,o),
(451,-291,cs),
(291,-291,o),
(192,-233,o),
(188,-118,c),
(8,-118,l),
(-6,-326,o),
(157,-442,o),
(425,-442,cs)
);
},
{
closed = 1;
nodes = (
(307,172,o),
(223,335,o),
(261,567,cs),
(299,794,o),
(438,977,o),
(656,977,cs),
(866,977,o),
(948,809,o),
(907,567,cs),
(866,320,o),
(729,172,o),
(522,172,cs)
);
}
);
width = 1216;
},
{
anchors = (
{
name = bottom;
position = "{372, -436}";
},
{
name = cross;
position = "{945, 559}";
},
{
name = top;
position = "{697, 1303}";
}
);
layerId = "43DA4125-45C3-47AB-8F4B-FC6AC1251C13";
shapes = (
{
closed = 1;
nodes = (
(644,-442,o),
(826,-299,o),
(872,-23,cs),
(1062,1117,l),
(1015,1117,l),
(968,832,l),
(962,832,l),
(932,1018,o),
(815,1135,o),
(634,1135,cs),
(369,1135,o),
(163,887,o),
(108,556,cs),
(53,227,o),
(183,0,o),
(445,0,cs),
(611,0,o),
(780,93,o),
(869,279,c),
(875,279,l),
(825,-23,ls),
(783,-274,o),
(626,-396,o),
(394,-396,cs),
(226,-396,o),
(88,-332,o),
(75,-201,c),
(24,-201,l),
(38,-368,o),
(198,-442,o),
(386,-442,cs)
);
},
{
closed = 1;
nodes = (
(218,47,o),
(103,253,o),
(154,556,cs),
(204,858,o),
(389,1088,o),
(626,1088,cs),
(863,1088,o),
(972,858,o),
(922,556,cs),
(869,242,o),
(686,47,o),
(453,47,cs)
);
}
);
width = 1149;
}
);
leftKerningGroup = public.kern2.c;
rightKerningGroup = public.kern1.g;
unicode = 103;
}
{
glyphname = i;
layers = (
{
anchors = (
{
name = m.uni0326;
position = "{288, 0}";
},
{
name = m.uni030F_1;
position = "{556, 1637}";
},
{
name = m.uni0328_4;
position = "{601, 0}";
},
{
name = t.uni030F;
position = "{474, 1586}";
}
);
layerId = "FAC11FF2-8AA5-4867-8567-384AA135D88B";
shapes = (
{
closed = 1;
nodes = (
(9,0,l),
(195,1118,l),
(597,1118,l),
(411,0,l)
);
},
{
closed = 1;
nodes = (
(218,1256,l),
(257,1490,l),
(659,1490,l),
(620,1256,l)
);
}
);
width = 606;
},
{
anchors = (
{
name = m.uni0326;
position = "{326, 0}";
},
{
name = m.uni030F_1;
position = "{601, 1682}";
},
{
name = m.uni0328_4;
position = "{643, 0}";
},
{
name = t.uni030F;
position = "{405, 1490}";
}
);
layerId = "3D85B7E1-85F7-4D8B-A4DD-E195C561FF62";
shapes = (
{
closed = 1;
nodes = (
(65,0,l),
(251,1118,l),
(431,1118,l),
(245,0,l)
);
},
{
closed = 1;
nodes = (
(275,1294,l),
(307,1490,l),
(503,1490,l),
(471,1294,l)
);
}
);
width = 496;
},
{
anchors = (
{
name = m.uni0326;
position = "{281, 0}";
},
{
name = m.uni030F_1;
position = "{540, 1586}";
},
{
name = m.uni0328_4;
position = "{475, 0}";
},
{
name = t.uni030F;
position = "{366, 1434}";
}
);
layerId = "5DA1E196-784D-41F4-ABD2-5FC63B6ED9FB";
shapes = (
{
closed = 1;
nodes = (
(105,0,l),
(291,1118,l),
(337,1118,l),
(151,0,l)
);
},
{
closed = 1;
nodes = (
(315,1319,l),
(343,1490,l),
(407,1490,l),
(379,1319,l)
);
}
);
width = 442;
}
);
leftKerningGroup = i2;
rightKerningGroup = i;
unicode = 105;
}
{
glyphname = j;
layers = (
{
anchors = (
{
name = m.uni0326;
position = "{169, -336}";
},
{
name = m.uni030F_1;
position = "{473, 1118}";
},
{
name = t.uni030F;
position = "{475, 1586}";
}
);
layerId = "B92D097E-6F62-4818-9792-FACFD7690A0B";
shapes = (
{
closed = 1;
nodes = (
(195,1118,l),
(597,1118,l),
(405,-38,ls),
(388,-136,o),
(356,-213,o),
(305,-268,cs),
(205,-378,o),
(45,-418,o),
(-151,-418,cs),
(-233,-418,l),
(-183,-122,l),
(-137,-122,ls),
(-88,-122,o),
(-54,-115,o),
(-34,-100,cs),
(-14,-85,o),
(-1,-62,o),
(4,-30,cs)
);
},
{
closed = 1;
nodes = (
(219,1256,l),
(258,1490,l),
(660,1490,l),
(621,1256,l)
);
}
);
width = 606;
},
{
anchors = (
{
name = m.uni0326;
position = "{207, -333}";
},
{
name = m.uni030F_1;
position = "{521, 1180}";
},
{
name = t.uni030F;
position = "{404, 1490}";
}
);
layerId = "14A30E1C-002E-4EDB-A2B6-9D6791ECC38B";
shapes = (
{
closed = 1;
nodes = (
(250,1118,l),
(431,1118,l),
(232,-80,ls),
(221,-151,o),
(199,-211,o),
(165,-262,cs),
(100,-363,o),
(-8,-418,o),
(-153,-418,cs),
(-189,-418,l),
(-161,-252,l),
(-128,-252,ls),
(-76,-252,o),
(-35,-237,o),
(-7,-208,cs),
(22,-178,o),
(42,-135,o),
(51,-80,cs)
);
},
{
closed = 1;
nodes = (
(274,1294,l),
(306,1490,l),
(502,1490,l),
(470,1294,l)
);
}
);
width = 496;
},
{
anchors = (
{
name = m.uni0326;
position = "{237, -297}";
},
{
name = m.uni030F_1;
position = "{499, 1242}";
},
{
name = t.uni030F;
position = "{373, 1434}";
}
);
layerId = "536BEFF9-0CB2-44EC-980E-54189405B9DA";
shapes = (
{
closed = 1;
nodes = (
(297,1118,l),
(343,1118,l),
(130,-162,ls),
(121,-215,o),
(102,-260,o),
(72,-299,cs),
(12,-375,o),
(-77,-418,o),
(-169,-418,cs),
(-187,-418,l),
(-179,-372,l),
(-161,-372,ls),
(-106,-372,o),
(-54,-353,o),
(-5,-316,cs),
(44,-279,o),
(73,-227,o),
(84,-162,cs)
);
},
{
closed = 1;
nodes = (
(322,1319,l),
(350,1490,l),
(414,1490,l),
(386,1319,l)
);
}
);
width = 448;
}
);
leftKerningGroup = public.kern2.j;
rightKerningGroup = public.kern1.i;
unicode = 106;
}
{
glyphname = k;
layers = (
{
anchors = (
{
name = m.uni0326;
position = "{603, 0}";
},
{
name = m.uni030F_1;
position = "{532, 1490}";
}
);
layerId = "776CB2AD-1814-4C60-BC2D-56A98A3F851B";
shapes = (
{
closed = 1;
nodes = (
(413,264,l),
(492,742,l),
(548,742,l),
(880,1118,l),
(1332,1118,l),
(781,532,l),
(667,532,l)
);
},
{
closed = 1;
nodes = (
(9,0,l),
(256,1490,l),
(658,1490,l),
(411,0,l)
);
},
{
closed = 1;
nodes = (
(699,0,l),
(516,442,l),
(826,728,l),
(1157,0,l)
);
}
);
width = 1242;
},
{
anchors = (
{
name = m.uni0326;
position = "{634, 0}";
},
{
name = m.uni030F_1;
position = "{563, 1490}";
}
);
layerId = "20DC6F22-D8D0-4CDE-BECF-0ED1E6480441";
shapes = (
{
closed = 1;
nodes = (
(301,402,l),
(338,625,l),
(371,625,l),
(930,1118,l),
(1153,1118,l),
(548,587,l),
(528,587,l)
);
},
{
closed = 1;
nodes = (
(65,0,l),
(312,1490,l),
(492,1490,l),
(245,0,l)
);
},
{
closed = 1;
nodes = (
(772,0,l),
(434,547,l),
(584,674,l),
(1003,0,l)
);
}
);
width = 1125;
},
{
anchors = (
{
name = m.uni0326;
position = "{552, 0}";
},
{
name = m.uni030F_1;
position = "{513, 1490}";
}
);
layerId = "72C9AAD8-EC9F-4272-847E-B53637FCE55F";
shapes = (
{
closed = 1;
nodes = (
(213,450,l),
(227,531,l),
(245,531,l),
(936,1118,l),
(1002,1118,l),
(411,616,l),
(404,610,l)
);
},
{
closed = 1;
nodes = (
(105,0,l),
(352,1490,l),
(398,1490,l),
(151,0,l)
);
},
{
closed = 1;
nodes = (
(776,0,l),
(387,616,l),
(427,645,l),
(835,0,l)
);
}
);
width = 998;
}
);
leftKerningGroup = public.kern2.B2;
rightKerningGroup = public.kern1.k;
unicode = 107;
}
{
color = 9;
glyphname = l.ss02;
layers = (
{
anchors = (
{
name = bottom;
position = "{358, 0}";
},
{
name = cross;
position = "{303, 788}";
},
{
name = raccent;
position = "{620, 1489}";
},
{
name = top;
position = "{303, 1676}";
}
);
guides = (
{
angle = 90;
position = "{194.909, 0}";
}
);
layerId = "BB0697BF-1755-4D4E-9CDA-AEB5CAF7D87E";
associatedMasterId = "EF0863B1-A80B-4AC4-A80D-A5009A8E023C";
name = "Jul 10, 21 15:16";
shapes = (
{
closed = 1;
nodes = (
(101.818,325.818,l),
(102.545,77.091,o),
(232.727,-20.364,o),
(520.727,-5.818,cs),
(615.273,-0.727,o),
(653.818,12.364,o),
(686.545,23.273,c),
(628.364,299.636,l),
(618.909,296.,o),
(604.364,293.818,o),
(578.909,293.818,cs),
(530.182,293.818,o),
(504.,317.818,o),
(503.273,363.636,c),
(503.273,1489.455,l),
(101.818,1489.455,l)
);
}
);
width = 675;
},
{
anchors = (
{
name = _left;
position = "{126, 372}";
},
{
name = bottom;
position = "{265, 0}";
},
{
name = cross;
position = "{341, 788}";
},
{
name = raccent;
position = "{775, 1489}";
},
{
name = top;
position = "{489, 1676}";
}
);
background = {
shapes = (
{
closed = 1;
nodes = (
(608.,-10.182,o),
(669.818,-7.273,o),
(693.818,-4.364,c),
(693.818,290.909,l),
(682.182,288.,o),
(663.273,287.273,o),
(645.818,288.,c),
(560.727,287.273,o),
(523.636,314.909,o),
(523.636,379.636,cs),
(523.636,1582.546,l),
(101.818,1582.546,l),
(101.818,360.727,ls),
(101.818,126.545,o),
(272.727,-10.182,o),
(565.818,-10.182,cs)
);
}
);
};
guides = (
{
angle = 90;
position = "{194.909, 0}";
}
);
layerId = "EF0863B1-A80B-4AC4-A80D-A5009A8E023C";
shapes = (
{
closed = 1;
nodes = (
(257,1489,l),
(72,381,ls),
(23,87,o),
(206,0,o),
(500,0,cs),
(530,0,o),
(552,1,o),
(582,3,c),
(632,300,l),
(612,297,o),
(599,297,o),
(584,297,cs),
(488,297,o),
(464,325,o),
(475,390,cs),
(658,1489,l)
);
}
);
width = 675;
},
{
anchors = (
{
name = bottom;
position = "{289, 0}";
},
{
name = cross;
position = "{228, 768}";
},
{
name = raccent;
position = "{455, 1489}";
},
{
name = top;
position = "{225, 1676}";
}
);
layerId = "902E645F-C09B-469B-BD02-169E67EE1E8E";
associatedMasterId = "772355B8-E81A-4CAE-88E1-18D30E544C30";
name = "Jul 10, 21 15:16";
shapes = (
{
closed = 1;
nodes = (
(141.091,244.364,ls),
(141.091,85.091,o),
(222.545,-8.727,o),
(385.455,-8.727,cs),
(434.909,-8.727,o),
(483.636,0,o),
(513.455,8.727,c),
(478.545,157.091,l),
(461.818,152.,o),
(446.545,146.909,o),
(405.818,145.455,cs),
(330.182,143.273,o),
(312.727,182.545,o),
(312.727,290.909,cs),
(312.727,1489.455,l),
(141.091,1489.455,l)
);
}
);
width = 497;
},
{
anchors = (
{
name = _left;
position = "{-35, 372}";
},
{
name = bottom;
position = "{196, 0}";
},
{
name = cross;
position = "{263, 768}";
},
{
name = raccent;
position = "{610, 1489}";
},
{
name = top;
position = "{411, 1676}";
}
);
background = {
shapes = (
{
closed = 1;
nodes = (
(515.636,-10.182,l),
(515.636,141.091,l),
(490.182,141.091,ls),
(368.,141.091,o),
(321.455,184.727,o),
(321.455,309.091,cs),
(321.455,1549.091,l),
(150.545,1549.091,l),
(150.545,312.,ls),
(150.545,85.818,o),
(258.182,-10.182,o),
(485.818,-10.182,cs)
);
}
);
};
layerId = "772355B8-E81A-4CAE-88E1-18D30E544C30";
shapes = (
{
closed = 1;
nodes = (
(296,1489,l),
(104,337,l),
(70,131,o),
(153,0,o),
(368,0,cs),
(380,0,o),
(391,0,o),
(403,0,c),
(430,160,l),
(418,160,o),
(410,160,o),
(398,160,cs),
(293,160,o),
(257,224,o),
(276,337,c),
(468,1489,l)
);
}
);
width = 496;
},
{
anchors = (
{
name = bottom;
position = "{271, 0}";
},
{
name = cross;
position = "{198, 768}";
},
{
name = raccent;
position = "{358, 1489}";
},
{
name = top;
position = "{198, 1676}";
}
);
guides = (
{
angle = 90;
position = "{122.182, 0}";
}
);
layerId = "2B6DA961-29E5-49F8-AFA0-7FBC48A91B2D";
associatedMasterId = "F09EDC10-DC28-4948-8673-8B4992B77282";
name = "Jul 10, 21 15:16";
shapes = (
{
closed = 1;
nodes = (
(174.545,180.364,ls),
(174.545,24.727,o),
(263.273,-26.182,o),
(401.455,2.909,cs),
(407.273,4.364,o),
(418.909,8.727,o),
(418.909,8.727,c),
(407.273,52.364,l),
(407.273,52.364,o),
(404.364,50.909,o),
(398.545,49.455,cs),
(293.091,24.727,o),
(221.091,49.455,o),
(221.091,180.364,cs),
(221.091,1489.455,l),
(174.545,1489.455,l)
);
}
);
width = 404;
},
{
anchors = (
{
name = _left;
position = "{-115, 372}";
},
{
name = bottom;
position = "{172, 0}";
},
{
name = cross;
position = "{227, 768}";
},
{
name = raccent;
position = "{507, 1489}";
},
{
name = top;
position = "{378, 1676}";
}
);
guides = (
{
angle = 90;
position = "{116.364, 0}";
}
);
layerId = "F09EDC10-DC28-4948-8673-8B4992B77282";
shapes = (
{
closed = 1;
nodes = (
(330,1489,l),
(125,256,ls),
(98,99,o),
(201,0,o),
(338,0,cs),
(343,0,o),
(348,0,o),
(355,0,c),
(363,47,l),
(357,47,o),
(351,47,o),
(346,47,cs),
(235,47,o),
(149,126,o),
(171,256,cs),
(376,1489,l)
);
}
);
width = 448;
}
);
unicode = 108;
}
{
glyphname = m;
layers = (
{
anchors = (
{
name = m.uni0326;
position = "{958, 0}";
},
{
name = m.uni030F_1;
position = "{1143, 1118}";
}
);
layerId = "BF2F17A8-34C3-4EBA-8163-9D00BAFD6277";
shapes = (
{
closed = 1;
nodes = (
(9,0,l),
(195,1118,l),
(561,1118,l),
(538,816,l),
(509,829,l),
(540,905,o),
(575,965,o),
(616,1009,cs),
(697,1097,o),
(793,1132,o),
(888,1132,cs),
(945,1132,o),
(992,1120,o),
(1030,1095,cs),
(1105,1046,o),
(1146,942,o),
(1158,771,c),
(1118,797,l),
(1151,882,o),
(1191,949,o),
(1238,998,cs),
(1331,1095,o),
(1440,1132,o),
(1544,1132,cs),
(1619,1132,o),
(1682,1115,o),
(1734,1082,cs),
(1837,1015,o),
(1885,894,o),
(1860,741,cs),
(1737,0,l),
(1335,0,l),
(1446,665,ls),
(1451,698,o),
(1451,725,o),
(1446,746,c),
(1434,788,o),
(1403,808,o),
(1354,808,cs),
(1323,808,o),
(1295,801,o),
(1269,786,cs),
(1217,757,o),
(1182,704,o),
(1171,639,cs),
(1065,0,l),
(681,0,l),
(792,665,ls),
(800,714,o),
(796,750,o),
(779,773,cs),
(762,796,o),
(736,808,o),
(700,808,cs),
(669,808,o),
(640,801,o),
(615,786,c),
(563,757,o),
(528,704,o),
(517,639,cs),
(411,0,l)
);
}
);
width = 1932;
},
{
anchors = (
{
name = m.uni0326;
position = "{989, 0}";
},
{
name = m.uni030F_1;
position = "{1185, 1180}";
}
);
layerId = "074E11EA-331B-4F91-A771-D63337ECF1B1";
shapes = (
{
closed = 1;
nodes = (
(65,0,l),
(251,1118,l),
(426,1118,l),
(386,868,l),
(371,873,l),
(396,934,o),
(429,985,o),
(468,1024,cs),
(546,1102,o),
(640,1138,o),
(732,1138,cs),
(789,1138,o),
(837,1126,o),
(875,1101,cs),
(951,1052,o),
(988,965,o),
(991,860,c),
(969,872,l),
(992,927,o),
(1023,975,o),
(1064,1015,cs),
(1145,1094,o),
(1254,1138,o),
(1369,1138,cs),
(1436,1138,o),
(1494,1124,o),
(1544,1095,cs),
(1644,1037,o),
(1696,921,o),
(1667,748,cs),
(1543,0,l),
(1362,0,l),
(1488,756,ls),
(1497,810,o),
(1495,853,o),
(1480,885,cs),
(1450,949,o),
(1386,974,o),
(1311,974,cs),
(1258,974,o),
(1210,963,o),
(1168,941,cs),
(1084,896,o),
(1030,817,o),
(1014,724,cs),
(894,0,l),
(714,0,l),
(842,773,ls),
(853,836,o),
(841,886,o),
(807,921,cs),
(773,956,o),
(727,974,o),
(668,974,cs),
(623,974,o),
(578,964,o),
(535,943,cs),
(448,901,o),
(381,817,o),
(361,697,cs),
(245,0,l)
);
}
);
width = 1794;
},
{
anchors = (
{
name = m.uni0326;
position = "{975, 0}";
},
{
name = m.uni030F_1;
position = "{1181, 1242}";
}
);
layerId = "B31D44BF-3352-4B16-8DB9-CDCEC9E4DE37";
shapes = (
{
closed = 1;
nodes = (
(105,0,l),
(291,1118,l),
(337,1118,l),
(293,854,l),
(277,856,l),
(303,922,o),
(337,975,o),
(380,1016,cs),
(465,1097,o),
(571,1134,o),
(668,1134,cs),
(724,1134,o),
(773,1122,o),
(814,1099,cs),
(897,1051,o),
(944,961,o),
(943,836,c),
(925,840,l),
(948,903,o),
(981,956,o),
(1022,1000,cs),
(1104,1087,o),
(1212,1134,o),
(1328,1134,cs),
(1399,1134,o),
(1457,1118,o),
(1503,1087,cs),
(1595,1024,o),
(1634,907,o),
(1607,748,cs),
(1483,0,l),
(1437,0,l),
(1562,752,ls),
(1574,824,o),
(1572,885,o),
(1557,935,cs),
(1526,1035,o),
(1446,1088,o),
(1327,1088,cs),
(1266,1088,o),
(1209,1075,o),
(1155,1048,cs),
(1046,995,o),
(965,892,o),
(941,748,cs),
(817,0,l),
(771,0,l),
(896,752,ls),
(914,860,o),
(902,943,o),
(860,1001,cs),
(818,1059,o),
(754,1088,o),
(667,1088,cs),
(604,1088,o),
(544,1073,o),
(489,1044,cs),
(378,985,o),
(298,880,o),
(275,748,cs),
(151,0,l)
);
}
);
width = 1774;
}
);
leftKerningGroup = m;
rightKerningGroup = a;
unicode = 109;
}
{
glyphname = n;
layers = (
{
anchors = (
{
name = m.uni0326;
position = "{643, 0}";
},
{
name = m.uni030F_1;
position = "{829, 1118}";
}
);
layerId = "04467604-8FE9-4714-B90C-9622AAE539FB";
shapes = (
{
closed = 1;
nodes = (
(411,0,l),
(9,0,l),
(195,1118,l),
(571,1118,l),
(535,832,l),
(519,845,l),
(558,930,o),
(610,999,o),
(673,1052,cs),
(736,1105,o),
(815,1132,o),
(912,1132,cs),
(995,1132,o),
(1064,1113,o),
(1119,1075,cs),
(1230,998,o),
(1279,862,o),
(1251,699,cs),
(1135,0,l),
(733,0,l),
(840,641,ls),
(849,696,o),
(842,738,o),
(817,765,cs),
(792,792,o),
(756,806,o),
(711,806,cs),
(675,806,o),
(643,798,o),
(616,782,cs),
(560,749,o),
(525,690,o),
(513,615,cs)
);
}
);
width = 1330;
},
{
anchors = (
{
name = m.uni0326;
position = "{682, 0}";
},
{
name = m.uni030F_1;
position = "{880, 1180}";
}
);
layerId = "23EE5F7B-1869-4A94-9115-57B554FEB4FE";
shapes = (
{
closed = 1;
nodes = (
(245,0,l),
(65,0,l),
(251,1118,l),
(424,1118,l),
(380,847,l),
(354,853,l),
(404,954,o),
(463,1026,o),
(531,1069,cs),
(599,1111,o),
(675,1132,o),
(758,1132,cs),
(835,1132,o),
(901,1116,o),
(954,1084,cs),
(1061,1020,o),
(1109,893,o),
(1077,704,cs),
(960,0,l),
(779,0,l),
(896,701,ls),
(911,788,o),
(900,855,o),
(865,901,cs),
(829,947,o),
(773,970,o),
(698,970,cs),
(643,970,o),
(592,958,o),
(544,934,cs),
(448,885,o),
(377,792,o),
(356,664,cs)
);
}
);
width = 1211;
},
{
anchors = (
{
name = m.uni0326;
position = "{689, 0}";
},
{
name = m.uni030F_1;
position = "{902, 1242}";
}
);
layerId = "43DA4125-45C3-47AB-8F4B-FC6AC1251C13";
shapes = (
{
closed = 1;
nodes = (
(152,0,l),
(106,0,l),
(291,1118,l),
(337,1118,l),
(297,878,l),
(285,878,l),
(324,963,o),
(382,1027,o),
(460,1070,cs),
(538,1113,o),
(619,1134,o),
(704,1134,cs),
(781,1134,o),
(846,1118,o),
(899,1086,cs),
(1005,1021,o),
(1055,903,o),
(1030,750,cs),
(906,0,l),
(860,0,l),
(984,750,ls),
(1001,851,o),
(984,933,o),
(933,995,cs),
(882,1057,o),
(805,1088,o),
(704,1088,cs),
(635,1088,o),
(570,1074,o),
(509,1045,cs),
(387,987,o),
(297,881,o),
(276,750,cs)
);
}
);
width = 1197;
}
);
leftKerningGroup = public.kern2.m;
rightKerningGroup = public.kern1.a;
unicode = 110;
}
{
glyphname = r;
layers = (
{
layerId = "776CB2AD-1814-4C60-BC2D-56A98A3F851B";
shapes = (
{
closed = 1;
nodes = (
(9,0,l),
(195,1118,l),
(585,1118,l),
(550,905,l),
(561,905,l),
(595,984,o),
(637,1041,o),
(687,1078,cs),
(736,1114,o),
(791,1132,o),
(852,1132,cs),
(909,1132,o),
(964,1118,o),
(1004,1091,c),
(835,762,l),
(804,777,o),
(770,791,o),
(727,791,cs),
(695,791,o),
(664,783,o),
(633,766,cs),
(571,732,o),
(523,667,o),
(506,582,c),
(410,0,l)
);
}
);
width = 916;
},
{
layerId = "20DC6F22-D8D0-4CDE-BECF-0ED1E6480441";
shapes = (
{
closed = 1;
nodes = (
(64,0,l),
(250,1118,l),
(416,1118,l),
(387,948,l),
(399,948,l),
(428,1003,o),
(472,1048,o),
(531,1083,cs),
(590,1118,o),
(653,1135,o),
(721,1135,cs),
(782,1135,o),
(826,1119,o),
(855,1094,c),
(774,951,l),
(754,963,o),
(722,969,o),
(678,969,cs),
(623,969,o),
(573,958,o),
(527,935,cs),
(434,889,o),
(368,808,o),
(352,707,cs),
(236,0,l)
);
}
);
width = 785;
},
{
layerId = "72C9AAD8-EC9F-4272-847E-B53637FCE55F";
shapes = (
{
closed = 1;
nodes = (
(105,0,l),
(291,1118,l),
(337,1118,l),
(308,940,l),
(314,940,l),
(349,998,o),
(400,1045,o),
(466,1080,cs),
(532,1115,o),
(604,1132,o),
(681,1132,cs),
(728,1132,o),
(771,1123,o),
(803,1111,c),
(780,1068,l),
(751,1079,o),
(716,1085,o),
(672,1085,cs),
(606,1085,o),
(545,1071,o),
(489,1042,cs),
(377,985,o),
(297,880,o),
(276,751,cs),
(151,0,l)
);
}
);
width = 742;
}
);
leftKerningGroup = public.kern2.m;
rightKerningGroup = public.kern1.r;
unicode = (114,57439);
}
{
glyphname = s;
layers = (
{
anchors = (
{
name = bottom;
position = "{512, 0}";
},
{
name = m.uni0327_3;
position = "{521, 0}";
},
{
name = top;
position = "{729, 1303}";
}
);
guides = (
{
angle = 90;
position = "{515, 0}";
}
);
layerId = "776CB2AD-1814-4C60-BC2D-56A98A3F851B";
shapes = (
{
closed = 1;
nodes = (
(1155,753,l),
(1186,1033,o),
(924,1137,o),
(688,1137,cs),
(408,1137,o),
(108,992,o),
(108,706,cs),
(108,565,o),
(205,474,o),
(399,439,cs),
(591,404,ls),
(676,388,o),
(711,365,o),
(706,323,c),
(696,276,o),
(639,250,o),
(566,250,cs),
(475,250,o),
(417,289,o),
(418,361,c),
(19,361,l),
(3,132,o),
(176,-20,o),
(518,-20,cs),
(776,-20,o),
(1124,112,o),
(1124,421,cs),
(1124,556,o),
(1028,636,o),
(831,672,cs),
(611,713,ls),
(528,728,o),
(509,759,o),
(516,791,c),
(523,838,o),
(584,864,o),
(653,864,cs),
(732,864,o),
(792,822,o),
(785,753,c)
);
}
);
width = 1204;
},
{
anchors = (
{
name = bottom;
position = "{438, 0}";
},
{
name = m.uni0327_3;
position = "{435, 0}";
},
{
name = top;
position = "{661, 1303}";
}
);
guides = (
{
angle = 90;
position = "{515, 0}";
}
);
layerId = "20DC6F22-D8D0-4CDE-BECF-0ED1E6480441";
shapes = (
{
closed = 1;
nodes = (
(976,828,l),
(981,1009,o),
(859,1132,o),
(630,1132,cs),
(412,1132,o),
(161,1000,o),
(161,755,cs),
(161,631,o),
(246,543,o),
(411,503,cs),
(572,464,ls),
(681,437,o),
(731,393,o),
(731,328,cs),
(731,179,o),
(561,128,o),
(439,128,cs),
(297,128,o),
(225,181,o),
(223,291,c),
(44,291,l),
(39,88,o),
(169,-23,o),
(416,-23,cs),
(649,-23,o),
(914,98,o),
(914,365,cs),
(914,490,o),
(830,571,o),
(662,614,cs),
(503,655,ls),
(389,684,o),
(335,729,o),
(335,793,cs),
(335,923,o),
(497,983,o),
(605,983,cs),
(737,983,o),
(797,921,o),
(806,828,c)
);
}
);
width = 1039;
},
{
anchors = (
{
name = bottom;
position = "{399, 0}";
},
{
name = m.uni0327_3;
position = "{396, 0}";
},
{
name = top;
position = "{619, 1303}";
}
);
guides = (
{
angle = 90;
position = "{515, 0}";
}
);
layerId = "72C9AAD8-EC9F-4272-847E-B53637FCE55F";
shapes = (
{
closed = 1;
nodes = (
(897,876,l),
(893,1026,o),
(785,1135,o),
(596,1135,cs),
(397,1135,o),
(197,1007,o),
(197,792,cs),
(197,678,o),
(271,596,o),
(416,559,cs),
(584,515,ls),
(704,484,o),
(763,415,o),
(763,322,cs),
(763,121,o),
(571,23,o),
(391,23,cs),
(212,23,o),
(111,108,o),
(111,262,c),
(62,262,l),
(59,82,o),
(179,-23,o),
(383,-23,cs),
(592,-23,o),
(810,103,o),
(810,332,cs),
(810,444,o),
(741,526,o),
(602,561,c),
(436,605,ls),
(307,639,o),
(245,706,o),
(245,801,cs),
(245,984,o),
(420,1088,o),
(588,1088,cs),
(744,1088,o),
(842,1007,o),
(847,876,c)
);
}
);
width = 963;
}
);
leftKerningGroup = public.kern2.s2;
rightKerningGroup = public.kern1.s;
unicode = 115;
}
{
color = (153, 213, 255, 255);
glyphname = t;
layers = (
{
anchors = (
{
name = raccent;
position = "{846, 1519}";
},
{
name = bottom;
position = "{358, 0}";
},
{
name = cedilla;
position = "{461, 0}";
},
{
name = top;
position = "{522, 1499}";
}
);
guides = (
{
angle = 90;
position = "{260.243, 0}";
},
{
angle = 90;
position = "{260.243, 0}";
},
{
position = "{0, 1425.68}";
}
);
layerId = "EF0863B1-A80B-4AC4-A80D-A5009A8E023C";
shapes = (
{
closed = 1;
nodes = (
(124,1118,l),
(77,835,l),
(793,835,l),
(840,1118,l)
);
},
{
closed = 1;
nodes = (
(129,313,l),
(88,85,o),
(212,-16,o),
(481,-16,cs),
(569,-16,o),
(632,-8,o),
(668,-3,c),
(716,287,l),
(672,284,o),
(615,280,o),
(588,281,cs),
(537,284,o),
(518,304,o),
(525,349,cs),
(691,1346,l),
(301,1346,l)
);
}
);
width = 806;
},
{
anchors = (
{
name = raccent;
position = "{658, 1519}";
},
{
name = bottom;
position = "{296, 0}";
},
{
name = cedilla;
position = "{378, 0}";
},
{
name = top;
position = "{444, 1448}";
}
);
guides = (
{
angle = 90;
position = "{588.376, 0}";
},
{
angle = 90;
position = "{280.044, 0}";
}
);
layerId = "772355B8-E81A-4CAE-88E1-18D30E544C30";
shapes = (
{
closed = 1;
nodes = (
(140,1118,l),
(117,977,l),
(680,977,l),
(703,1118,l)
);
},
{
closed = 1;
nodes = (
(162,266,ls),
(131,76,o),
(268,-14,o),
(410,-14,cs),
(459,-14,o),
(502,-11,o),
(530,-6,c),
(556,151,l),
(531,149,o),
(485,147,o),
(453,147,cs),
(379,147,o),
(313,170,o),
(337,311,cs),
(509,1346,l),
(342,1346,l)
);
}
);
width = 693;
},
{
anchors = (
{
name = raccent;
position = "{580, 1519}";
},
{
name = bottom;
position = "{309, 0}";
},
{
name = cedilla;
position = "{331, 0}";
},
{
name = top;
position = "{408, 1448}";
}
);
guides = (
{
angle = 90;
position = "{186.696, 0}";
}
);
layerId = "F09EDC10-DC28-4948-8673-8B4992B77282";
shapes = (
{
closed = 1;
nodes = (
(172,1118,l),
(165,1073,l),
(595,1073,l),
(602,1118,l)
);
},
{
closed = 1;
nodes = (
(183,229,ls),
(158,76,o),
(257,-20,o),
(391,-20,cs),
(424,-20,o),
(437,-19,o),
(450,-18,c),
(457,27,l),
(440,26,o),
(411,25,o),
(398,25,cs),
(289,25,o),
(207,103,o),
(228,229,cs),
(414,1346,l),
(369,1346,l)
);
}
);
width = 648;
}
);
leftKerningGroup = t2;
rightKerningGroup = t;
unicode = 116;
}
{
glyphname = u;
layers = (
{
anchors = (
{
name = m.uni0326;
position = "{677, 0}";
},
{
name = m.uni030F_1;
position = "{831, 1118}";
},
{
name = m.uni0328_4;
position = "{1321, 0}";
}
);
layerId = "0C8A2A23-4AE2-454C-AEC2-B13207615F2B";
shapes = (
{
closed = 1;
nodes = (
(319,-14,o),
(254,4,o),
(201,40,cs),
(96,112,o),
(50,243,o),
(77,406,cs),
(195,1118,l),
(597,1118,l),
(493,490,ls),
(484,435,o),
(491,391,o),
(514,360,cs),
(537,328,o),
(573,312,o),
(624,312,cs),
(657,312,o),
(687,319,o),
(714,334,cs),
(766,362,o),
(803,417,o),
(815,490,cs),
(919,1118,l),
(1321,1118,l),
(1136,0,l),
(759,0,l),
(798,286,l),
(810,286,l),
(771,201,o),
(718,130,o),
(652,73,cs),
(585,15,o),
(501,-14,o),
(398,-14,cs)
);
}
);
width = 1331;
},
{
anchors = (
{
name = m.uni0326;
position = "{710, 0}";
},
{
name = m.uni030F_1;
position = "{881, 1180}";
},
{
name = m.uni0328_4;
position = "{1375, 0}";
}
);
layerId = "70700972-0F8E-4D63-A70C-6AC279DB2638";
shapes = (
{
closed = 1;
nodes = (
(368,-14,o),
(305,1,o),
(254,32,cs),
(150,93,o),
(103,219,o),
(134,408,cs),
(251,1118,l),
(431,1118,l),
(317,423,ls),
(303,338,o),
(314,271,o),
(351,222,cs),
(387,173,o),
(444,148,o),
(523,148,cs),
(576,148,o),
(625,160,o),
(672,183,cs),
(764,229,o),
(834,319,o),
(855,448,cs),
(965,1118,l),
(1146,1118,l),
(961,0,l),
(787,0,l),
(832,271,l),
(856,271,l),
(805,166,o),
(744,93,o),
(673,50,cs),
(602,7,o),
(526,-14,o),
(443,-14,cs)
);
}
);
width = 1212;
},
{
anchors = (
{
name = m.uni0326;
position = "{701, 0}";
},
{
name = m.uni030F_1;
position = "{898, 1242}";
},
{
name = m.uni0328_4;
position = "{1314, 0}";
}
);
layerId = "70E6EC48-9A24-4AD5-9BFE-11FF46F6DBD6";
shapes = (
{
closed = 1;
nodes = (
(425,-16,o),
(360,0,o),
(305,33,cs),
(196,97,o),
(142,216,o),
(167,368,cs),
(291,1118,l),
(337,1118,l),
(213,368,ls),
(196,267,o),
(215,185,o),
(269,123,cs),
(322,61,o),
(400,30,o),
(501,30,cs),
(570,30,o),
(635,45,o),
(695,74,cs),
(814,132,o),
(900,237,o),
(921,368,cs),
(1045,1118,l),
(1091,1118,l),
(906,0,l),
(860,0,l),
(900,240,l),
(912,240,l),
(873,155,o),
(817,91,o),
(742,48,cs),
(667,5,o),
(586,-16,o),
(501,-16,cs)
);
}
);
width = 1197;
}
);
leftKerningGroup = u2;
rightKerningGroup = u;
unicode = 117;
}
{
glyphname = v;
layers = (
{
anchors = (
{
name = m.uni0326;
position = "{635, 0}";
},
{
name = m.uni030F_1;
position = "{809, 1118}";
}
);
layerId = "B1221E90-548C-4905-8880-9EE25E37C96B";
shapes = (
{
closed = 1;
nodes = (
(318,0,l),
(105,1118,l),
(511,1118,l),
(572,608,ls),
(591,457,o),
(594,304,o),
(597,120,c),
(534,120,l),
(597,304,o),
(650,456,o),
(718,608,cs),
(943,1118,l),
(1375,1118,l),
(790,0,l)
);
}
);
width = 1294;
},
{
anchors = (
{
name = m.uni0326;
position = "{682, 0}";
},
{
name = m.uni030F_1;
position = "{866, 1180}";
}
);
layerId = "072C83FE-E797-476D-AD14-FFA4AF9D5A34";
shapes = (
{
closed = 1;
nodes = (
(389,0,l),
(147,1118,l),
(335,1118,l),
(464,455,ls),
(491,318,o),
(500,179,o),
(517,51,c),
(451,51,l),
(511,179,o),
(564,316,o),
(637,455,cs),
(985,1118,l),
(1190,1118,l),
(578,0,l)
);
}
);
width = 1151;
},
{
anchors = (
{
name = m.uni0326;
position = "{686, 0}";
},
{
name = m.uni030F_1;
position = "{880, 1242}";
}
);
layerId = "E51591BD-FE93-453F-89B8-2F40CEFC943D";
shapes = (
{
closed = 1;
nodes = (
(435,0,l),
(193,1118,l),
(239,1118,l),
(409,336,l),
(432,235,o),
(450,131,o),
(474,30,c),
(461,30,l),
(520,131,o),
(572,235,o),
(628,336,cs),
(1056,1118,l),
(1107,1118,l),
(495,0,l)
);
}
);
width = 1114;
}
);
leftKerningGroup = public.kern2.v2;
rightKerningGroup = public.kern1.v;
unicode = 118;
}
{
glyphname = w;
layers = (
{
anchors = (
{
name = m.uni0326;
position = "{922, 0}";
},
{
name = m.uni030F_1;
position = "{1115, 1118}";
}
);
layerId = "BF2F17A8-34C3-4EBA-8163-9D00BAFD6277";
shapes = (
{
closed = 1;
nodes = (
(228,0,l),
(91,1118,l),
(511,1118,l),
(517,768,ls),
(520,608,o),
(530,432,o),
(521,224,c),
(484,224,l),
(551,432,o),
(624,609,o),
(684,768,cs),
(817,1118,l),
(1165,1118,l),
(1178,768,ls),
(1185,608,o),
(1202,432,o),
(1198,224,c),
(1163,224,l),
(1222,432,o),
(1285,608,o),
(1341,768,cs),
(1463,1118,l),
(1891,1118,l),
(1380,0,l),
(968,0,l),
(923,368,ls),
(919,403,o),
(916,447,o),
(915,499,cs),
(913,550,o),
(911,603,o),
(910,656,cs),
(909,709,o),
(906,754,o),
(903,792,c),
(967,792,l),
(951,754,o),
(934,709,o),
(915,656,cs),
(896,603,o),
(878,550,o),
(859,499,cs),
(840,447,o),
(823,403,o),
(807,368,cs),
(640,0,l)
);
}
);
width = 1796;
},
{
anchors = (
{
name = m.uni0326;
position = "{986, 0}";
},
{
name = m.uni030F_1;
position = "{1189, 1180}";
}
);
layerId = "074E11EA-331B-4F91-A771-D63337ECF1B1";
shapes = (
{
closed = 1;
nodes = (
(317,0,l),
(163,1118,l),
(354,1118,l),
(409,630,ls),
(424,497,o),
(440,332,o),
(448,117,c),
(417,117,l),
(490,321,o),
(559,487,o),
(622,630,cs),
(837,1118,l),
(1029,1118,l),
(1080,630,ls),
(1095,497,o),
(1108,332,o),
(1115,117,c),
(1083,117,l),
(1158,322,o),
(1227,486,o),
(1291,630,cs),
(1508,1118,l),
(1699,1118,l),
(1175,0,l),
(996,0,l),
(935,506,ls),
(930,553,o),
(924,603,o),
(919,656,cs),
(914,709,o),
(909,764,o),
(905,822,cs),
(900,879,o),
(896,938,o),
(892,998,c),
(931,998,l),
(908,939,o),
(884,881,o),
(861,824,cs),
(837,767,o),
(814,711,o),
(791,658,cs),
(768,605,o),
(746,554,o),
(724,505,cs),
(496,0,l)
);
}
);
width = 1676;
},
{
anchors = (
{
name = m.uni0326;
position = "{1009, 0}";
},
{
name = m.uni030F_1;
position = "{1222, 1242}";
}
);
layerId = "B31D44BF-3352-4B16-8DB9-CDCEC9E4DE37";
shapes = (
{
closed = 1;
nodes = (
(323,0,l),
(182,1118,l),
(229,1118,l),
(334,288,ls),
(345,197,o),
(355,115,o),
(364,24,c),
(354,24,l),
(397,115,o),
(437,199,o),
(482,288,cs),
(891,1118,l),
(951,1118,l),
(1086,288,ls),
(1101,199,o),
(1113,115,o),
(1126,24,c),
(1116,24,l),
(1156,115,o),
(1193,197,o),
(1234,288,cs),
(1613,1118,l),
(1660,1118,l),
(1149,0,l),
(1085,0,l),
(945,864,ls),
(941,891,o),
(937,917,o),
(933,943,cs),
(929,968,o),
(925,994,o),
(921,1020,cs),
(917,1045,o),
(913,1071,o),
(909,1098,c),
(927,1098,l),
(914,1071,o),
(902,1045,o),
(889,1020,cs),
(876,994,o),
(864,968,o),
(852,943,cs),
(839,917,o),
(826,891,o),
(813,864,cs),
(387,0,l)
);
}
);
width = 1656;
}
);
leftKerningGroup = w2;
rightKerningGroup = w;
unicode = 119;
}
{
glyphname = y;
layers = (
{
anchors = (
{
name = bottom;
position = "{918, 0}";
},
{
name = ogonek;
position = "{647, -419}";
},
{
name = top;
position = "{741, 1303}";
}
);
guides = (
{
angle = 90;
position = "{532, 0}";
}
);
layerId = "B1221E90-548C-4905-8880-9EE25E37C96B";
shapes = (
{
closed = 1;
nodes = (
(464,-419,o),
(620,-278,o),
(712,-93,cs),
(1321,1117,l),
(899,1117,l),
(587,343,l),
(575,343,l),
(524,1117,l),
(105,1117,l),
(303,-49,l),
(293,-67,l),
(265,-113,o),
(225,-119,o),
(172,-119,cs),
(127,-119,o),
(76,-119,o),
(22,-115,c),
(-28,-413,l),
(25,-417,o),
(93,-419,o),
(169,-419,cs)
);
}
);
width = 1239;
},
{
anchors = (
{
name = bottom;
position = "{730, -49}";
},
{
name = ogonek;
position = "{544, -419}";
},
{
name = top;
position = "{678, 1303}";
}
);
guides = (
{
angle = 90;
position = "{532, 0}";
}
);
layerId = "072C83FE-E797-476D-AD14-FFA4AF9D5A34";
shapes = (
{
closed = 1;
nodes = (
(244,-419,o),
(367,-337,o),
(460,-163,cs),
(1148,1117,l),
(961,1117,l),
(505,227,l),
(493,227,l),
(333,1117,l),
(147,1117,l),
(373,-6,l),
(327,-93,ls),
(238,-259,o),
(176,-263,o),
(103,-263,cs),
(76,-263,o),
(36,-262,o),
(21,-260,c),
(-6,-415,l),
(15,-417,o),
(51,-419,o),
(89,-419,cs)
);
}
);
width = 1108;
},
{
anchors = (
{
name = bottom;
position = "{609, -86}";
},
{
name = ogonek;
position = "{374, -419}";
},
{
name = top;
position = "{636, 1303}";
}
);
guides = (
{
angle = 90;
position = "{532, 0}";
}
);
layerId = "E51591BD-FE93-453F-89B8-2F40CEFC943D";
shapes = (
{
closed = 1;
nodes = (
(172,-419,o),
(273,-344,o),
(346,-204,cs),
(1036,1117,l),
(986,1117,l),
(432,58,l),
(426,58,l),
(224,1117,l),
(174,1117,l),
(393,-20,l),
(305,-186,ls),
(219,-350,o),
(116,-374,o),
(41,-374,cs),
(33,-374,o),
(25,-372,o),
(21,-372,c),
(13,-419,l),
(17,-419,o),
(26,-419,o),
(33,-419,cs)
);
}
);
width = 1024;
}
);
leftKerningGroup = public.kern2.v2;
rightKerningGroup = public.kern1.v;
unicode = 121;
}
{
glyphname = z;
layers = (
{
anchors = (
{
name = m.uni0326;
position = "{602, 0}";
},
{
name = m.uni030F_1;
position = "{782, 1118}";
}
);
layerId = "B1221E90-548C-4905-8880-9EE25E37C96B";
shapes = (
{
closed = 1;
nodes = (
(21,0,l),
(58,222,l),
(634,806,l),
(635,812,l),
(171,812,l),
(222,1118,l),
(1168,1118,l),
(1127,872,l),
(599,312,l),
(598,306,l),
(1052,306,l),
(1001,0,l)
);
}
);
width = 1208;
},
{
anchors = (
{
name = m.uni0326;
position = "{656, 0}";
},
{
name = m.uni030F_1;
position = "{853, 1180}";
}
);
layerId = "072C83FE-E797-476D-AD14-FFA4AF9D5A34";
shapes = (
{
closed = 1;
nodes = (
(33,0,l),
(56,134,l),
(808,940,l),
(810,951,l),
(211,951,l),
(238,1118,l),
(1077,1118,l),
(1053,975,l),
(321,178,l),
(319,167,l),
(939,167,l),
(912,0,l)
);
}
);
width = 1131;
},
{
anchors = (
{
name = m.uni0326;
position = "{633, 0}";
},
{
name = m.uni030F_1;
position = "{860, 1242}";
}
);
layerId = "E51591BD-FE93-453F-89B8-2F40CEFC943D";
shapes = (
{
closed = 1;
nodes = (
(65,0,l),
(73,46,l),
(906,1066,l),
(907,1072,l),
(284,1072,l),
(292,1118,l),
(976,1118,l),
(968,1070,l),
(136,52,l),
(135,46,l),
(829,46,l),
(821,0,l)
);
}
);
width = 1072;
}
);
leftKerningGroup = public.kern2.z2;
rightKerningGroup = public.kern1.z;
unicode = 122;
}
{
glyphname = braceleft;
layers = (
{
layerId = "FAC11FF2-8AA5-4867-8567-384AA135D88B";
shapes = (
{
closed = 1;
nodes = (
(181,825,l),
(266,825,o),
(327,842,o),
(366,876,cs),
(405,909,o),
(430,962,o),
(441,1033,cs),
(463,1161,ls),
(480,1266,o),
(510,1347,o),
(552,1405,cs),
(594,1462,o),
(645,1503,o),
(705,1528,cs),
(765,1553,o),
(831,1568,o),
(902,1573,cs),
(973,1578,o),
(1045,1581,o),
(1120,1581,c),
(1072,1289,l),
(985,1289,o),
(925,1274,o),
(892,1245,cs),
(859,1216,o),
(838,1170,o),
(828,1109,cs),
(802,949,ls),
(790,877,o),
(754,797,o),
(660,734,cs),
(566,670,o),
(407,627,o),
(148,627,c)
);
},
{
closed = 1;
nodes = (
(812,-279,l),
(737,-279,o),
(665,-276,o),
(596,-271,cs),
(527,-266,o),
(466,-251,o),
(415,-226,cs),
(363,-201,o),
(326,-160,o),
(303,-103,cs),
(280,-45,o),
(277,36,o),
(294,141,cs),
(315,269,ls),
(327,340,o),
(319,393,o),
(292,427,c),
(264,460,o),
(208,477,o),
(123,477,c),
(156,675,l),
(285,675,o),
(388,665,o),
(464,646,cs),
(540,626,o),
(596,600,o),
(632,569,cs),
(668,537,o),
(690,502,o),
(699,464,cs),
(708,426,o),
(709,389,o),
(703,353,cs),
(676,193,ls),
(666,132,o),
(673,87,o),
(696,58,cs),
(719,28,o),
(774,13,o),
(861,13,c)
);
},
{
closed = 1;
nodes = (
(123,477,l),
(181,825,l),
(521,825,l),
(463,477,l)
);
}
);
width = 1035;
},
{
layerId = "3D85B7E1-85F7-4D8B-A4DD-E195C561FF62";
shapes = (
{
closed = 1;
nodes = (
(175,741,l),
(257,741,o),
(317,758,o),
(355,792,cs),
(393,825,o),
(418,881,o),
(431,960,cs),
(469,1190,ls),
(480,1258,o),
(497,1317,o),
(519,1366,cs),
(540,1415,o),
(569,1456,o),
(604,1488,cs),
(639,1519,o),
(683,1543,o),
(735,1558,cs),
(786,1573,o),
(848,1581,o),
(920,1581,c),
(895,1430,l),
(810,1431,o),
(749,1411,o),
(712,1372,cs),
(674,1332,o),
(648,1270,o),
(634,1187,cs),
(586,901,ls),
(574,826,o),
(548,764,o),
(486,718,cs),
(424,672,o),
(323,646,o),
(160,646,c)
);
},
{
closed = 1;
nodes = (
(612,-279,l),
(541,-279,o),
(483,-272,o),
(436,-257,cs),
(389,-242,o),
(353,-218,o),
(328,-187,cs),
(303,-156,o),
(287,-115,o),
(282,-66,cs),
(276,-16,o),
(279,43,o),
(290,112,cs),
(328,340,ls),
(341,418,o),
(335,474,o),
(309,509,c),
(282,543,o),
(228,560,o),
(146,561,c),
(162,656,l),
(242,656,o),
(306,650,o),
(355,637,cs),
(403,624,o),
(439,607,o),
(462,584,cs),
(485,561,o),
(500,534,o),
(505,503,cs),
(510,472,o),
(509,437,o),
(503,399,cs),
(456,115,ls),
(442,30,o),
(448,-32,o),
(473,-71,cs),
(498,-110,o),
(553,-130,o),
(638,-130,c)
);
},
{
closed = 1;
nodes = (
(146,560,l),
(176,742,l),
(356,742,l),
(325,560,l)
);
}
);
width = 875;
},
{
layerId = "5DA1E196-784D-41F4-ABD2-5FC63B6ED9FB";
shapes = (
{
closed = 1;
nodes = (
(191,675,l),
(275,675,o),
(335,690,o),
(370,720,cs),
(405,750,o),
(430,806,o),
(443,889,cs),
(506,1271,ls),
(515,1324,o),
(528,1370,o),
(545,1409,cs),
(562,1448,o),
(583,1480,o),
(609,1506,cs),
(635,1531,o),
(666,1550,o),
(701,1563,cs),
(736,1576,o),
(776,1582,o),
(821,1582,c),
(814,1536,l),
(738,1536,o),
(679,1515,o),
(638,1474,cs),
(597,1432,o),
(568,1364,o),
(553,1271,cs),
(490,889,ls),
(474,793,o),
(446,728,o),
(398,688,cs),
(350,647,o),
(281,629,o),
(184,629,c)
);
},
{
closed = 1;
nodes = (
(513,-280,l),
(468,-280,o),
(430,-274,o),
(399,-261,cs),
(368,-248,o),
(343,-229,o),
(326,-204,cs),
(309,-178,o),
(298,-146,o),
(294,-107,cs),
(290,-68,o),
(292,-22,o),
(301,31,cs),
(364,413,ls),
(377,496,o),
(372,553,o),
(347,584,cs),
(322,614,o),
(268,629,o),
(184,629,c),
(191,675,l),
(240,675,o),
(280,670,o),
(312,661,cs),
(344,652,o),
(369,637,o),
(386,616,cs),
(403,595,o),
(413,568,o),
(417,535,cs),
(421,502,o),
(419,461,o),
(411,413,cs),
(348,31,ls),
(333,-62,o),
(339,-129,o),
(366,-171,cs),
(393,-213,o),
(445,-234,o),
(521,-234,c)
);
},
{
closed = 1;
nodes = (
(184,629,l),
(191,675,l),
(347,675,l),
(340,629,l)
);
}
);
width = 810;
}
);
leftKerningGroup = parenleft2;
rightKerningGroup = parenleft;
unicode = 123;
}
{
glyphname = bar;
layers = (
{
layerId = "34603D4A-9538-491D-AC31-753F00B30A17";
shapes = (
{
closed = 1;
nodes = (
(846,1970,l),
(440,-480,l),
(46,-480,l),
(452,1970,l)
);
}
);
width = 830;
},
{
layerId = "85556A68-E3BA-4C8B-AB50-53608EAFDB0D";
shapes = (
{
closed = 1;
nodes = (
(651,1970,l),
(247,-480,l),
(90,-480,l),
(494,1970,l)
);
}
);
width = 681;
},
{
layerId = "0B13E480-0BFF-4E9F-8F40-D0AA519A66AF";
shapes = (
{
closed = 1;
nodes = (
(536,1970,l),
(130,-480,l),
(84,-480,l),
(490,1970,l)
);
}
);
width = 558;
}
);
leftKerningGroup = B2;
rightKerningGroup = H;
unicode = 124;
}
{
glyphname = braceright;
layers = (
{
layerId = "BF2F17A8-34C3-4EBA-8163-9D00BAFD6277";
shapes = (
{
closed = 1;
nodes = (
(908,627,l),
(651,627,o),
(505,670,o),
(433,734,cs),
(397,765,o),
(375,800,o),
(367,838,cs),
(358,876,o),
(357,913,o),
(363,949,cs),
(389,1109,ls),
(399,1170,o),
(393,1216,o),
(370,1245,cs),
(347,1274,o),
(292,1289,o),
(205,1289,c),
(253,1581,l),
(328,1581,o),
(401,1578,o),
(470,1573,cs),
(539,1568,o),
(600,1553,o),
(652,1528,cs),
(704,1503,o),
(742,1462,o),
(765,1405,cs),
(788,1347,o),
(790,1266,o),
(772,1161,cs),
(750,1033,ls),
(737,962,o),
(745,909,o),
(773,876,cs),
(801,842,o),
(857,825,o),
(942,825,c)
);
},
{
closed = 1;
nodes = (
(-6,13,l),
(81,13,o),
(141,28,o),
(173,58,cs),
(205,87,o),
(226,132,o),
(237,193,cs),
(264,353,ls),
(276,425,o),
(313,505,o),
(406,569,cs),
(498,632,o),
(659,675,o),
(916,675,c),
(884,477,l),
(799,477,o),
(738,460,o),
(699,427,cs),
(660,393,o),
(635,340,o),
(624,269,cs),
(603,141,ls),
(586,36,o),
(556,-45,o),
(514,-103,cs),
(471,-160,o),
(420,-201,o),
(361,-226,cs),
(301,-251,o),
(236,-266,o),
(165,-271,cs),
(94,-276,o),
(20,-279,o),
(-55,-279,c)
);
},
{
closed = 1;
nodes = (
(884,477,l),
(544,477,l),
(602,825,l),
(942,825,l)
);
}
);
width = 1035;
},
{
layerId = "074E11EA-331B-4F91-A771-D63337ECF1B1";
shapes = (
{
closed = 1;
nodes = (
(743,646,l),
(580,646,o),
(487,672,o),
(441,718,cs),
(418,741,o),
(404,768,o),
(399,799,cs),
(394,830,o),
(395,864,o),
(401,901,cs),
(449,1187,ls),
(463,1270,o),
(458,1332,o),
(433,1372,cs),
(408,1411,o),
(352,1431,o),
(267,1430,c),
(292,1581,l),
(364,1581,o),
(424,1573,o),
(471,1558,cs),
(518,1543,o),
(553,1519,o),
(578,1488,cs),
(603,1456,o),
(618,1415,o),
(624,1366,cs),
(629,1317,o),
(626,1258,o),
(615,1190,cs),
(577,960,ls),
(564,881,o),
(571,825,o),
(597,792,cs),
(623,758,o),
(677,741,o),
(758,741,c)
);
},
{
closed = 1;
nodes = (
(9,-130,l),
(94,-130,o),
(155,-110,o),
(193,-71,cs),
(231,-32,o),
(257,30,o),
(271,115,cs),
(318,399,ls),
(330,475,o),
(358,539,o),
(420,584,cs),
(482,629,o),
(583,656,o),
(744,656,c),
(729,561,l),
(646,560,o),
(586,543,o),
(549,508,cs),
(512,473,o),
(487,417,o),
(474,340,cs),
(437,112,ls),
(426,44,o),
(410,-15,o),
(389,-64,cs),
(367,-113,o),
(338,-153,o),
(303,-185,cs),
(268,-217,o),
(224,-241,o),
(172,-256,cs),
(119,-271,o),
(57,-279,o),
(-16,-279,c)
);
},
{
closed = 1;
nodes = (
(729,561,l),
(550,560,l),
(580,742,l),
(758,741,l)
);
}
);
width = 874;
},
{
layerId = "B31D44BF-3352-4B16-8DB9-CDCEC9E4DE37";
shapes = (
{
closed = 1;
nodes = (
(650,629,l),
(553,629,o),
(490,647,o),
(455,688,cs),
(438,708,o),
(427,735,o),
(424,768,cs),
(420,801,o),
(422,841,o),
(430,889,cs),
(493,1271,ls),
(508,1364,o),
(502,1432,o),
(475,1474,cs),
(448,1515,o),
(396,1536,o),
(320,1536,c),
(327,1582,l),
(372,1582,o),
(411,1576,o),
(442,1563,cs),
(473,1550,o),
(497,1531,o),
(514,1506,cs),
(531,1480,o),
(542,1448,o),
(547,1409,cs),
(551,1370,o),
(549,1324,o),
(540,1271,cs),
(477,889,ls),
(464,806,o),
(469,750,o),
(494,720,cs),
(519,690,o),
(573,675,o),
(657,675,c)
);
},
{
closed = 1;
nodes = (
(27,-234,l),
(103,-234,o),
(162,-213,o),
(203,-171,cs),
(244,-129,o),
(273,-62,o),
(288,31,cs),
(351,413,ls),
(367,509,o),
(395,575,o),
(443,616,cs),
(491,657,o),
(560,675,o),
(657,675,c),
(650,629,l),
(566,629,o),
(506,614,o),
(471,584,cs),
(436,553,o),
(411,496,o),
(398,413,cs),
(335,31,ls),
(326,-22,o),
(313,-68,o),
(296,-107,cs),
(279,-146,o),
(257,-178,o),
(231,-204,cs),
(205,-229,o),
(175,-248,o),
(140,-261,cs),
(105,-274,o),
(64,-280,o),
(19,-280,c)
);
},
{
closed = 1;
nodes = (
(650,629,l),
(494,629,l),
(501,675,l),
(657,675,l)
);
}
);
width = 810;
}
);
leftKerningGroup = parenright2;
rightKerningGroup = parenright;
unicode = 125;
}
{
glyphname = asciitilde;
layers = (
{
layerId = "EF0863B1-A80B-4AC4-A80D-A5009A8E023C";
shapes = (
{
closed = 1;
nodes = (
(120,376,l),
(131,476,o),
(155,563,o),
(190,636,cs),
(261,782,o),
(377,864,o),
(530,864,cs),
(573,864,o),
(614,855,o),
(653,838,cs),
(691,821,o),
(733,789,o),
(780,742,cs),
(800,721,o),
(818,705,o),
(834,692,cs),
(849,679,o),
(869,672,o),
(894,672,cs),
(924,672,o),
(951,685,o),
(976,710,cs),
(1001,735,o),
(1017,777,o),
(1026,834,c),
(1318,834,l),
(1305,735,o),
(1281,650,o),
(1244,577,cs),
(1170,431,o),
(1052,346,o),
(904,346,cs),
(857,346,o),
(814,356,o),
(775,375,cs),
(736,394,o),
(695,425,o),
(652,468,cs),
(629,491,o),
(611,509,o),
(598,521,cs),
(585,532,o),
(567,538,o),
(542,538,cs),
(511,538,o),
(484,526,o),
(459,501,cs),
(434,476,o),
(417,434,o),
(410,376,c)
);
}
);
width = 1420;
},
{
layerId = "772355B8-E81A-4CAE-88E1-18D30E544C30";
shapes = (
{
closed = 1;
nodes = (
(148,439,l),
(161,521,o),
(184,587,o),
(219,637,cs),
(288,737,o),
(388,780,o),
(489,780,cs),
(538,780,o),
(582,770,o),
(619,749,cs),
(656,728,o),
(698,694,o),
(745,647,cs),
(776,616,o),
(801,595,o),
(822,582,cs),
(843,569,o),
(866,563,o),
(891,563,cs),
(933,563,o),
(969,578,o),
(998,608,cs),
(1027,638,o),
(1045,682,o),
(1054,740,c),
(1216,740,l),
(1205,659,o),
(1182,595,o),
(1148,546,cs),
(1079,448,o),
(980,405,o),
(877,405,cs),
(827,405,o),
(784,416,o),
(747,439,cs),
(710,461,o),
(669,494,o),
(624,539,cs),
(593,570,o),
(567,590,o),
(545,601,cs),
(523,611,o),
(499,616,o),
(473,616,cs),
(434,616,o),
(400,603,o),
(371,576,cs),
(342,549,o),
(322,503,o),
(312,439,c)
);
}
);
width = 1356;
},
{
layerId = "F09EDC10-DC28-4948-8673-8B4992B77282";
shapes = (
{
closed = 1;
nodes = (
(180,488,l),
(193,531,o),
(214,567,o),
(242,597,cs),
(297,657,o),
(378,690,o),
(474,690,c),
(525,689,o),
(568,679,o),
(601,660,cs),
(634,641,o),
(663,621,o),
(690,602,cs),
(716,583,o),
(741,567,o),
(766,552,cs),
(791,537,o),
(821,529,o),
(856,530,c),
(907,529,o),
(953,544,o),
(995,573,cs),
(1036,602,o),
(1067,639,o),
(1088,686,c),
(1132,674,l),
(1115,634,o),
(1093,600,o),
(1066,571,c),
(1010,514,o),
(937,483,o),
(850,482,c),
(806,483,o),
(769,492,o),
(740,511,cs),
(710,530,o),
(683,549,o),
(658,568,cs),
(631,588,o),
(604,606,o),
(576,621,cs),
(548,636,o),
(512,643,o),
(468,642,c),
(410,643,o),
(359,628,o),
(315,598,cs),
(271,568,o),
(241,529,o),
(226,482,c)
);
}
);
width = 1304;
}
);
rightKerningGroup = plus;
unicode = 126;
}
{
glyphname = exclamdown;
layers = (
{
layerId = "B1221E90-548C-4905-8880-9EE25E37C96B";
shapes = (
{
closed = 1;
nodes = (
(586,652,l),
(446,-372,l),
(22,-372,l),
(222,652,l)
);
},
{
closed = 1;
nodes = (
(685,1118,l),
(621,767,l),
(213,767,l),
(277,1118,l)
);
}
);
width = 776;
},
{
layerId = "072C83FE-E797-476D-AD14-FFA4AF9D5A34";
shapes = (
{
closed = 1;
nodes = (
(172,479,l),
(328,1490,l),
(532,1490,l),
(351,479,l)
);
},
{
closed = 1;
nodes = (
(67,0,l),
(105,232,l),
(339,232,l),
(301,0,l)
);
}
);
width = 555;
},
{
layerId = "E51591BD-FE93-453F-89B8-2F40CEFC943D";
shapes = (
{
closed = 1;
nodes = (
(313,684,l),
(138,-372,l),
(92,-372,l),
(267,684,l)
);
},
{
closed = 1;
nodes = (
(407,1118,l),
(392,1028,l),
(302,1028,l),
(317,1118,l)
);
}
);
width = 538;
}
);
unicode = 161;
}
{
color = (153, 251, 255, 255);
glyphname = cent;
layers = (
{
guides = (
{
angle = 90;
position = "{962.909, 0}";
}
);
layerId = "B1221E90-548C-4905-8880-9EE25E37C96B";
shapes = (
{
closed = 1;
nodes = (
(585.636,0,l),
(833.879,1489.455,l),
(714.606,1489.455,l),
(466.364,0,l)
);
},
{
alignment = -1;
pos = (0,189);
ref = c;
}
);
width = 1242;
},
{
guides = (
{
angle = 90;
position = "{573.091, 0}";
}
);
layerId = "072C83FE-E797-476D-AD14-FFA4AF9D5A34";
shapes = (
{
closed = 1;
nodes = (
(526.,0,l),
(774.242,1489.455,l),
(654.97,1489.455,l),
(406.727,0,l)
);
},
{
alignment = -1;
pos = (0,191);
ref = c;
}
);
width = 1111;
},
{
layerId = "E51591BD-FE93-453F-89B8-2F40CEFC943D";
shapes = (
{
closed = 1;
nodes = (
(476.545,0,l),
(724.788,1489.455,l),
(678.242,1489.455,l),
(430.,0,l)
);
},
{
alignment = -1;
pos = (0,189);
ref = c;
}
);
width = 1085;
}
);
leftKerningGroup = public.kern2.c;
rightKerningGroup = public.kern1.b;
unicode = 162;
}
{
glyphname = sterling;
layers = (
{
layerId = "04467604-8FE9-4714-B90C-9622AAE539FB";
shapes = (
{
closed = 1;
nodes = (
(43,328,l),
(95,328,o),
(139,338,o),
(175,358,cs),
(211,378,o),
(231,408,o),
(235,448,cs),
(284,964,ls),
(295,1085,o),
(329,1186,o),
(386,1267,cs),
(443,1348,o),
(515,1410,o),
(602,1452,cs),
(689,1493,o),
(784,1514,o),
(887,1514,cs),
(979,1514,o),
(1061,1497,o),
(1132,1463,cs),
(1275,1395,o),
(1361,1266,o),
(1362,1089,c),
(979,1032,l),
(981,1085,o),
(972,1124,o),
(953,1149,cs),
(933,1174,o),
(901,1186,o),
(856,1186,cs),
(819,1186,o),
(787,1179,o),
(762,1166,cs),
(711,1138,o),
(682,1080,o),
(670,988,cs),
(610,524,ls),
(603,467,o),
(581,423,o),
(545,390,cs),
(508,357,o),
(465,332,o),
(414,317,cs),
(363,301,o),
(312,291,o),
(260,286,cs),
(207,281,o),
(161,280,o),
(120,281,cs),
(79,282,o),
(51,282,o),
(36,282,c)
);
},
{
closed = 1;
nodes = (
(92,630,l),
(130,860,l),
(968,860,l),
(930,630,l)
);
},
{
closed = 1;
nodes = (
(-11,0,l),
(43,328,l),
(1266,328,l),
(1212,0,l)
);
}
);
width = 1380;
},
{
layerId = "23EE5F7B-1869-4A94-9115-57B554FEB4FE";
shapes = (
{
closed = 1;
nodes = (
(44,160,l),
(97,160,o),
(141,176,o),
(175,207,cs),
(209,238,o),
(231,289,o),
(241,362,cs),
(334,1054,ls),
(346,1143,o),
(375,1222,o),
(422,1291,cs),
(468,1360,o),
(527,1413,o),
(600,1452,cs),
(672,1491,o),
(753,1510,o),
(844,1510,cs),
(920,1510,o),
(987,1495,o),
(1045,1464,cs),
(1160,1402,o),
(1228,1288,o),
(1227,1140,c),
(1059,1114,l),
(1058,1187,o),
(1039,1245,o),
(1000,1287,cs),
(961,1329,o),
(905,1350,o),
(833,1350,cs),
(774,1350,o),
(721,1338,o),
(675,1315,cs),
(582,1267,o),
(521,1178,o),
(505,1058,cs),
(412,366,ls),
(406,322,o),
(392,285,o),
(371,255,cs),
(349,225,o),
(323,201,o),
(293,182,cs),
(262,163,o),
(231,148,o),
(198,138,cs),
(165,128,o),
(135,121,o),
(106,118,c),
(77,114,o),
(54,112,o),
(37,112,c)
);
},
{
closed = 1;
nodes = (
(129,672,l),
(153,818,l),
(963,818,l),
(939,672,l)
);
},
{
closed = 1;
nodes = (
(18,0,l),
(44,160,l),
(1083,160,l),
(1057,0,l)
);
}
);
width = 1243;
},
{
layerId = "43DA4125-45C3-47AB-8F4B-FC6AC1251C13";
shapes = (
{
closed = 1;
nodes = (
(54,46,l),
(119,46,o),
(172,69,o),
(211,116,cs),
(250,162,o),
(275,228,o),
(285,315,cs),
(371,1055,l),
(382,1144,o),
(409,1222,o),
(452,1290,cs),
(495,1357,o),
(550,1410,o),
(618,1449,cs),
(686,1487,o),
(762,1506,o),
(847,1506,cs),
(926,1506,o),
(991,1489,o),
(1044,1456,cs),
(1149,1389,o),
(1197,1269,o),
(1172,1118,c),
(1126,1118,l),
(1143,1219,o),
(1127,1301,o),
(1079,1365,cs),
(1030,1428,o),
(953,1460,o),
(848,1460,cs),
(775,1460,o),
(707,1443,o),
(645,1410,cs),
(521,1342,o),
(436,1218,o),
(417,1057,cs),
(331,317,ls),
(326,278,o),
(319,243,o),
(308,211,cs),
(297,179,o),
(284,150,o),
(267,125,cs),
(250,100,o),
(230,78,o),
(208,61,cs),
(186,44,o),
(162,31,o),
(135,22,cs),
(108,13,o),
(78,8,o),
(47,8,c)
);
},
{
closed = 1;
nodes = (
(158,722,l),
(165,768,l),
(950,768,l),
(943,722,l)
);
},
{
closed = 1;
nodes = (
(38,0,l),
(46,46,l),
(1015,46,l),
(1007,0,l)
);
}
);
width = 1224;
}
);
unicode = 163;
}
{
glyphname = currency;
layers = (
{
layerId = "0C8A2A23-4AE2-454C-AEC2-B13207615F2B";
shapes = (
{
closed = 1;
nodes = (
(546,-20,o),
(402,47,o),
(307,161,cs),
(211,275,o),
(169,431,o),
(198,608,cs),
(226,785,o),
(321,941,o),
(454,1054,cs),
(587,1167,o),
(753,1234,o),
(926,1234,cs),
(1095,1234,o),
(1238,1167,o),
(1334,1054,cs),
(1430,941,o),
(1474,785,o),
(1446,608,cs),
(1417,431,o),
(1321,275,o),
(1187,161,cs),
(1053,47,o),
(887,-20,o),
(718,-20,cs)
);
},
{
closed = 1;
nodes = (
(870,190,o),
(981,233,o),
(1071,309,cs),
(1161,385,o),
(1225,488,o),
(1246,608,cs),
(1259,689,o),
(1251,761,o),
(1224,824,cs),
(1196,887,o),
(1153,936,o),
(1096,973,cs),
(1038,1009,o),
(971,1027,o),
(894,1026,c),
(814,1027,o),
(739,1009,o),
(669,973,cs),
(599,936,o),
(540,887,o),
(493,824,cs),
(446,761,o),
(415,689,o),
(402,608,cs),
(388,529,o),
(394,457,o),
(421,394,cs),
(447,331,o),
(489,281,o),
(547,245,cs),
(605,208,o),
(674,190,o),
(754,190,cs)
);
},
{
closed = 1;
nodes = (
(1330,908,l),
(1202,1064,l),
(1446,1272,l),
(1576,1114,l)
);
},
{
closed = 1;
nodes = (
(1228,-32,l),
(1054,174,l),
(1234,328,l),
(1410,126,l)
);
},
{
closed = 1;
nodes = (
(204,-32,l),
(76,126,l),
(320,328,l),
(450,174,l)
);
},
{
closed = 1;
nodes = (
(416,908,l),
(242,1114,l),
(422,1272,l),
(600,1064,l)
);
}
);
width = 1624;
},
{
layerId = "70700972-0F8E-4D63-A70C-6AC279DB2638";
shapes = (
{
closed = 1;
nodes = (
(478,-20,o),
(341,47,o),
(252,161,cs),
(163,275,o),
(124,431,o),
(153,608,cs),
(181,785,o),
(271,941,o),
(399,1054,cs),
(526,1167,o),
(684,1234,o),
(848,1234,cs),
(1011,1234,o),
(1148,1168,o),
(1241,1056,cs),
(1333,943,o),
(1374,788,o),
(1345,609,cs),
(1316,430,o),
(1223,275,o),
(1094,161,cs),
(965,47,o),
(806,-20,o),
(642,-20,cs)
);
},
{
closed = 1;
nodes = (
(787,142,o),
(902,193,o),
(995,278,cs),
(1088,363,o),
(1156,478,o),
(1177,606,cs),
(1192,693,o),
(1186,771,o),
(1159,842,cs),
(1131,913,o),
(1088,969,o),
(1029,1011,cs),
(970,1053,o),
(901,1074,o),
(822,1074,cs),
(743,1074,o),
(667,1053,o),
(595,1012,cs),
(523,970,o),
(462,914,o),
(412,844,cs),
(362,773,o),
(330,695,o),
(315,608,cs),
(300,523,o),
(307,446,o),
(334,375,cs),
(361,304,o),
(403,248,o),
(462,206,cs),
(520,163,o),
(589,142,o),
(668,142,cs)
);
},
{
closed = 1;
nodes = (
(1222,925,l),
(1124,1049,l),
(1360,1255,l),
(1462,1131,l)
);
},
{
closed = 1;
nodes = (
(1148,-15,l),
(982,191,l),
(1122,313,l),
(1290,109,l)
);
},
{
closed = 1;
nodes = (
(141,-15,l),
(44,109,l),
(280,313,l),
(380,191,l)
);
},
{
closed = 1;
nodes = (
(382,925,l),
(216,1131,l),
(354,1255,l),
(522,1049,l)
);
}
);
width = 1484;
},
{
layerId = "70E6EC48-9A24-4AD5-9BFE-11FF46F6DBD6";
shapes = (
{
closed = 1;
nodes = (
(439,-20,o),
(305,48,o),
(218,163,cs),
(130,278,o),
(93,433,o),
(122,608,cs),
(153,789,o),
(240,944,o),
(362,1057,cs),
(484,1169,o),
(636,1234,o),
(800,1234,cs),
(965,1234,o),
(1098,1166,o),
(1185,1053,cs),
(1272,940,o),
(1308,784,o),
(1280,608,cs),
(1251,429,o),
(1164,273,o),
(1041,160,cs),
(917,47,o),
(764,-20,o),
(600,-20,cs)
);
},
{
closed = 1;
nodes = (
(751,26,o),
(894,88,o),
(1010,195,cs),
(1125,302,o),
(1206,445,o),
(1234,608,cs),
(1253,719,o),
(1246,819,o),
(1214,906,cs),
(1181,993,o),
(1129,1062,o),
(1057,1112,cs),
(985,1162,o),
(899,1187,o),
(798,1186,c),
(699,1187,o),
(604,1162,o),
(515,1111,cs),
(426,1060,o),
(350,991,o),
(289,904,cs),
(227,817,o),
(187,718,o),
(168,608,cs),
(150,497,o),
(157,398,o),
(190,311,cs),
(222,223,o),
(274,154,o),
(345,103,cs),
(416,52,o),
(501,26,o),
(600,26,cs)
);
},
{
closed = 1;
nodes = (
(1182,1000,l),
(1154,1038,l),
(1360,1218,l),
(1388,1182,l)
);
},
{
closed = 1;
nodes = (
(1160,0,l),
(1014,180,l),
(1048,212,l),
(1192,32,l)
);
},
{
closed = 1;
nodes = (
(40,0,l),
(14,36,l),
(216,216,l),
(244,180,l)
);
},
{
closed = 1;
nodes = (
(352,1004,l),
(208,1184,l),
(242,1216,l),
(386,1036,l)
);
}
);
width = 1394;
}
);
unicode = 164;
}
{
glyphname = yen;
layers = (
{
layerId = "B92D097E-6F62-4818-9792-FACFD7690A0B";
shapes = (
{
closed = 1;
nodes = (
(588,1490,l),
(730,792,l),
(430,562,l),
(184,1490,l)
);
},
{
closed = 1;
nodes = (
(558,802,l),
(926,1490,l),
(1330,1490,l),
(770,562,l)
);
},
{
closed = 1;
nodes = (
(832,786,l),
(702,0,l),
(302,0,l),
(434,786,l)
);
},
{
closed = 1;
nodes = (
(1106,786,l),
(1070,574,l),
(88,574,l),
(122,786,l)
);
},
{
closed = 1;
nodes = (
(1058,498,l),
(1022,286,l),
(38,286,l),
(76,498,l)
);
}
);
width = 1204;
},
{
layerId = "14A30E1C-002E-4EDB-A2B6-9D6791ECC38B";
shapes = (
{
closed = 1;
nodes = (
(396,1490,l),
(636,666,l),
(479,600,l),
(187,1490,l)
);
},
{
closed = 1;
nodes = (
(534,666,l),
(1046,1490,l),
(1255,1490,l),
(666,600,l)
);
},
{
closed = 1;
nodes = (
(699,782,l),
(568,0,l),
(378,0,l),
(510,782,l)
);
},
{
closed = 1;
nodes = (
(1014,744,l),
(993,608,l),
(154,608,l),
(175,744,l)
);
},
{
closed = 1;
nodes = (
(967,456,l),
(947,320,l),
(108,320,l),
(129,456,l)
);
}
);
width = 1129;
},
{
layerId = "536BEFF9-0CB2-44EC-980E-54189405B9DA";
shapes = (
{
closed = 1;
nodes = (
(248,1490,l),
(570,642,l),
(520,642,l),
(198,1490,l)
);
},
{
closed = 1;
nodes = (
(522,642,l),
(1124,1490,l),
(1182,1490,l),
(578,642,l)
);
},
{
closed = 1;
nodes = (
(582,692,l),
(466,0,l),
(418,0,l),
(536,692,l)
);
},
{
closed = 1;
nodes = (
(928,674,l),
(920,628,l),
(174,628,l),
(184,674,l)
);
},
{
closed = 1;
nodes = (
(896,488,l),
(888,442,l),
(142,442,l),
(152,488,l)
);
}
);
width = 1070;
}
);
unicode = 165;
}
{
glyphname = brokenbar;
layers = (
{
layerId = "FAC11FF2-8AA5-4867-8567-384AA135D88B";
shapes = (
{
closed = 1;
nodes = (
(206,424,l),
(562,424,l),
(446,-280,l),
(90,-280,l)
);
},
{
closed = 1;
nodes = (
(738,1490,l),
(622,788,l),
(268,788,l),
(384,1490,l)
);
}
);
width = 814;
},
{
layerId = "3D85B7E1-85F7-4D8B-A4DD-E195C561FF62";
shapes = (
{
closed = 1;
nodes = (
(166,403,l),
(335,403,l),
(221,-280,l),
(52,-280,l)
);
},
{
closed = 1;
nodes = (
(515,1490,l),
(401,811,l),
(232,811,l),
(346,1490,l)
);
}
);
width = 553;
},
{
layerId = "5DA1E196-784D-41F4-ABD2-5FC63B6ED9FB";
shapes = (
{
closed = 1;
nodes = (
(142,386,l),
(188,386,l),
(74,-280,l),
(28,-280,l)
);
},
{
closed = 1;
nodes = (
(368,1490,l),
(258,826,l),
(210,826,l),
(322,1490,l)
);
}
);
width = 382;
}
);
unicode = 166;
}
